<svg width="422" height="40" viewBox="0 0 422 40" fill="none" xmlns="http://www.w3.org/2000/svg">
<g clip-path="url(#clip0)">
<path fill-rule="evenodd" clip-rule="evenodd" d="M35.7774 39.9836V29.6104H24.5468C21.4926 29.6104 18.6635 31.223 17.0993 33.8558L13.4584 39.9836H35.7774Z" fill="#63D2F9"/>
<path fill-rule="evenodd" clip-rule="evenodd" d="M0.0332031 0.133484V10.5067H29.6139L35.7774 0.133484H0.0332031Z" fill="#4E5EE4"/>
<path fill-rule="evenodd" clip-rule="evenodd" d="M14.1902 16.3452L0.0657959 39.9836H12.0995L28.9898 11.7036H22.3447C19.0023 11.7036 15.9058 13.4661 14.1902 16.3452Z" fill="#63B0F9"/>
<path opacity="0.9" d="M288.7 30.0173C284.218 30.0173 281.078 26.6207 281.078 22.2251C281.078 17.8296 284.304 14.433 288.672 14.433C291.898 14.433 294.895 16.3739 295.695 19.6848H293.354C292.754 17.7439 290.87 16.488 288.729 16.488C285.56 16.488 283.419 18.9998 283.419 22.2251C283.419 25.5646 285.674 27.9622 288.786 27.9622C290.927 27.9622 292.84 26.7063 293.411 24.7654H295.723C294.952 28.0764 291.926 30.0173 288.7 30.0173ZM306.843 30.0173C302.39 30.0173 299.107 26.7349 299.107 22.2251C299.107 17.7439 302.447 14.433 306.872 14.433C311.354 14.433 314.608 17.7725 314.608 22.2251C314.608 26.6778 311.297 30.0173 306.843 30.0173ZM306.843 27.9622C310.041 27.9622 312.296 25.5361 312.296 22.2251C312.296 18.9427 310.041 16.488 306.843 16.488C303.646 16.488 301.419 18.9713 301.419 22.2251C301.419 25.5646 303.674 27.9622 306.843 27.9622ZM319.134 29.6462V14.804H321.389V16.9733H321.56C322.188 15.6318 323.787 14.433 326.099 14.433C329.554 14.433 331.638 17.0304 331.638 20.3128V29.6462H329.382V20.4555C329.382 18.0864 327.641 16.5451 325.557 16.5451C323.216 16.5451 321.389 18.3433 321.389 20.798V29.6462H319.134ZM342.815 29.6462C340.074 29.6462 338.39 28.162 338.39 25.165V16.7164H335.592V14.804H337.819C338.219 14.804 338.533 14.5471 338.533 14.0619V10.4941H340.645V14.804H345.213V16.7164H340.645V25.1365C340.645 26.7349 341.245 27.6768 342.957 27.6768H345.013V29.6462H342.815ZM349.738 29.6462V14.804H351.965V17.5727H352.136C352.564 16.3168 354.02 14.804 356.19 14.804H357.446V17.0589H356.219C353.507 17.0589 351.993 19.1711 351.993 21.9968V29.6462H349.738ZM367.367 30.0173C362.999 30.0173 359.973 26.792 359.973 22.2537C359.973 17.6868 362.999 14.433 367.196 14.433C370.308 14.433 371.963 16.431 372.42 17.2016H372.591V14.804H374.847V29.6462H372.677V27.3057H372.506C372.135 27.8481 370.593 30.0173 367.367 30.0173ZM367.51 27.9908C370.736 27.9908 372.677 25.3648 372.677 22.2537C372.677 18.6002 370.393 16.488 367.453 16.488C364.398 16.488 362.286 18.8856 362.286 22.2537C362.286 25.7359 364.398 27.9908 367.51 27.9908ZM386.709 30.0173C382.227 30.0173 379.087 26.6207 379.087 22.2251C379.087 17.8296 382.312 14.433 386.68 14.433C389.906 14.433 392.904 16.3739 393.703 19.6848H391.362C390.763 17.7439 388.879 16.488 386.737 16.488C383.569 16.488 381.427 18.9998 381.427 22.2251C381.427 25.5646 383.683 27.9622 386.795 27.9622C388.936 27.9622 390.848 26.7063 391.419 24.7654H393.732C392.961 28.0764 389.935 30.0173 386.709 30.0173ZM404.052 29.6462C401.312 29.6462 399.627 28.162 399.627 25.165V16.7164H396.83V14.804H399.056C399.456 14.804 399.77 14.5471 399.77 14.0619V10.4941H401.883V14.804H406.45V16.7164H401.883V25.1365C401.883 26.7349 402.482 27.6768 404.195 27.6768H406.25V29.6462H404.052ZM415.886 30.0173C412.375 30.0173 410.376 28.1049 410.119 25.3363H412.317C412.574 27.1059 413.831 28.0479 416 28.0479C418.227 28.0479 419.454 26.9632 419.454 25.4505C419.454 21.2832 410.576 24.4515 410.576 18.5717C410.576 16.0599 412.831 14.433 415.943 14.433C418.684 14.433 420.968 16.0314 421.196 18.7144H419.026C418.826 17.3158 417.77 16.3739 415.8 16.3739C413.945 16.3739 412.746 17.2872 412.746 18.5717C412.746 22.3393 421.653 19.1996 421.653 25.3363C421.653 28.1335 419.34 30.0173 415.886 30.0173Z" fill="#282846"/>
<path d="M61.3795 30.03C55.3284 30.03 50.8757 25.6059 50.8757 19.669C50.8757 13.7892 55.3569 9.30797 61.408 9.30797C67.4591 9.30797 71.9403 13.8463 71.9403 19.669C71.9403 25.5488 67.4305 30.03 61.3795 30.03ZM61.408 26.4051C65.2327 26.4051 67.9728 23.5508 67.9728 19.669C67.9728 15.8443 65.2327 12.9329 61.408 12.9329C57.5547 12.9329 54.8146 15.8443 54.8146 19.669C54.8146 23.5508 57.5547 26.4051 61.408 26.4051ZM75.9923 36.2238V14.6455H79.6457V16.5578H79.8455C80.2451 15.9299 81.6152 14.2744 84.3553 14.2744C88.5511 14.2744 91.4339 17.4141 91.4339 22.0951C91.4339 26.7761 88.5796 30.03 84.4695 30.03C81.815 30.03 80.3879 28.5458 79.9026 27.718H79.7028V36.2238H75.9923ZM83.6417 26.6619C86.0393 26.6619 87.6662 24.8067 87.6662 22.1522C87.6662 19.4121 86.0393 17.6424 83.6132 17.6424C81.1585 17.6424 79.6172 19.6119 79.6172 22.1522C79.6172 24.9494 81.3298 26.6619 83.6417 26.6619ZM102.051 30.03C97.6266 30.03 94.4869 26.719 94.4869 22.2378C94.4869 17.4997 97.6551 14.2744 102.051 14.2744C106.874 14.2744 109.5 17.8422 109.5 22.0666V23.2368H98.0833C98.1975 25.5202 99.7673 27.0615 102.165 27.0615C103.992 27.0615 105.39 26.2053 105.904 24.9779H109.358C108.616 28.032 105.933 30.03 102.051 30.03ZM98.1404 20.6109H105.961C105.79 18.5844 104.22 17.2428 102.051 17.2428C99.9671 17.2428 98.3687 18.7271 98.1404 20.6109ZM113.495 29.6589V14.6455H117.035V16.4722H117.234C117.834 15.359 119.318 14.2744 121.459 14.2744C124.827 14.2744 126.882 16.6434 126.882 19.8402V29.6589H123.171V20.8107C123.171 18.984 122.001 17.7566 120.288 17.7566C118.49 17.7566 117.206 19.1837 117.206 21.0676V29.6589H113.495ZM130.563 29.6589V26.2623L140.952 13.1612V12.9614H130.934V9.67903H145.69V13.0471L135.301 26.1482V26.3765H145.748V29.6589H130.563ZM155.794 30.03C151.369 30.03 148.23 26.719 148.23 22.2378C148.23 17.4997 151.398 14.2744 155.794 14.2744C160.617 14.2744 163.243 17.8422 163.243 22.0666V23.2368H151.826C151.94 25.5202 153.51 27.0615 155.908 27.0615C157.734 27.0615 159.133 26.2053 159.647 24.9779H163.1C162.358 28.032 159.675 30.03 155.794 30.03ZM151.883 20.6109H159.704C159.533 18.5844 157.963 17.2428 155.794 17.2428C153.71 17.2428 152.112 18.7271 151.883 20.6109ZM167.238 36.2238V14.6455H170.892V16.5578H171.091C171.491 15.9299 172.861 14.2744 175.601 14.2744C179.797 14.2744 182.68 17.4141 182.68 22.0951C182.68 26.7761 179.825 30.03 175.715 30.03C173.061 30.03 171.634 28.5458 171.148 27.718H170.949V36.2238H167.238ZM174.888 26.6619C177.285 26.6619 178.912 24.8067 178.912 22.1522C178.912 19.4121 177.285 17.6424 174.859 17.6424C172.404 17.6424 170.863 19.6119 170.863 22.1522C170.863 24.9494 172.576 26.6619 174.888 26.6619ZM186.675 36.2238V14.6455H190.328V16.5578H190.528C190.927 15.9299 192.298 14.2744 195.038 14.2744C199.233 14.2744 202.116 17.4141 202.116 22.0951C202.116 26.7761 199.262 30.03 195.152 30.03C192.497 30.03 191.07 28.5458 190.585 27.718H190.385V36.2238H186.675ZM194.324 26.6619C196.722 26.6619 198.349 24.8067 198.349 22.1522C198.349 19.4121 196.722 17.6424 194.296 17.6424C191.841 17.6424 190.3 19.6119 190.3 22.1522C190.3 24.9494 192.012 26.6619 194.324 26.6619ZM212.733 30.03C208.309 30.03 205.169 26.719 205.169 22.2378C205.169 17.4997 208.337 14.2744 212.733 14.2744C217.557 14.2744 220.183 17.8422 220.183 22.0666V23.2368H208.766C208.88 25.5202 210.45 27.0615 212.847 27.0615C214.674 27.0615 216.073 26.2053 216.586 24.9779H220.04C219.298 28.032 216.615 30.03 212.733 30.03ZM208.823 20.6109H216.643C216.472 18.5844 214.902 17.2428 212.733 17.2428C210.649 17.2428 209.051 18.7271 208.823 20.6109ZM227.831 29.6589C225.205 29.6589 223.721 28.0891 223.721 25.4346V8.25189H227.432V25.0921C227.432 25.9484 227.86 26.4051 228.63 26.4051H229.23V29.6589H227.831ZM234.652 12.6475C233.31 12.6475 232.368 11.8197 232.368 10.4782C232.368 9.1938 233.31 8.33752 234.652 8.33752C235.993 8.33752 236.935 9.1938 236.935 10.4782C236.935 11.8197 235.993 12.6475 234.652 12.6475ZM232.797 29.6589V14.6455H236.507V29.6589H232.797ZM241.016 29.6589V14.6455H244.555V16.4722H244.755C245.354 15.359 246.838 14.2744 248.979 14.2744C252.347 14.2744 254.402 16.6434 254.402 19.8402V29.6589H250.692V20.8107C250.692 18.984 249.521 17.7566 247.809 17.7566C246.011 17.7566 244.726 19.1837 244.726 21.0676V29.6589H241.016Z" fill="#282846"/>
<path opacity="0.9" d="M269.325 30.2504H267.125V9.62091H269.325V30.2504Z" fill="#282846"/>
</g>
<defs>
<clipPath id="clip0">
<rect width="421.8" height="40" fill="white"/>
</clipPath>
</defs>
</svg>
