<svg width="2477" height="1167" viewBox="0 0 2477 1167" fill="none" xmlns="http://www.w3.org/2000/svg">
<rect width="2477" height="1167" fill="white"/>
<rect x="179" y="177" width="570" height="206" rx="34" fill="#22212C"/>
<path d="M373.598 274.367H365.821C365.679 273.361 365.389 272.467 364.951 271.686C364.513 270.893 363.95 270.218 363.264 269.662C362.577 269.106 361.784 268.679 360.884 268.384C359.997 268.088 359.032 267.94 357.99 267.94C356.108 267.94 354.469 268.407 353.072 269.342C351.675 270.266 350.592 271.615 349.823 273.391C349.053 275.154 348.669 277.297 348.669 279.818C348.669 282.411 349.053 284.589 349.823 286.352C350.604 288.116 351.693 289.448 353.09 290.347C354.487 291.247 356.102 291.697 357.937 291.697C358.967 291.697 359.92 291.561 360.796 291.288C361.684 291.016 362.471 290.62 363.157 290.099C363.844 289.566 364.412 288.921 364.862 288.163C365.323 287.406 365.643 286.542 365.821 285.571L373.598 285.607C373.396 287.276 372.893 288.885 372.088 290.436C371.295 291.975 370.224 293.354 368.875 294.573C367.537 295.781 365.939 296.739 364.081 297.45C362.234 298.148 360.145 298.497 357.813 298.497C354.569 298.497 351.669 297.763 349.112 296.295C346.568 294.828 344.555 292.703 343.076 289.921C341.608 287.139 340.874 283.772 340.874 279.818C340.874 275.853 341.62 272.479 343.111 269.697C344.603 266.916 346.627 264.797 349.184 263.341C351.74 261.873 354.617 261.139 357.813 261.139C359.92 261.139 361.873 261.435 363.672 262.027C365.483 262.619 367.087 263.483 368.484 264.619C369.881 265.744 371.017 267.123 371.893 268.756C372.781 270.39 373.349 272.26 373.598 274.367ZM391.291 298.533C388.533 298.533 386.148 297.947 384.136 296.775C382.135 295.591 380.59 293.946 379.501 291.839C378.412 289.72 377.868 287.264 377.868 284.47C377.868 281.653 378.412 279.191 379.501 277.084C380.59 274.965 382.135 273.32 384.136 272.148C386.148 270.964 388.533 270.372 391.291 270.372C394.049 270.372 396.428 270.964 398.429 272.148C400.441 273.32 401.992 274.965 403.081 277.084C404.17 279.191 404.714 281.653 404.714 284.47C404.714 287.264 404.17 289.72 403.081 291.839C401.992 293.946 400.441 295.591 398.429 296.775C396.428 297.947 394.049 298.533 391.291 298.533ZM391.327 292.673C392.581 292.673 393.629 292.318 394.469 291.608C395.31 290.886 395.943 289.903 396.369 288.661C396.807 287.418 397.026 286.003 397.026 284.417C397.026 282.831 396.807 281.416 396.369 280.173C395.943 278.93 395.31 277.948 394.469 277.226C393.629 276.504 392.581 276.143 391.327 276.143C390.06 276.143 388.995 276.504 388.131 277.226C387.278 277.948 386.633 278.93 386.195 280.173C385.769 281.416 385.556 282.831 385.556 284.417C385.556 286.003 385.769 287.418 386.195 288.661C386.633 289.903 387.278 290.886 388.131 291.608C388.995 292.318 390.06 292.673 391.327 292.673ZM417.197 282.233V298H409.633V270.727H416.842V275.539H417.161C417.765 273.953 418.777 272.698 420.197 271.775C421.618 270.84 423.34 270.372 425.364 270.372C427.258 270.372 428.909 270.786 430.318 271.615C431.727 272.444 432.822 273.627 433.603 275.166C434.384 276.693 434.775 278.516 434.775 280.635V298H427.211V281.984C427.223 280.315 426.797 279.013 425.932 278.078C425.068 277.131 423.879 276.658 422.364 276.658C421.346 276.658 420.446 276.877 419.665 277.315C418.895 277.753 418.292 278.392 417.854 279.232C417.427 280.061 417.208 281.061 417.197 282.233ZM455.243 270.727V276.409H438.819V270.727H455.243ZM442.547 264.193H450.111V289.619C450.111 290.318 450.218 290.862 450.431 291.253C450.644 291.632 450.94 291.898 451.319 292.052C451.709 292.206 452.159 292.283 452.668 292.283C453.023 292.283 453.378 292.253 453.733 292.194C454.089 292.123 454.361 292.07 454.55 292.034L455.74 297.663C455.361 297.781 454.828 297.917 454.142 298.071C453.455 298.237 452.621 298.337 451.638 298.373C449.815 298.444 448.217 298.201 446.844 297.645C445.483 297.089 444.424 296.224 443.666 295.053C442.908 293.881 442.535 292.401 442.547 290.614V264.193ZM460.17 298V270.727H467.503V275.486H467.787C468.284 273.793 469.119 272.515 470.291 271.651C471.462 270.775 472.812 270.337 474.339 270.337C474.718 270.337 475.126 270.36 475.564 270.408C476.002 270.455 476.387 270.52 476.718 270.603V277.315C476.363 277.208 475.872 277.113 475.244 277.031C474.617 276.948 474.043 276.906 473.522 276.906C472.409 276.906 471.415 277.149 470.539 277.634C469.675 278.108 468.988 278.771 468.479 279.623C467.982 280.475 467.734 281.458 467.734 282.57V298H460.17ZM487.625 298.515C485.884 298.515 484.334 298.213 482.973 297.609C481.611 296.994 480.534 296.088 479.741 294.893C478.96 293.685 478.569 292.182 478.569 290.383C478.569 288.868 478.847 287.595 479.404 286.565C479.96 285.536 480.718 284.707 481.676 284.08C482.635 283.452 483.724 282.979 484.943 282.659C486.175 282.339 487.465 282.115 488.814 281.984C490.4 281.819 491.679 281.665 492.649 281.523C493.62 281.369 494.324 281.144 494.762 280.848C495.2 280.552 495.419 280.114 495.419 279.534V279.428C495.419 278.303 495.064 277.433 494.354 276.817C493.656 276.202 492.661 275.894 491.371 275.894C490.01 275.894 488.927 276.196 488.122 276.8C487.317 277.392 486.784 278.137 486.524 279.037L479.528 278.469C479.883 276.812 480.581 275.379 481.623 274.172C482.665 272.953 484.008 272.018 485.654 271.366C487.311 270.704 489.228 270.372 491.407 270.372C492.922 270.372 494.372 270.55 495.757 270.905C497.153 271.26 498.39 271.81 499.468 272.556C500.557 273.302 501.415 274.261 502.042 275.433C502.67 276.593 502.983 277.983 502.983 279.605V298H495.81V294.218H495.597C495.159 295.07 494.573 295.822 493.839 296.473C493.105 297.112 492.223 297.615 491.193 297.982C490.164 298.337 488.974 298.515 487.625 298.515ZM489.791 293.295C490.903 293.295 491.886 293.076 492.738 292.638C493.59 292.188 494.259 291.584 494.745 290.827C495.23 290.069 495.473 289.211 495.473 288.252V285.358C495.236 285.512 494.91 285.654 494.496 285.784C494.094 285.902 493.638 286.015 493.129 286.121C492.62 286.216 492.111 286.305 491.602 286.388C491.093 286.459 490.631 286.524 490.217 286.583C489.329 286.713 488.554 286.92 487.891 287.205C487.228 287.489 486.713 287.873 486.346 288.359C485.979 288.832 485.796 289.424 485.796 290.134C485.796 291.164 486.169 291.951 486.914 292.496C487.672 293.028 488.631 293.295 489.791 293.295ZM521.174 298.533C518.38 298.533 515.977 297.941 513.965 296.757C511.965 295.562 510.426 293.904 509.349 291.786C508.283 289.667 507.751 287.228 507.751 284.47C507.751 281.677 508.289 279.226 509.366 277.119C510.455 275 512 273.349 514.001 272.165C516.001 270.97 518.38 270.372 521.138 270.372C523.518 270.372 525.601 270.804 527.388 271.668C529.176 272.532 530.59 273.746 531.632 275.308C532.674 276.871 533.248 278.705 533.354 280.812H526.217C526.015 279.451 525.483 278.356 524.619 277.528C523.766 276.687 522.648 276.267 521.263 276.267C520.091 276.267 519.067 276.587 518.191 277.226C517.327 277.853 516.652 278.771 516.167 279.978C515.681 281.185 515.439 282.647 515.439 284.364C515.439 286.104 515.676 287.583 516.149 288.803C516.634 290.022 517.315 290.951 518.191 291.59C519.067 292.229 520.091 292.549 521.263 292.549C522.127 292.549 522.902 292.371 523.589 292.016C524.287 291.661 524.861 291.146 525.311 290.472C525.773 289.785 526.074 288.962 526.217 288.004H533.354C533.236 290.087 532.668 291.922 531.65 293.508C530.644 295.082 529.253 296.313 527.477 297.201C525.702 298.089 523.601 298.533 521.174 298.533ZM552.704 270.727V276.409H536.28V270.727H552.704ZM540.008 264.193H547.572V289.619C547.572 290.318 547.679 290.862 547.892 291.253C548.105 291.632 548.401 291.898 548.78 292.052C549.17 292.206 549.62 292.283 550.129 292.283C550.484 292.283 550.839 292.253 551.194 292.194C551.549 292.123 551.822 292.07 552.011 292.034L553.201 297.663C552.822 297.781 552.289 297.917 551.603 298.071C550.916 298.237 550.082 298.337 549.099 298.373C547.276 298.444 545.678 298.201 544.305 297.645C542.944 297.089 541.884 296.224 541.127 295.053C540.369 293.881 539.996 292.401 540.008 290.614V264.193ZM584.952 261.636V298H577.264V268.934H577.051L568.724 274.154V267.336L577.726 261.636H584.952Z" fill="white"/>
<rect x="954" y="177" width="570" height="206" rx="34" fill="#22212C"/>
<path d="M1144.58 274.367H1136.8C1136.66 273.361 1136.37 272.467 1135.93 271.686C1135.5 270.893 1134.93 270.218 1134.25 269.662C1133.56 269.106 1132.77 268.679 1131.87 268.384C1130.98 268.088 1130.02 267.94 1128.97 267.94C1127.09 267.94 1125.45 268.407 1124.06 269.342C1122.66 270.266 1121.58 271.615 1120.81 273.391C1120.04 275.154 1119.65 277.297 1119.65 279.818C1119.65 282.411 1120.04 284.589 1120.81 286.352C1121.59 288.116 1122.68 289.448 1124.07 290.347C1125.47 291.247 1127.09 291.697 1128.92 291.697C1129.95 291.697 1130.9 291.561 1131.78 291.288C1132.67 291.016 1133.46 290.62 1134.14 290.099C1134.83 289.566 1135.4 288.921 1135.85 288.163C1136.31 287.406 1136.63 286.542 1136.8 285.571L1144.58 285.607C1144.38 287.276 1143.88 288.885 1143.07 290.436C1142.28 291.975 1141.21 293.354 1139.86 294.573C1138.52 295.781 1136.92 296.739 1135.06 297.45C1133.22 298.148 1131.13 298.497 1128.8 298.497C1125.55 298.497 1122.65 297.763 1120.1 296.295C1117.55 294.828 1115.54 292.703 1114.06 289.921C1112.59 287.139 1111.86 283.772 1111.86 279.818C1111.86 275.853 1112.6 272.479 1114.1 269.697C1115.59 266.916 1117.61 264.797 1120.17 263.341C1122.72 261.873 1125.6 261.139 1128.8 261.139C1130.9 261.139 1132.86 261.435 1134.66 262.027C1136.47 262.619 1138.07 263.483 1139.47 264.619C1140.87 265.744 1142 267.123 1142.88 268.756C1143.77 270.39 1144.33 272.26 1144.58 274.367ZM1162.28 298.533C1159.52 298.533 1157.13 297.947 1155.12 296.775C1153.12 295.591 1151.57 293.946 1150.49 291.839C1149.4 289.72 1148.85 287.264 1148.85 284.47C1148.85 281.653 1149.4 279.191 1150.49 277.084C1151.57 274.965 1153.12 273.32 1155.12 272.148C1157.13 270.964 1159.52 270.372 1162.28 270.372C1165.03 270.372 1167.41 270.964 1169.41 272.148C1171.43 273.32 1172.98 274.965 1174.07 277.084C1175.15 279.191 1175.7 281.653 1175.7 284.47C1175.7 287.264 1175.15 289.72 1174.07 291.839C1172.98 293.946 1171.43 295.591 1169.41 296.775C1167.41 297.947 1165.03 298.533 1162.28 298.533ZM1162.31 292.673C1163.57 292.673 1164.61 292.318 1165.45 291.608C1166.29 290.886 1166.93 289.903 1167.35 288.661C1167.79 287.418 1168.01 286.003 1168.01 284.417C1168.01 282.831 1167.79 281.416 1167.35 280.173C1166.93 278.93 1166.29 277.948 1165.45 277.226C1164.61 276.504 1163.57 276.143 1162.31 276.143C1161.04 276.143 1159.98 276.504 1159.11 277.226C1158.26 277.948 1157.62 278.93 1157.18 280.173C1156.75 281.416 1156.54 282.831 1156.54 284.417C1156.54 286.003 1156.75 287.418 1157.18 288.661C1157.62 289.903 1158.26 290.886 1159.11 291.608C1159.98 292.318 1161.04 292.673 1162.31 292.673ZM1188.18 282.233V298H1180.62V270.727H1187.83V275.539H1188.15C1188.75 273.953 1189.76 272.698 1191.18 271.775C1192.6 270.84 1194.32 270.372 1196.35 270.372C1198.24 270.372 1199.89 270.786 1201.3 271.615C1202.71 272.444 1203.81 273.627 1204.59 275.166C1205.37 276.693 1205.76 278.516 1205.76 280.635V298H1198.2V281.984C1198.21 280.315 1197.78 279.013 1196.92 278.078C1196.05 277.131 1194.86 276.658 1193.35 276.658C1192.33 276.658 1191.43 276.877 1190.65 277.315C1189.88 277.753 1189.28 278.392 1188.84 279.232C1188.41 280.061 1188.19 281.061 1188.18 282.233ZM1226.23 270.727V276.409H1209.8V270.727H1226.23ZM1213.53 264.193H1221.1V289.619C1221.1 290.318 1221.2 290.862 1221.42 291.253C1221.63 291.632 1221.92 291.898 1222.3 292.052C1222.69 292.206 1223.14 292.283 1223.65 292.283C1224.01 292.283 1224.36 292.253 1224.72 292.194C1225.07 292.123 1225.35 292.07 1225.53 292.034L1226.72 297.663C1226.35 297.781 1225.81 297.917 1225.13 298.071C1224.44 298.237 1223.61 298.337 1222.62 298.373C1220.8 298.444 1219.2 298.201 1217.83 297.645C1216.47 297.089 1215.41 296.224 1214.65 295.053C1213.89 293.881 1213.52 292.401 1213.53 290.614V264.193ZM1231.15 298V270.727H1238.49V275.486H1238.77C1239.27 273.793 1240.1 272.515 1241.27 271.651C1242.45 270.775 1243.8 270.337 1245.32 270.337C1245.7 270.337 1246.11 270.36 1246.55 270.408C1246.99 270.455 1247.37 270.52 1247.7 270.603V277.315C1247.35 277.208 1246.86 277.113 1246.23 277.031C1245.6 276.948 1245.03 276.906 1244.51 276.906C1243.39 276.906 1242.4 277.149 1241.52 277.634C1240.66 278.108 1239.97 278.771 1239.46 279.623C1238.97 280.475 1238.72 281.458 1238.72 282.57V298H1231.15ZM1258.61 298.515C1256.87 298.515 1255.32 298.213 1253.96 297.609C1252.6 296.994 1251.52 296.088 1250.73 294.893C1249.94 293.685 1249.55 292.182 1249.55 290.383C1249.55 288.868 1249.83 287.595 1250.39 286.565C1250.94 285.536 1251.7 284.707 1252.66 284.08C1253.62 283.452 1254.71 282.979 1255.93 282.659C1257.16 282.339 1258.45 282.115 1259.8 281.984C1261.38 281.819 1262.66 281.665 1263.63 281.523C1264.6 281.369 1265.31 281.144 1265.75 280.848C1266.18 280.552 1266.4 280.114 1266.4 279.534V279.428C1266.4 278.303 1266.05 277.433 1265.34 276.817C1264.64 276.202 1263.65 275.894 1262.36 275.894C1260.99 275.894 1259.91 276.196 1259.11 276.8C1258.3 277.392 1257.77 278.137 1257.51 279.037L1250.51 278.469C1250.87 276.812 1251.57 275.379 1252.61 274.172C1253.65 272.953 1254.99 272.018 1256.64 271.366C1258.3 270.704 1260.21 270.372 1262.39 270.372C1263.91 270.372 1265.36 270.55 1266.74 270.905C1268.14 271.26 1269.37 271.81 1270.45 272.556C1271.54 273.302 1272.4 274.261 1273.03 275.433C1273.65 276.593 1273.97 277.983 1273.97 279.605V298H1266.79V294.218H1266.58C1266.14 295.07 1265.56 295.822 1264.82 296.473C1264.09 297.112 1263.21 297.615 1262.18 297.982C1261.15 298.337 1259.96 298.515 1258.61 298.515ZM1260.78 293.295C1261.89 293.295 1262.87 293.076 1263.72 292.638C1264.57 292.188 1265.24 291.584 1265.73 290.827C1266.21 290.069 1266.46 289.211 1266.46 288.252V285.358C1266.22 285.512 1265.89 285.654 1265.48 285.784C1265.08 285.902 1264.62 286.015 1264.11 286.121C1263.6 286.216 1263.1 286.305 1262.59 286.388C1262.08 286.459 1261.62 286.524 1261.2 286.583C1260.31 286.713 1259.54 286.92 1258.88 287.205C1258.21 287.489 1257.7 287.873 1257.33 288.359C1256.96 288.832 1256.78 289.424 1256.78 290.134C1256.78 291.164 1257.15 291.951 1257.9 292.496C1258.66 293.028 1259.62 293.295 1260.78 293.295ZM1292.16 298.533C1289.36 298.533 1286.96 297.941 1284.95 296.757C1282.95 295.562 1281.41 293.904 1280.33 291.786C1279.27 289.667 1278.73 287.228 1278.73 284.47C1278.73 281.677 1279.27 279.226 1280.35 277.119C1281.44 275 1282.98 273.349 1284.98 272.165C1286.99 270.97 1289.36 270.372 1292.12 270.372C1294.5 270.372 1296.59 270.804 1298.37 271.668C1300.16 272.532 1301.57 273.746 1302.62 275.308C1303.66 276.871 1304.23 278.705 1304.34 280.812H1297.2C1297 279.451 1296.47 278.356 1295.6 277.528C1294.75 276.687 1293.63 276.267 1292.25 276.267C1291.08 276.267 1290.05 276.587 1289.18 277.226C1288.31 277.853 1287.64 278.771 1287.15 279.978C1286.67 281.185 1286.42 282.647 1286.42 284.364C1286.42 286.104 1286.66 287.583 1287.13 288.803C1287.62 290.022 1288.3 290.951 1289.18 291.59C1290.05 292.229 1291.08 292.549 1292.25 292.549C1293.11 292.549 1293.89 292.371 1294.57 292.016C1295.27 291.661 1295.85 291.146 1296.3 290.472C1296.76 289.785 1297.06 288.962 1297.2 288.004H1304.34C1304.22 290.087 1303.65 291.922 1302.63 293.508C1301.63 295.082 1300.24 296.313 1298.46 297.201C1296.69 298.089 1294.58 298.533 1292.16 298.533ZM1323.69 270.727V276.409H1307.26V270.727H1323.69ZM1310.99 264.193H1318.56V289.619C1318.56 290.318 1318.66 290.862 1318.88 291.253C1319.09 291.632 1319.39 291.898 1319.76 292.052C1320.15 292.206 1320.6 292.283 1321.11 292.283C1321.47 292.283 1321.82 292.253 1322.18 292.194C1322.53 292.123 1322.81 292.07 1323 292.034L1324.19 297.663C1323.81 297.781 1323.27 297.917 1322.59 298.071C1321.9 298.237 1321.07 298.337 1320.08 298.373C1318.26 298.444 1316.66 298.201 1315.29 297.645C1313.93 297.089 1312.87 296.224 1312.11 295.053C1311.35 293.881 1310.98 292.401 1310.99 290.614V264.193ZM1340.12 298V292.46L1353.06 280.475C1354.16 279.41 1355.08 278.451 1355.83 277.599C1356.59 276.746 1357.16 275.912 1357.55 275.095C1357.94 274.267 1358.14 273.373 1358.14 272.414C1358.14 271.349 1357.9 270.431 1357.41 269.662C1356.93 268.881 1356.26 268.283 1355.42 267.869C1354.58 267.442 1353.63 267.229 1352.56 267.229C1351.45 267.229 1350.48 267.454 1349.65 267.904C1348.82 268.354 1348.18 268.999 1347.73 269.839C1347.28 270.68 1347.06 271.68 1347.06 272.84H1339.76C1339.76 270.461 1340.3 268.395 1341.38 266.643C1342.45 264.892 1343.96 263.536 1345.9 262.577C1347.85 261.619 1350.08 261.139 1352.62 261.139C1355.22 261.139 1357.49 261.601 1359.42 262.524C1361.36 263.436 1362.87 264.702 1363.94 266.324C1365.02 267.946 1365.56 269.804 1365.56 271.899C1365.56 273.272 1365.29 274.628 1364.74 275.965C1364.21 277.303 1363.26 278.788 1361.88 280.422C1360.51 282.044 1358.58 283.991 1356.08 286.263L1350.77 291.466V291.714H1366.04V298H1340.12Z" fill="white"/>
<rect x="1729" y="177" width="570" height="206" rx="34" fill="#22212C"/>
<path d="M1919.35 274.367H1911.57C1911.43 273.361 1911.14 272.467 1910.7 271.686C1910.26 270.893 1909.7 270.218 1909.02 269.662C1908.33 269.106 1907.54 268.679 1906.64 268.384C1905.75 268.088 1904.78 267.94 1903.74 267.94C1901.86 267.94 1900.22 268.407 1898.82 269.342C1897.43 270.266 1896.34 271.615 1895.57 273.391C1894.81 275.154 1894.42 277.297 1894.42 279.818C1894.42 282.411 1894.81 284.589 1895.57 286.352C1896.36 288.116 1897.44 289.448 1898.84 290.347C1900.24 291.247 1901.85 291.697 1903.69 291.697C1904.72 291.697 1905.67 291.561 1906.55 291.288C1907.44 291.016 1908.22 290.62 1908.91 290.099C1909.6 289.566 1910.16 288.921 1910.61 288.163C1911.08 287.406 1911.39 286.542 1911.57 285.571L1919.35 285.607C1919.15 287.276 1918.65 288.885 1917.84 290.436C1917.05 291.975 1915.98 293.354 1914.63 294.573C1913.29 295.781 1911.69 296.739 1909.83 297.45C1907.99 298.148 1905.9 298.497 1903.56 298.497C1900.32 298.497 1897.42 297.763 1894.86 296.295C1892.32 294.828 1890.31 292.703 1888.83 289.921C1887.36 287.139 1886.63 283.772 1886.63 279.818C1886.63 275.853 1887.37 272.479 1888.86 269.697C1890.35 266.916 1892.38 264.797 1894.94 263.341C1897.49 261.873 1900.37 261.139 1903.56 261.139C1905.67 261.139 1907.62 261.435 1909.42 262.027C1911.24 262.619 1912.84 263.483 1914.24 264.619C1915.63 265.744 1916.77 267.123 1917.64 268.756C1918.53 270.39 1919.1 272.26 1919.35 274.367ZM1937.04 298.533C1934.29 298.533 1931.9 297.947 1929.89 296.775C1927.89 295.591 1926.34 293.946 1925.25 291.839C1924.16 289.72 1923.62 287.264 1923.62 284.47C1923.62 281.653 1924.16 279.191 1925.25 277.084C1926.34 274.965 1927.89 273.32 1929.89 272.148C1931.9 270.964 1934.29 270.372 1937.04 270.372C1939.8 270.372 1942.18 270.964 1944.18 272.148C1946.19 273.32 1947.74 274.965 1948.83 277.084C1949.92 279.191 1950.47 281.653 1950.47 284.47C1950.47 287.264 1949.92 289.72 1948.83 291.839C1947.74 293.946 1946.19 295.591 1944.18 296.775C1942.18 297.947 1939.8 298.533 1937.04 298.533ZM1937.08 292.673C1938.33 292.673 1939.38 292.318 1940.22 291.608C1941.06 290.886 1941.7 289.903 1942.12 288.661C1942.56 287.418 1942.78 286.003 1942.78 284.417C1942.78 282.831 1942.56 281.416 1942.12 280.173C1941.7 278.93 1941.06 277.948 1940.22 277.226C1939.38 276.504 1938.33 276.143 1937.08 276.143C1935.81 276.143 1934.75 276.504 1933.88 277.226C1933.03 277.948 1932.39 278.93 1931.95 280.173C1931.52 281.416 1931.31 282.831 1931.31 284.417C1931.31 286.003 1931.52 287.418 1931.95 288.661C1932.39 289.903 1933.03 290.886 1933.88 291.608C1934.75 292.318 1935.81 292.673 1937.08 292.673ZM1962.95 282.233V298H1955.38V270.727H1962.59V275.539H1962.91C1963.52 273.953 1964.53 272.698 1965.95 271.775C1967.37 270.84 1969.09 270.372 1971.12 270.372C1973.01 270.372 1974.66 270.786 1976.07 271.615C1977.48 272.444 1978.57 273.627 1979.35 275.166C1980.14 276.693 1980.53 278.516 1980.53 280.635V298H1972.96V281.984C1972.97 280.315 1972.55 279.013 1971.68 278.078C1970.82 277.131 1969.63 276.658 1968.12 276.658C1967.1 276.658 1966.2 276.877 1965.42 277.315C1964.65 277.753 1964.04 278.392 1963.61 279.232C1963.18 280.061 1962.96 281.061 1962.95 282.233ZM2000.99 270.727V276.409H1984.57V270.727H2000.99ZM1988.3 264.193H1995.86V289.619C1995.86 290.318 1995.97 290.862 1996.18 291.253C1996.4 291.632 1996.69 291.898 1997.07 292.052C1997.46 292.206 1997.91 292.283 1998.42 292.283C1998.78 292.283 1999.13 292.253 1999.49 292.194C1999.84 292.123 2000.11 292.07 2000.3 292.034L2001.49 297.663C2001.11 297.781 2000.58 297.917 1999.89 298.071C1999.21 298.237 1998.37 298.337 1997.39 298.373C1995.57 298.444 1993.97 298.201 1992.6 297.645C1991.23 297.089 1990.18 296.224 1989.42 295.053C1988.66 293.881 1988.29 292.401 1988.3 290.614V264.193ZM2005.92 298V270.727H2013.25V275.486H2013.54C2014.04 273.793 2014.87 272.515 2016.04 271.651C2017.21 270.775 2018.56 270.337 2020.09 270.337C2020.47 270.337 2020.88 270.36 2021.32 270.408C2021.75 270.455 2022.14 270.52 2022.47 270.603V277.315C2022.11 277.208 2021.62 277.113 2021 277.031C2020.37 276.948 2019.79 276.906 2019.27 276.906C2018.16 276.906 2017.17 277.149 2016.29 277.634C2015.43 278.108 2014.74 278.771 2014.23 279.623C2013.73 280.475 2013.49 281.458 2013.49 282.57V298H2005.92ZM2033.38 298.515C2031.64 298.515 2030.09 298.213 2028.72 297.609C2027.36 296.994 2026.29 296.088 2025.49 294.893C2024.71 293.685 2024.32 292.182 2024.32 290.383C2024.32 288.868 2024.6 287.595 2025.16 286.565C2025.71 285.536 2026.47 284.707 2027.43 284.08C2028.39 283.452 2029.48 282.979 2030.7 282.659C2031.93 282.339 2033.22 282.115 2034.57 281.984C2036.15 281.819 2037.43 281.665 2038.4 281.523C2039.37 281.369 2040.08 281.144 2040.51 280.848C2040.95 280.552 2041.17 280.114 2041.17 279.534V279.428C2041.17 278.303 2040.82 277.433 2040.11 276.817C2039.41 276.202 2038.41 275.894 2037.12 275.894C2035.76 275.894 2034.68 276.196 2033.87 276.8C2033.07 277.392 2032.54 278.137 2032.28 279.037L2025.28 278.469C2025.64 276.812 2026.33 275.379 2027.38 274.172C2028.42 272.953 2029.76 272.018 2031.41 271.366C2033.06 270.704 2034.98 270.372 2037.16 270.372C2038.67 270.372 2040.12 270.55 2041.51 270.905C2042.91 271.26 2044.14 271.81 2045.22 272.556C2046.31 273.302 2047.17 274.261 2047.79 275.433C2048.42 276.593 2048.74 277.983 2048.74 279.605V298H2041.56V294.218H2041.35C2040.91 295.07 2040.32 295.822 2039.59 296.473C2038.86 297.112 2037.98 297.615 2036.95 297.982C2035.92 298.337 2034.73 298.515 2033.38 298.515ZM2035.54 293.295C2036.66 293.295 2037.64 293.076 2038.49 292.638C2039.34 292.188 2040.01 291.584 2040.5 290.827C2040.98 290.069 2041.22 289.211 2041.22 288.252V285.358C2040.99 285.512 2040.66 285.654 2040.25 285.784C2039.85 285.902 2039.39 286.015 2038.88 286.121C2038.37 286.216 2037.86 286.305 2037.35 286.388C2036.84 286.459 2036.38 286.524 2035.97 286.583C2035.08 286.713 2034.31 286.92 2033.64 287.205C2032.98 287.489 2032.47 287.873 2032.1 288.359C2031.73 288.832 2031.55 289.424 2031.55 290.134C2031.55 291.164 2031.92 291.951 2032.67 292.496C2033.42 293.028 2034.38 293.295 2035.54 293.295ZM2066.93 298.533C2064.13 298.533 2061.73 297.941 2059.72 296.757C2057.72 295.562 2056.18 293.904 2055.1 291.786C2054.04 289.667 2053.5 287.228 2053.5 284.47C2053.5 281.677 2054.04 279.226 2055.12 277.119C2056.21 275 2057.75 273.349 2059.75 272.165C2061.75 270.97 2064.13 270.372 2066.89 270.372C2069.27 270.372 2071.35 270.804 2073.14 271.668C2074.93 272.532 2076.34 273.746 2077.38 275.308C2078.43 276.871 2079 278.705 2079.11 280.812H2071.97C2071.77 279.451 2071.23 278.356 2070.37 277.528C2069.52 276.687 2068.4 276.267 2067.01 276.267C2065.84 276.267 2064.82 276.587 2063.94 277.226C2063.08 277.853 2062.4 278.771 2061.92 279.978C2061.43 281.185 2061.19 282.647 2061.19 284.364C2061.19 286.104 2061.43 287.583 2061.9 288.803C2062.39 290.022 2063.07 290.951 2063.94 291.59C2064.82 292.229 2065.84 292.549 2067.01 292.549C2067.88 292.549 2068.65 292.371 2069.34 292.016C2070.04 291.661 2070.61 291.146 2071.06 290.472C2071.52 289.785 2071.83 288.962 2071.97 288.004H2079.11C2078.99 290.087 2078.42 291.922 2077.4 293.508C2076.4 295.082 2075 296.313 2073.23 297.201C2071.45 298.089 2069.35 298.533 2066.93 298.533ZM2098.46 270.727V276.409H2082.03V270.727H2098.46ZM2085.76 264.193H2093.32V289.619C2093.32 290.318 2093.43 290.862 2093.64 291.253C2093.86 291.632 2094.15 291.898 2094.53 292.052C2094.92 292.206 2095.37 292.283 2095.88 292.283C2096.24 292.283 2096.59 292.253 2096.95 292.194C2097.3 292.123 2097.57 292.07 2097.76 292.034L2098.95 297.663C2098.57 297.781 2098.04 297.917 2097.35 298.071C2096.67 298.237 2095.83 298.337 2094.85 298.373C2093.03 298.444 2091.43 298.201 2090.06 297.645C2088.7 297.089 2087.64 296.224 2086.88 295.053C2086.12 293.881 2085.75 292.401 2085.76 290.614V264.193ZM2128.33 298.497C2125.67 298.497 2123.31 298.041 2121.24 297.13C2119.18 296.207 2117.55 294.94 2116.36 293.33C2115.17 291.709 2114.56 289.838 2114.53 287.719H2122.27C2122.32 288.607 2122.61 289.388 2123.14 290.063C2123.68 290.726 2124.41 291.241 2125.31 291.608C2126.21 291.975 2127.22 292.158 2128.34 292.158C2129.51 292.158 2130.55 291.951 2131.45 291.537C2132.35 291.123 2133.05 290.549 2133.56 289.815C2134.07 289.081 2134.33 288.234 2134.33 287.276C2134.33 286.305 2134.05 285.447 2133.51 284.701C2132.98 283.943 2132.21 283.352 2131.2 282.925C2130.21 282.499 2129.02 282.286 2127.65 282.286H2124.26V276.64H2127.65C2128.81 276.64 2129.83 276.439 2130.72 276.036C2131.62 275.634 2132.32 275.077 2132.82 274.367C2133.31 273.645 2133.56 272.805 2133.56 271.846C2133.56 270.934 2133.34 270.135 2132.91 269.449C2132.48 268.75 2131.88 268.206 2131.09 267.815C2130.33 267.425 2129.43 267.229 2128.4 267.229C2127.35 267.229 2126.4 267.419 2125.54 267.798C2124.67 268.165 2123.98 268.691 2123.46 269.378C2122.94 270.064 2122.66 270.869 2122.63 271.793H2115.26C2115.29 269.697 2115.89 267.851 2117.05 266.253C2118.21 264.655 2119.77 263.406 2121.74 262.506C2123.71 261.595 2125.95 261.139 2128.43 261.139C2130.94 261.139 2133.14 261.595 2135.02 262.506C2136.9 263.418 2138.36 264.649 2139.4 266.2C2140.46 267.738 2140.98 269.467 2140.97 271.384C2140.98 273.42 2140.35 275.119 2139.07 276.48C2137.8 277.841 2136.15 278.705 2134.11 279.072V279.357C2136.79 279.7 2138.82 280.629 2140.22 282.144C2141.63 283.647 2142.33 285.53 2142.32 287.79C2142.33 289.862 2141.73 291.703 2140.52 293.312C2139.33 294.922 2137.68 296.189 2135.57 297.112C2133.46 298.036 2131.05 298.497 2128.33 298.497Z" fill="white"/>
<rect x="425" y="622" width="442" height="368" rx="34" fill="#22212C"/>
<path fill-rule="evenodd" clip-rule="evenodd" d="M646 705.949C632.221 705.949 621.052 717.119 621.052 730.897C621.052 744.676 632.221 755.846 646 755.846C659.779 755.846 670.949 744.676 670.949 730.897C670.949 717.119 659.779 705.949 646 705.949ZM668.709 760.644C677.653 753.806 683.423 743.025 683.423 730.897C683.423 710.229 666.668 693.475 646 693.475C625.332 693.475 608.577 710.229 608.577 730.897C608.577 743.025 614.347 753.806 623.291 760.644C617.02 763.419 611.25 767.344 606.307 772.287C602.491 776.104 599.28 780.414 596.738 785.067C592.047 793.655 593.96 802.41 599.243 808.602C604.329 814.562 612.476 818.217 621.052 818.217H670.949C679.524 818.217 687.671 814.562 692.757 808.602C698.04 802.41 699.953 793.655 695.262 785.067C692.72 780.414 689.509 776.104 685.693 772.287C680.75 767.344 674.981 763.419 668.709 760.644ZM646 768.32C634.421 768.32 623.316 772.92 615.128 781.108C612.159 784.077 609.662 787.428 607.685 791.048C605.771 794.552 606.388 797.758 608.732 800.505C611.273 803.483 615.849 805.743 621.052 805.743H670.949C676.151 805.743 680.727 803.483 683.268 800.505C685.612 797.758 686.229 794.552 684.315 791.048C682.338 787.428 679.841 784.077 676.872 781.108C668.684 772.92 657.579 768.32 646 768.32Z" fill="white"/>
<path d="M594.621 910V873.636H619.124V879.975H602.31V888.64H617.864V894.979H602.31V903.661H619.195V910H594.621ZM658.653 891.818C658.653 895.784 657.901 899.157 656.398 901.939C654.906 904.721 652.87 906.845 650.29 908.313C647.721 909.769 644.833 910.497 641.625 910.497C638.394 910.497 635.494 909.763 632.925 908.295C630.356 906.828 628.326 904.703 626.835 901.921C625.343 899.139 624.597 895.772 624.597 891.818C624.597 887.853 625.343 884.479 626.835 881.697C628.326 878.916 630.356 876.797 632.925 875.341C635.494 873.873 638.394 873.139 641.625 873.139C644.833 873.139 647.721 873.873 650.29 875.341C652.87 876.797 654.906 878.916 656.398 881.697C657.901 884.479 658.653 887.853 658.653 891.818ZM650.858 891.818C650.858 889.25 650.473 887.083 649.704 885.32C648.946 883.556 647.875 882.218 646.49 881.307C645.105 880.395 643.484 879.94 641.625 879.94C639.767 879.94 638.145 880.395 636.76 881.307C635.375 882.218 634.298 883.556 633.529 885.32C632.771 887.083 632.392 889.25 632.392 891.818C632.392 894.387 632.771 896.553 633.529 898.317C634.298 900.08 635.375 901.418 636.76 902.33C638.145 903.241 639.767 903.697 641.625 903.697C643.484 903.697 645.105 903.241 646.49 902.33C647.875 901.418 648.946 900.08 649.704 898.317C650.473 896.553 650.858 894.387 650.858 891.818ZM668.565 910H660.326L672.88 873.636H682.787L695.323 910H687.084L677.975 881.946H677.691L668.565 910ZM668.05 895.707H687.51V901.708H668.05V895.707Z" fill="white"/>
<rect x="1018" y="622" width="442" height="368" rx="34" fill="#22212C"/>
<path d="M1142.22 873.636H1151.7L1161.72 898.068H1162.14L1172.16 873.636H1181.64V910H1174.18V886.332H1173.88L1164.47 909.822H1159.39L1149.98 886.243H1149.68V910H1142.22V873.636ZM1205.32 898.388V882.727H1212.89V910H1205.62V905.046H1205.34C1204.72 906.644 1203.7 907.929 1202.27 908.899C1200.85 909.87 1199.11 910.355 1197.07 910.355C1195.24 910.355 1193.64 909.941 1192.25 909.112C1190.87 908.284 1189.79 907.106 1189 905.579C1188.24 904.052 1187.84 902.223 1187.83 900.092V882.727H1195.4V898.743C1195.41 900.353 1195.84 901.625 1196.69 902.56C1197.55 903.496 1198.69 903.963 1200.12 903.963C1201.03 903.963 1201.88 903.756 1202.68 903.342C1203.47 902.915 1204.11 902.288 1204.59 901.46C1205.09 900.631 1205.33 899.607 1205.32 898.388ZM1226.5 873.636V910H1218.94V873.636H1226.5ZM1247.07 882.727V888.409H1230.64V882.727H1247.07ZM1234.37 876.193H1241.93V901.619C1241.93 902.318 1242.04 902.862 1242.25 903.253C1242.47 903.632 1242.76 903.898 1243.14 904.052C1243.53 904.206 1243.98 904.283 1244.49 904.283C1244.85 904.283 1245.2 904.253 1245.56 904.194C1245.91 904.123 1246.18 904.07 1246.37 904.034L1247.56 909.663C1247.18 909.781 1246.65 909.917 1245.97 910.071C1245.28 910.237 1244.44 910.337 1243.46 910.373C1241.64 910.444 1240.04 910.201 1238.67 909.645C1237.31 909.089 1236.25 908.224 1235.49 907.053C1234.73 905.881 1234.36 904.401 1234.37 902.614V876.193ZM1251.99 910V882.727H1259.56V910H1251.99ZM1255.79 879.212C1254.67 879.212 1253.7 878.839 1252.9 878.093C1252.11 877.335 1251.71 876.43 1251.71 875.376C1251.71 874.335 1252.11 873.441 1252.9 872.695C1253.7 871.938 1254.67 871.559 1255.79 871.559C1256.92 871.559 1257.88 871.938 1258.67 872.695C1259.47 873.441 1259.88 874.335 1259.88 875.376C1259.88 876.43 1259.47 877.335 1258.67 878.093C1257.88 878.839 1256.92 879.212 1255.79 879.212ZM1288.31 890.504L1281.38 890.93C1281.26 890.339 1281.01 889.806 1280.62 889.332C1280.23 888.847 1279.71 888.462 1279.07 888.178C1278.45 887.882 1277.7 887.734 1276.82 887.734C1275.65 887.734 1274.66 887.983 1273.85 888.48C1273.05 888.965 1272.65 889.616 1272.65 890.433C1272.65 891.084 1272.91 891.635 1273.43 892.085C1273.95 892.534 1274.84 892.895 1276.11 893.168L1281.05 894.162C1283.7 894.706 1285.67 895.582 1286.98 896.79C1288.28 897.997 1288.93 899.583 1288.93 901.548C1288.93 903.336 1288.4 904.904 1287.35 906.254C1286.31 907.603 1284.88 908.656 1283.05 909.414C1281.24 910.16 1279.15 910.533 1276.78 910.533C1273.17 910.533 1270.3 909.781 1268.16 908.278C1266.02 906.763 1264.78 904.703 1264.41 902.099L1271.85 901.708C1272.07 902.809 1272.62 903.649 1273.48 904.229C1274.35 904.798 1275.45 905.082 1276.8 905.082C1278.13 905.082 1279.19 904.827 1280 904.318C1280.81 903.797 1281.23 903.129 1281.24 902.312C1281.23 901.625 1280.94 901.063 1280.37 900.625C1279.8 900.175 1278.93 899.832 1277.74 899.595L1273.02 898.654C1270.36 898.121 1268.37 897.198 1267.07 895.884C1265.78 894.57 1265.14 892.895 1265.14 890.859C1265.14 889.107 1265.61 887.598 1266.56 886.332C1267.52 885.065 1268.86 884.089 1270.59 883.402C1272.33 882.715 1274.36 882.372 1276.7 882.372C1280.14 882.372 1282.85 883.1 1284.83 884.556C1286.82 886.012 1287.98 887.995 1288.31 890.504ZM1293.69 910V882.727H1301.26V910H1293.69ZM1297.49 879.212C1296.37 879.212 1295.4 878.839 1294.6 878.093C1293.8 877.335 1293.41 876.43 1293.41 875.376C1293.41 874.335 1293.8 873.441 1294.6 872.695C1295.4 871.938 1296.37 871.559 1297.49 871.559C1298.62 871.559 1299.58 871.938 1300.37 872.695C1301.17 873.441 1301.58 874.335 1301.58 875.376C1301.58 876.43 1301.17 877.335 1300.37 878.093C1299.58 878.839 1298.62 879.212 1297.49 879.212ZM1319.6 920.795C1317.15 920.795 1315.05 920.458 1313.3 919.783C1311.56 919.121 1310.17 918.215 1309.14 917.067C1308.11 915.919 1307.45 914.628 1307.14 913.196L1314.13 912.255C1314.35 912.799 1314.68 913.308 1315.15 913.782C1315.61 914.255 1316.22 914.634 1316.97 914.918C1317.74 915.214 1318.68 915.362 1319.78 915.362C1321.43 915.362 1322.78 914.96 1323.85 914.155C1324.92 913.362 1325.46 912.03 1325.46 910.16V905.17H1325.14C1324.81 905.928 1324.31 906.644 1323.65 907.319C1322.99 907.994 1322.14 908.544 1321.09 908.97C1320.05 909.396 1318.81 909.609 1317.37 909.609C1315.32 909.609 1313.45 909.136 1311.77 908.189C1310.1 907.23 1308.77 905.768 1307.78 903.803C1306.79 901.826 1306.3 899.329 1306.3 896.31C1306.3 893.221 1306.81 890.64 1307.81 888.569C1308.82 886.497 1310.16 884.947 1311.83 883.917C1313.51 882.887 1315.35 882.372 1317.35 882.372C1318.87 882.372 1320.15 882.633 1321.18 883.153C1322.21 883.662 1323.04 884.302 1323.67 885.071C1324.31 885.829 1324.8 886.574 1325.14 887.308H1325.43V882.727H1332.94V910.266C1332.94 912.586 1332.37 914.528 1331.23 916.09C1330.1 917.653 1328.52 918.825 1326.51 919.606C1324.51 920.399 1322.21 920.795 1319.6 920.795ZM1319.76 903.928C1320.98 903.928 1322.01 903.626 1322.85 903.022C1323.7 902.406 1324.35 901.531 1324.8 900.394C1325.27 899.246 1325.5 897.873 1325.5 896.275C1325.5 894.677 1325.27 893.292 1324.82 892.12C1324.37 890.936 1323.72 890.019 1322.87 889.368C1322.02 888.717 1320.98 888.391 1319.76 888.391C1318.52 888.391 1317.47 888.729 1316.62 889.403C1315.77 890.066 1315.12 890.99 1314.68 892.173C1314.25 893.357 1314.03 894.724 1314.03 896.275C1314.03 897.849 1314.25 899.21 1314.68 900.359C1315.13 901.495 1315.78 902.377 1316.62 903.004C1317.47 903.62 1318.52 903.928 1319.76 903.928Z" fill="white"/>
<rect x="1611" y="622" width="442" height="368" rx="34" fill="#22212C"/>
<path d="M1791.49 910H1778.6V873.636H1791.59C1795.25 873.636 1798.4 874.364 1801.04 875.82C1803.68 877.264 1805.71 879.342 1807.13 882.053C1808.56 884.763 1809.28 888.007 1809.28 891.783C1809.28 895.571 1808.56 898.826 1807.13 901.548C1805.71 904.271 1803.67 906.36 1801 907.816C1798.35 909.272 1795.18 910 1791.49 910ZM1786.28 903.413H1791.17C1793.44 903.413 1795.35 903.01 1796.9 902.205C1798.46 901.388 1799.64 900.128 1800.42 898.423C1801.21 896.707 1801.61 894.493 1801.61 891.783C1801.61 889.096 1801.21 886.9 1800.42 885.195C1799.64 883.491 1798.47 882.236 1796.92 881.431C1795.37 880.626 1793.46 880.224 1791.18 880.224H1786.28V903.413ZM1819.19 910H1810.95L1823.5 873.636H1833.41L1845.95 910H1837.71L1828.6 881.946H1828.32L1819.19 910ZM1818.67 895.707H1838.13V901.708H1818.67V895.707ZM1882.03 891.818C1882.03 895.784 1881.28 899.157 1879.78 901.939C1878.28 904.721 1876.25 906.845 1873.67 908.313C1871.1 909.769 1868.21 910.497 1865 910.497C1861.77 910.497 1858.87 909.763 1856.3 908.295C1853.73 906.828 1851.7 904.703 1850.21 901.921C1848.72 899.139 1847.98 895.772 1847.98 891.818C1847.98 887.853 1848.72 884.479 1850.21 881.697C1851.7 878.916 1853.73 876.797 1856.3 875.341C1858.87 873.873 1861.77 873.139 1865 873.139C1868.21 873.139 1871.1 873.873 1873.67 875.341C1876.25 876.797 1878.28 878.916 1879.78 881.697C1881.28 884.479 1882.03 887.853 1882.03 891.818ZM1874.24 891.818C1874.24 889.25 1873.85 887.083 1873.08 885.32C1872.32 883.556 1871.25 882.218 1869.87 881.307C1868.48 880.395 1866.86 879.94 1865 879.94C1863.14 879.94 1861.52 880.395 1860.14 881.307C1858.75 882.218 1857.68 883.556 1856.91 885.32C1856.15 887.083 1855.77 889.25 1855.77 891.818C1855.77 894.387 1856.15 896.553 1856.91 898.317C1857.68 900.08 1858.75 901.418 1860.14 902.33C1861.52 903.241 1863.14 903.697 1865 903.697C1866.86 903.697 1868.48 903.241 1869.87 902.33C1871.25 901.418 1872.32 900.08 1873.08 898.317C1873.85 896.553 1874.24 894.387 1874.24 891.818Z" fill="white"/>
<path fill-rule="evenodd" clip-rule="evenodd" d="M1265.58 718.741C1263.04 718.323 1260.45 718.45 1257.97 719.115C1254.63 720.009 1251.2 718.03 1250.31 714.696C1249.42 711.362 1251.4 707.935 1254.73 707.041C1258.93 705.915 1263.32 705.7 1267.62 706.408C1271.91 707.117 1276 708.733 1279.61 711.15C1283.23 713.566 1286.29 716.727 1288.59 720.42C1290.88 724.114 1292.37 728.255 1292.93 732.567C1293.5 736.879 1293.14 741.263 1291.88 745.425C1290.62 749.588 1288.48 753.432 1285.61 756.702C1284.77 757.666 1283.86 758.573 1282.91 759.419C1287.18 761.563 1291.12 764.391 1294.56 767.832C1296.08 769.358 1297.49 770.982 1298.77 772.689C1301.63 776.516 1302.98 780.781 1302.75 785.086C1302.51 789.324 1300.77 793.118 1298.28 796.182C1293.37 802.21 1285.15 806 1276.53 806H1269.58C1266.13 806 1263.33 803.202 1263.33 799.75C1263.33 796.298 1266.13 793.5 1269.58 793.5H1276.53C1281.71 793.5 1286.25 791.159 1288.58 788.293C1289.71 786.909 1290.2 785.566 1290.26 784.396C1290.33 783.293 1290.03 781.882 1288.76 780.183C1287.84 778.949 1286.82 777.774 1285.72 776.671C1279.6 770.55 1271.3 767.111 1262.64 767.111C1259.19 767.111 1256.39 764.313 1256.39 760.861C1256.39 757.409 1259.19 754.611 1262.64 754.611C1265.21 754.611 1267.75 754.062 1270.09 753.002C1272.43 751.941 1274.52 750.393 1276.21 748.46C1277.91 746.528 1279.17 744.256 1279.92 741.797C1280.66 739.337 1280.88 736.747 1280.54 734.199C1280.2 731.651 1279.33 729.204 1277.97 727.021C1276.61 724.838 1274.81 722.971 1272.67 721.543C1270.53 720.115 1268.12 719.16 1265.58 718.741ZM1215.39 718.5C1205.42 718.5 1197.33 726.584 1197.33 736.556C1197.33 746.527 1205.42 754.611 1215.39 754.611C1225.36 754.611 1233.44 746.527 1233.44 736.556C1233.44 726.584 1225.36 718.5 1215.39 718.5ZM1235.66 759.419C1241.97 753.821 1245.94 745.653 1245.94 736.556C1245.94 719.68 1232.26 706 1215.39 706C1198.51 706 1184.83 719.68 1184.83 736.556C1184.83 745.653 1188.81 753.821 1195.12 759.419C1190.85 761.564 1186.91 764.391 1183.47 767.832C1181.95 769.358 1180.54 770.982 1179.26 772.689C1176.39 776.516 1175.04 780.781 1175.28 785.086C1175.52 789.324 1177.26 793.118 1179.75 796.181C1184.66 802.21 1192.88 806 1201.5 806H1229.28C1237.9 806 1246.12 802.21 1251.03 796.182C1253.52 793.118 1255.26 789.324 1255.5 785.086C1255.73 780.781 1254.38 776.516 1251.52 772.689C1250.24 770.982 1248.83 769.358 1247.31 767.832C1243.87 764.391 1239.93 761.564 1235.66 759.419ZM1215.39 767.111C1206.73 767.111 1198.43 770.55 1192.31 776.671C1191.21 777.774 1190.19 778.949 1189.27 780.183C1187.99 781.882 1187.7 783.293 1187.76 784.396C1187.83 785.566 1188.32 786.909 1189.45 788.293C1191.78 791.159 1196.31 793.5 1201.5 793.5H1229.28C1234.46 793.5 1239 791.159 1241.33 788.293C1242.46 786.909 1242.95 785.566 1243.01 784.396C1243.08 783.293 1242.78 781.882 1241.51 780.183C1240.59 778.949 1239.57 777.774 1238.47 776.671C1232.35 770.55 1224.05 767.111 1215.39 767.111Z" fill="white"/>
<path fill-rule="evenodd" clip-rule="evenodd" d="M1789.43 702.503C1795.89 699.56 1803.17 698.955 1810.02 700.791C1813.35 701.685 1815.33 705.112 1814.44 708.446C1813.54 711.78 1810.12 713.759 1806.78 712.865C1802.73 711.78 1798.43 712.138 1794.62 713.877C1790.8 715.616 1787.71 718.628 1785.88 722.396C1784.04 726.164 1783.57 730.454 1784.55 734.529C1785.54 738.605 1787.9 742.212 1791.25 744.733C1793.07 746.1 1794 748.346 1793.68 750.598C1793.37 752.85 1791.85 754.752 1789.73 755.564C1785.48 757.188 1781.58 759.695 1778.3 762.971C1777.2 764.075 1776.18 765.249 1775.26 766.484C1773.33 769.056 1773.46 771.21 1774.47 773.139C1775.67 775.418 1778.42 777.78 1782.31 779.003C1785.6 780.039 1787.43 783.548 1786.4 786.841C1785.36 790.134 1781.85 791.963 1778.56 790.927C1772.17 788.919 1766.43 784.71 1763.41 778.954C1760.2 772.849 1760.37 765.506 1765.26 758.99C1766.53 757.282 1767.94 755.658 1769.47 754.133C1771.82 751.78 1774.4 749.714 1777.17 747.957C1774.94 744.813 1773.32 741.253 1772.4 737.453C1770.74 730.556 1771.53 723.297 1774.64 716.92C1777.75 710.543 1782.98 705.446 1789.43 702.503ZM1869.38 713.877C1865.56 712.138 1861.26 711.78 1857.22 712.865C1853.88 713.759 1850.45 711.78 1849.56 708.446C1848.67 705.112 1850.65 701.685 1853.98 700.791C1860.83 698.955 1868.11 699.56 1874.56 702.503C1881.02 705.446 1886.25 710.543 1889.36 716.92C1892.46 723.297 1893.26 730.556 1891.6 737.453C1890.68 741.253 1889.06 744.813 1886.83 747.957C1889.59 749.714 1892.18 751.78 1894.53 754.133C1896.06 755.658 1897.46 757.282 1898.74 758.99C1903.62 765.506 1903.8 772.849 1900.59 778.954C1897.57 784.71 1891.82 788.919 1885.44 790.927C1882.14 791.963 1878.64 790.134 1877.6 786.841C1876.56 783.548 1878.39 780.039 1881.69 779.003C1885.58 777.78 1888.33 775.418 1889.53 773.139C1890.54 771.21 1890.66 769.056 1888.74 766.484C1887.81 765.249 1886.8 764.075 1885.69 762.971C1882.42 759.695 1878.52 757.188 1874.27 755.564C1872.15 754.752 1870.63 752.85 1870.31 750.598C1870 748.346 1870.93 746.1 1872.75 744.733C1876.09 742.212 1878.46 738.605 1879.44 734.529C1880.42 730.454 1879.96 726.164 1878.12 722.396C1876.28 718.628 1873.19 715.616 1869.38 713.877ZM1832 724.75C1822.03 724.75 1813.94 732.834 1813.94 742.806C1813.94 752.777 1822.03 760.861 1832 760.861C1841.97 760.861 1850.06 752.778 1850.06 742.806C1850.06 732.834 1841.97 724.75 1832 724.75ZM1852.27 765.669C1858.58 760.072 1862.56 751.903 1862.56 742.806C1862.56 725.93 1848.88 712.25 1832 712.25C1815.12 712.25 1801.44 725.93 1801.44 742.806C1801.44 751.903 1805.42 760.072 1811.73 765.669C1807.46 767.814 1803.52 770.642 1800.08 774.082C1798.56 775.608 1797.15 777.232 1795.87 778.94C1793.01 782.767 1791.66 787.032 1791.89 791.336C1792.13 795.574 1793.87 799.369 1796.36 802.432C1801.27 808.46 1809.49 812.25 1818.11 812.25H1845.89C1854.51 812.25 1862.73 808.46 1867.64 802.432C1870.13 799.369 1871.87 795.574 1872.11 791.336C1872.34 787.032 1870.99 782.767 1868.13 778.94C1866.85 777.232 1865.44 775.608 1863.92 774.082C1860.48 770.642 1856.54 767.814 1852.27 765.669ZM1832 773.361C1823.34 773.361 1815.04 776.8 1808.92 782.921C1807.82 784.025 1806.8 785.199 1805.88 786.433C1804.6 788.132 1804.31 789.544 1804.37 790.647C1804.44 791.816 1804.93 793.159 1806.06 794.543C1808.39 797.409 1812.92 799.75 1818.11 799.75H1845.89C1851.08 799.75 1855.61 797.409 1857.94 794.543C1859.07 793.159 1859.56 791.816 1859.63 790.647C1859.69 789.544 1859.4 788.132 1858.12 786.433C1857.2 785.199 1856.18 784.025 1855.08 782.921C1848.96 776.8 1840.66 773.361 1832 773.361Z" fill="white"/>
<path d="M409.117 366C399.363 374.975 398.732 390.158 407.707 399.912C416.682 409.666 431.865 410.297 441.619 401.322C451.373 392.347 452.004 377.164 443.029 367.41C434.054 357.656 418.871 357.025 409.117 366ZM628.117 604C618.363 612.975 617.732 628.158 626.707 637.912C635.682 647.666 650.865 648.297 660.619 639.322C670.373 630.347 671.004 615.164 662.029 605.41C653.054 595.656 637.871 595.025 628.117 604ZM422.057 386.708L641.057 624.708L647.679 618.614L428.679 380.614L422.057 386.708Z" fill="#0A74F2"/>
<path d="M1260.28 375.08C1255.35 362.775 1241.39 356.793 1229.08 361.719C1216.77 366.646 1210.79 380.615 1215.72 392.92C1220.65 405.225 1234.61 411.207 1246.92 406.281C1259.23 401.354 1265.21 387.385 1260.28 375.08ZM666.649 612.741C661.722 600.436 647.753 594.454 635.448 599.381C623.142 604.307 617.161 618.276 622.087 630.582C627.014 642.887 640.983 648.869 653.288 643.942C665.593 639.016 671.575 625.047 666.649 612.741ZM1236.33 379.822L642.695 617.484L646.04 625.839L1239.67 388.178L1236.33 379.822Z" fill="#0A74F2"/>
<path d="M2037.65 379.897C2035.38 366.837 2022.96 358.087 2009.9 360.353C1996.84 362.62 1988.09 375.044 1990.35 388.103C1992.62 401.163 2005.04 409.913 2018.1 407.647C2031.16 405.38 2039.91 392.956 2037.65 379.897ZM668.014 617.558C665.748 604.499 653.324 595.749 640.265 598.015C627.205 600.281 618.455 612.705 620.721 625.765C622.987 638.824 635.411 647.574 648.471 645.308C661.531 643.042 670.281 630.618 668.014 617.558ZM2013.23 379.566L643.598 617.228L645.137 626.095L2014.77 388.434L2013.23 379.566Z" fill="#0A74F2"/>
<path d="M402.336 376.914C398.61 389.635 405.901 402.967 418.621 406.693C431.341 410.419 444.674 403.128 448.4 390.408C452.126 377.688 444.835 364.355 432.115 360.629C419.394 356.903 406.062 364.194 402.336 376.914ZM1215.97 615.253C1212.24 627.973 1219.53 641.306 1232.25 645.032C1244.97 648.758 1258.31 641.467 1262.03 628.747C1265.76 616.026 1258.47 602.694 1245.75 598.968C1233.03 595.241 1219.69 602.533 1215.97 615.253ZM424.103 387.98L1237.73 626.318L1240.27 617.681L426.633 379.343L424.103 387.98Z" fill="#0A74F2"/>
<path d="M1237.9 359C1224.64 359.056 1213.94 369.846 1214 383.1C1214.06 396.355 1224.85 407.055 1238.1 407C1251.36 406.944 1262.06 396.154 1262 382.9C1261.94 369.645 1251.15 358.945 1237.9 359ZM1238.9 598C1225.64 598.056 1214.94 608.846 1215 622.1C1215.06 635.355 1225.85 646.055 1239.1 646C1252.36 645.944 1263.06 635.154 1263 621.9C1262.94 608.645 1252.15 597.945 1238.9 598ZM1233.5 383.019L1234.5 622.019L1243.5 621.981L1242.5 382.981L1233.5 383.019Z" fill="#0A74F2"/>
<path d="M1215.73 374.041C1210.79 386.338 1216.74 400.318 1229.04 405.265C1241.34 410.213 1255.32 404.255 1260.27 391.959C1265.21 379.662 1259.26 365.682 1246.96 360.735C1234.66 355.787 1220.68 361.745 1215.73 374.041ZM1809.73 613.041C1804.79 625.338 1810.74 639.318 1823.04 644.265C1835.34 649.213 1849.32 643.255 1854.27 630.959C1859.21 618.662 1853.26 604.682 1840.96 599.735C1828.66 594.787 1814.68 600.745 1809.73 613.041ZM1236.32 387.175L1830.32 626.175L1833.68 617.825L1239.68 378.825L1236.32 387.175Z" fill="#0A74F2"/>
<path d="M2029.63 364.974C2019.12 356.895 2004.05 358.863 1995.97 369.371C1987.89 379.879 1989.86 394.946 2000.37 403.026C2010.88 411.105 2025.95 409.137 2034.03 398.629C2042.11 388.121 2040.14 373.054 2029.63 364.974ZM1846.63 602.974C1836.12 594.895 1821.05 596.863 1812.97 607.371C1804.89 617.879 1806.86 632.946 1817.37 641.026C1827.88 649.105 1842.95 647.137 1851.03 636.629C1859.11 626.121 1857.14 611.054 1846.63 602.974ZM2011.43 381.257L1828.43 619.257L1835.57 624.743L2018.57 386.743L2011.43 381.257Z" fill="#0A74F2"/>
<path d="M746.075 474V444.909H757.553C759.75 444.909 761.625 445.302 763.178 446.088C764.74 446.865 765.929 447.968 766.743 449.398C767.567 450.818 767.979 452.49 767.979 454.412C767.979 456.344 767.562 458.006 766.729 459.398C765.895 460.78 764.688 461.841 763.107 462.58C761.535 463.318 759.631 463.688 757.396 463.688H749.712V458.744H756.402C757.576 458.744 758.552 458.583 759.328 458.261C760.105 457.939 760.682 457.457 761.061 456.813C761.449 456.169 761.644 455.368 761.644 454.412C761.644 453.446 761.449 452.632 761.061 451.969C760.682 451.306 760.1 450.804 759.314 450.463C758.537 450.113 757.557 449.938 756.374 449.938H752.226V474H746.075ZM761.786 460.761L769.016 474H762.226L755.152 460.761H761.786Z" fill="black"/>
<path d="M721.583 474V444.909H741.185V449.98H727.734V456.912H740.177V461.983H727.734V468.929H741.242V474H721.583Z" fill="black"/>
<path d="M711.153 453.276C711.04 452.13 710.552 451.24 709.69 450.605C708.829 449.971 707.659 449.654 706.182 449.654C705.178 449.654 704.331 449.796 703.639 450.08C702.948 450.355 702.418 450.738 702.048 451.23C701.688 451.723 701.509 452.282 701.509 452.907C701.49 453.427 701.599 453.882 701.835 454.27C702.081 454.659 702.418 454.995 702.844 455.279C703.27 455.553 703.762 455.795 704.321 456.003C704.88 456.202 705.476 456.373 706.111 456.515L708.724 457.14C709.993 457.424 711.158 457.802 712.219 458.276C713.279 458.749 714.198 459.332 714.974 460.023C715.751 460.714 716.352 461.529 716.778 462.466C717.214 463.404 717.437 464.479 717.446 465.691C717.437 467.471 716.982 469.015 716.082 470.321C715.192 471.619 713.904 472.627 712.219 473.347C710.543 474.057 708.521 474.412 706.153 474.412C703.805 474.412 701.759 474.052 700.017 473.333C698.284 472.613 696.93 471.548 695.955 470.137C694.989 468.716 694.482 466.96 694.435 464.867H700.386C700.453 465.842 700.732 466.657 701.224 467.31C701.726 467.954 702.394 468.442 703.227 468.773C704.07 469.095 705.022 469.256 706.082 469.256C707.124 469.256 708.028 469.105 708.795 468.801C709.572 468.498 710.173 468.077 710.599 467.537C711.026 466.998 711.239 466.377 711.239 465.676C711.239 465.023 711.045 464.474 710.656 464.029C710.277 463.584 709.719 463.205 708.98 462.892C708.251 462.58 707.356 462.296 706.295 462.04L703.128 461.245C700.675 460.648 698.739 459.715 697.318 458.446C695.898 457.177 695.192 455.468 695.202 453.319C695.192 451.557 695.661 450.018 696.608 448.702C697.564 447.386 698.876 446.358 700.543 445.62C702.209 444.881 704.103 444.512 706.224 444.512C708.384 444.512 710.268 444.881 711.878 445.62C713.497 446.358 714.757 447.386 715.656 448.702C716.556 450.018 717.02 451.543 717.048 453.276H711.153Z" fill="black"/>
<path d="M684.161 444.909H690.312V463.801C690.312 465.922 689.805 467.778 688.792 469.369C687.788 470.96 686.382 472.201 684.573 473.091C682.764 473.972 680.657 474.412 678.252 474.412C675.837 474.412 673.726 473.972 671.917 473.091C670.108 472.201 668.702 470.96 667.698 469.369C666.694 467.778 666.193 465.922 666.193 463.801V444.909H672.343V463.276C672.343 464.384 672.585 465.368 673.068 466.23C673.56 467.092 674.251 467.769 675.141 468.261C676.032 468.754 677.068 469 678.252 469C679.445 469 680.482 468.754 681.363 468.261C682.253 467.769 682.94 467.092 683.423 466.23C683.915 465.368 684.161 464.384 684.161 463.276V444.909Z" fill="black"/>
<path d="M641.285 474H634.694L644.737 444.909H652.663L662.691 474H656.1L648.813 451.557H648.586L641.285 474ZM640.873 462.565H656.441V467.367H640.873V462.565Z" fill="black"/>
<path d="M613.732 474V444.909H625.209C627.415 444.909 629.295 445.331 630.848 446.173C632.401 447.007 633.585 448.167 634.399 449.653C635.223 451.131 635.635 452.835 635.635 454.767C635.635 456.699 635.218 458.403 634.385 459.881C633.552 461.358 632.344 462.509 630.763 463.332C629.191 464.156 627.287 464.568 625.053 464.568H617.737V459.639H624.058C625.242 459.639 626.217 459.436 626.984 459.028C627.761 458.612 628.339 458.039 628.717 457.31C629.106 456.571 629.3 455.724 629.3 454.767C629.3 453.801 629.106 452.958 628.717 452.239C628.339 451.51 627.761 450.946 626.984 450.548C626.208 450.141 625.223 449.938 624.03 449.938H619.882V474H613.732Z" fill="black"/>
<path fill-rule="evenodd" clip-rule="evenodd" d="M741.075 479V474H741.242V468.929H741.075V449.98H741.185V444.909H741.075V439.909H757.553C760.327 439.909 763.011 440.404 765.419 441.619C767.801 442.806 769.744 444.573 771.077 446.905C772.407 449.205 772.979 451.766 772.979 454.412C772.979 457.075 772.398 459.661 771.019 461.966L771.015 461.972L771.011 461.979C770.527 462.782 769.969 463.513 769.345 464.171L777.443 479H759.229L757.226 475.252V479H741.075ZM762.226 474H769.016L762.843 462.698C762.932 462.66 763.02 462.62 763.107 462.58C764.688 461.841 765.895 460.78 766.729 459.398C766.73 459.395 766.732 459.392 766.734 459.39C767.564 457.999 767.979 456.34 767.979 454.412C767.979 452.49 767.567 450.818 766.743 449.398C765.929 447.968 764.74 446.865 763.178 446.088C761.625 445.302 759.75 444.909 757.553 444.909H746.075V474H752.226V463.688H756.716L762.226 474ZM752.226 458.744H756.402C756.689 458.744 756.963 458.735 757.226 458.716C757.283 458.711 757.34 458.707 757.396 458.702C757.447 458.697 757.497 458.692 757.547 458.687C758.226 458.614 758.82 458.472 759.328 458.261C760.105 457.939 760.682 457.457 761.061 456.813C761.25 456.499 761.393 456.149 761.49 455.761C761.592 455.353 761.644 454.903 761.644 454.412C761.644 453.446 761.449 452.632 761.061 451.969C760.682 451.306 760.1 450.804 759.314 450.463C758.732 450.201 758.036 450.036 757.226 449.971C756.955 449.949 756.671 449.938 756.374 449.938H752.226V458.744Z" fill="white"/>
<path fill-rule="evenodd" clip-rule="evenodd" d="M716.583 479V469.481C717.151 468.366 717.439 467.103 717.446 465.69C717.437 464.478 717.214 463.403 716.778 462.466C716.717 462.331 716.652 462.198 716.583 462.068V453.276H717.048C717.032 452.297 716.877 451.384 716.583 450.538V439.909H746.185V444.909H746.075V454.98H745.177V463.929H746.075V474H746.242V479H716.583ZM727.734 468.929V461.983H740.177V456.912H727.734V449.98H741.185V444.909H721.583V474H741.242V468.929H727.734Z" fill="white"/>
<path fill-rule="evenodd" clip-rule="evenodd" d="M706.111 456.515C705.476 456.373 704.88 456.202 704.321 456.003C703.762 455.795 703.27 455.553 702.844 455.279C702.418 454.995 702.081 454.659 701.835 454.27C701.599 453.882 701.49 453.427 701.509 452.907C701.509 452.282 701.688 451.723 702.048 451.23C702.418 450.738 702.948 450.355 703.639 450.08C704.331 449.796 705.178 449.654 706.182 449.654C707.659 449.654 708.829 449.971 709.69 450.605C710.364 451.101 710.809 451.753 711.025 452.561C711.086 452.787 711.129 453.025 711.153 453.276H717.048C717.02 451.543 716.556 450.018 715.656 448.702C715.557 448.556 715.453 448.414 715.345 448.276C714.474 447.162 713.318 446.277 711.878 445.62C710.268 444.881 708.384 444.512 706.224 444.512C704.103 444.512 702.209 444.881 700.543 445.62C698.876 446.358 697.564 447.386 696.608 448.702C695.661 450.018 695.192 451.557 695.202 453.319C695.192 455.468 695.898 457.177 697.318 458.446C697.915 458.979 698.602 459.453 699.38 459.867C699.7 460.037 700.036 460.197 700.386 460.348C701.215 460.703 702.128 461.002 703.128 461.245L706.295 462.04C707.356 462.296 708.251 462.58 708.98 462.892C709.719 463.205 710.277 463.584 710.656 464.029C711.045 464.474 711.239 465.023 711.239 465.676C711.239 466.377 711.026 466.998 710.599 467.537C710.173 468.077 709.572 468.498 708.795 468.801C708.028 469.105 707.124 469.256 706.082 469.256C705.022 469.256 704.07 469.095 703.227 468.773C702.394 468.442 701.726 467.954 701.224 467.31C700.881 466.854 700.641 466.32 700.505 465.707C700.446 465.441 700.406 465.161 700.386 464.867H694.435C694.479 466.829 694.927 468.496 695.779 469.867C695.836 469.958 695.894 470.048 695.955 470.137C696.93 471.548 698.284 472.613 700.017 473.333C701.76 474.052 703.805 474.412 706.153 474.412C708.521 474.412 710.543 474.057 712.219 473.347C713.904 472.627 715.192 471.619 716.082 470.321C716.982 469.015 717.437 467.471 717.446 465.691C717.437 464.479 717.214 463.404 716.778 462.466C716.352 461.529 715.751 460.714 714.974 460.023C714.198 459.332 713.279 458.749 712.219 458.276C711.875 458.122 711.52 457.979 711.153 457.845C710.391 457.567 709.582 457.331 708.724 457.14L706.111 456.515ZM720.099 458.276C720.572 458.93 720.981 459.632 721.322 460.378C721.415 460.58 721.502 460.784 721.583 460.99V470.521C721.236 471.435 720.78 472.315 720.205 473.15M721.583 449.799C721.214 448.42 720.62 447.104 719.784 445.881C718.313 443.728 716.305 442.144 713.957 441.072C711.568 439.977 708.947 439.512 706.224 439.512C703.519 439.512 700.917 439.985 698.517 441.048C696.144 442.1 694.097 443.652 692.563 445.763L692.556 445.772L692.549 445.782C691.301 447.518 690.572 449.457 690.312 451.503V455.106C690.532 456.809 691.085 458.423 692.011 459.867H690.312V463.801C690.312 464.197 690.294 464.584 690.259 464.961C690.173 465.884 689.981 466.751 689.684 467.564C690.018 469.476 690.7 471.301 691.82 472.948L691.831 472.964L691.842 472.98C693.414 475.255 695.566 476.898 698.099 477.95L698.108 477.954C700.585 478.977 703.306 479.412 706.153 479.412C708.999 479.412 711.721 478.988 714.17 477.951L714.182 477.945C716.594 476.916 718.694 475.352 720.205 473.15M721.583 449.799V458.276H720.099" fill="white"/>
<path fill-rule="evenodd" clip-rule="evenodd" d="M679.161 439.909H695.312V451.856C695.236 452.325 695.199 452.813 695.202 453.318C695.2 453.82 695.236 454.297 695.312 454.751V463.801C695.312 464.158 695.301 464.514 695.28 464.867H694.435C694.458 465.91 694.596 466.869 694.848 467.745C694.475 469.255 693.872 470.7 693.013 472.05C691.481 474.472 689.352 476.312 686.781 477.577L686.772 477.582L686.762 477.586C684.151 478.858 681.269 479.412 678.252 479.412C675.229 479.412 672.342 478.859 669.728 477.586L669.719 477.582L669.709 477.577C667.134 476.31 665.002 474.466 663.47 472.037C661.9 469.549 661.193 466.743 661.193 463.801V439.909H677.343V463.276C677.343 463.584 677.395 463.719 677.42 463.768C677.437 463.795 677.448 463.806 677.454 463.812C677.462 463.82 677.49 463.847 677.562 463.886C677.598 463.906 677.776 464 678.252 464C678.741 464 678.909 463.905 678.922 463.898L678.933 463.892L678.943 463.886C679.011 463.849 679.033 463.826 679.035 463.824C679.037 463.822 679.039 463.82 679.041 463.816C679.044 463.813 679.051 463.803 679.061 463.786L679.071 463.768L679.081 463.75L679.082 463.748C679.096 463.724 679.161 463.611 679.161 463.276V439.909ZM673.068 466.23C672.585 465.368 672.343 464.384 672.343 463.276V444.909H666.193V463.801C666.193 465.922 666.694 467.778 667.698 469.369C668.702 470.96 670.108 472.201 671.917 473.091C673.726 473.972 675.837 474.412 678.252 474.412C680.657 474.412 682.764 473.972 684.573 473.091C686.382 472.201 687.788 470.96 688.792 469.369C689.805 467.778 690.312 465.922 690.312 463.801V444.909H684.161V463.276C684.161 464.384 683.915 465.368 683.423 466.23C682.94 467.092 682.253 467.769 681.363 468.261C680.482 468.754 679.445 469 678.252 469C677.068 469 676.032 468.754 675.141 468.261C674.251 467.769 673.56 467.092 673.068 466.23Z" fill="white"/>
<path fill-rule="evenodd" clip-rule="evenodd" d="M644.916 479H627.678L634.135 460.297C634.222 460.161 634.305 460.022 634.385 459.881C635.009 458.775 635.399 457.541 635.556 456.18L641.173 439.909H656.228L669.704 479H652.467L650.313 472.367H647.074L644.916 479ZM656.1 474H662.691L652.663 444.909H644.737L634.694 474H641.285L643.443 467.367H653.946L656.1 474ZM652.388 462.565H645.005L648.586 451.557H648.813L652.388 462.565Z" fill="white"/>
<path fill-rule="evenodd" clip-rule="evenodd" d="M608.732 479V439.909H625.209C628.04 439.909 630.779 440.45 633.222 441.773C635.582 443.042 637.478 444.874 638.775 447.234C640.064 449.552 640.635 452.112 640.635 454.767C640.635 455.638 640.573 456.499 640.444 457.344L638.69 462.426C637.358 464.746 635.44 466.533 633.078 467.764C630.63 469.046 627.889 469.568 625.053 469.568H624.882V479H608.732ZM619.882 464.568H625.053C625.221 464.568 625.387 464.566 625.551 464.561C627.572 464.504 629.309 464.094 630.763 463.332C632.344 462.509 633.552 461.358 634.385 459.881C635.218 458.403 635.635 456.699 635.635 454.767C635.635 452.835 635.223 451.131 634.399 449.653C633.585 448.167 632.401 447.007 630.848 446.173C629.295 445.331 627.415 444.909 625.209 444.909H613.732V474H619.882V464.568ZM619.882 459.639H624.058C624.345 459.639 624.62 459.627 624.882 459.603C624.94 459.598 624.996 459.592 625.053 459.586C625.103 459.58 625.153 459.574 625.203 459.567C625.887 459.476 626.481 459.296 626.984 459.028C627.761 458.612 628.339 458.039 628.717 457.31C629.106 456.571 629.3 455.724 629.3 454.767C629.3 453.801 629.106 452.958 628.717 452.239C628.339 451.51 627.761 450.946 626.984 450.548C626.401 450.243 625.7 450.052 624.882 449.975C624.611 449.95 624.327 449.938 624.03 449.938H619.882V459.639Z" fill="white"/>
<path d="M1700.07 533.909V563H1694.76L1682.1 544.69H1681.89V563H1675.74V533.909H1681.14L1693.69 552.205H1693.95V533.909H1700.07Z" fill="black"/>
<path d="M1670.68 533.909V563H1664.53V533.909H1670.68Z" fill="black"/>
<path d="M1627.93 533.909H1635.51L1643.52 553.455H1643.86L1651.88 533.909H1659.46V563H1653.5V544.065H1653.25L1645.73 562.858H1641.66L1634.13 543.994H1633.89V563H1627.93V533.909Z" fill="black"/>
<path d="M1609.14 563H1598.83V533.909H1609.22C1612.15 533.909 1614.67 534.492 1616.78 535.656C1618.89 536.812 1620.52 538.474 1621.65 540.642C1622.8 542.811 1623.37 545.405 1623.37 548.426C1623.37 551.457 1622.8 554.061 1621.65 556.239C1620.52 558.417 1618.88 560.088 1616.75 561.253C1614.63 562.418 1612.09 563 1609.14 563ZM1604.98 557.73H1608.88C1610.7 557.73 1612.23 557.408 1613.47 556.764C1614.72 556.111 1615.66 555.102 1616.28 553.739C1616.92 552.366 1617.23 550.595 1617.23 548.426C1617.23 546.277 1616.92 544.52 1616.28 543.156C1615.66 541.793 1614.72 540.789 1613.48 540.145C1612.24 539.501 1610.71 539.179 1608.9 539.179H1604.98V557.73Z" fill="black"/>
<path d="M1573.92 563H1567.33L1577.37 533.909H1585.3L1595.32 563H1588.73L1581.45 540.557H1581.22L1573.92 563ZM1573.51 551.565H1589.07V556.367H1573.51V551.565Z" fill="black"/>
<path fill-rule="evenodd" clip-rule="evenodd" d="M1705.07 528.909V568H1692.14L1686.89 560.409V568H1670.74V528.909H1683.77L1688.95 536.456V528.909H1705.07ZM1693.95 552.205H1693.69L1681.14 533.909H1675.74V563H1681.89V544.69H1682.1L1694.76 563H1700.07V533.909H1693.95V552.205Z" fill="white"/>
<path fill-rule="evenodd" clip-rule="evenodd" d="M1675.68 528.909V568H1659.53V528.909H1675.68ZM1670.68 533.909H1664.53V563H1670.68V533.909Z" fill="white"/>
<path fill-rule="evenodd" clip-rule="evenodd" d="M1622.93 528.909H1638.87L1643.69 540.687L1648.52 528.909H1664.46V568H1648.5V567.858H1638.89V568H1622.93V552.716C1623.22 551.396 1623.37 549.966 1623.37 548.426C1623.37 546.891 1623.22 545.466 1622.93 544.151V528.909ZM1633.89 543.994H1634.13L1641.66 562.858H1645.73L1653.25 544.065H1653.5V563H1659.46V533.909H1651.88L1643.86 553.455H1643.52L1635.51 533.909H1627.93V563H1633.89V543.994Z" fill="white"/>
<path fill-rule="evenodd" clip-rule="evenodd" d="M1593.83 568V563H1595.32L1593.83 558.653V528.909H1609.22C1612.81 528.909 1616.2 529.626 1619.19 531.275C1622.17 532.91 1624.49 535.294 1626.08 538.314C1626.96 539.978 1627.56 541.761 1627.93 543.633V553.232C1627.56 555.107 1626.96 556.892 1626.08 558.558C1624.49 561.598 1622.16 563.994 1619.15 565.638C1616.15 567.286 1612.75 568 1609.14 568H1593.83ZM1616.75 561.253C1618.88 560.088 1620.52 558.417 1621.65 556.239C1622.8 554.061 1623.37 551.457 1623.37 548.426C1623.37 545.405 1622.8 542.811 1621.65 540.642C1620.52 538.474 1618.89 536.812 1616.78 535.656C1614.67 534.492 1612.15 533.909 1609.22 533.909H1598.83V563H1609.14C1612.09 563 1614.63 562.418 1616.75 561.253ZM1616.28 543.156C1616.92 544.52 1617.23 546.277 1617.23 548.426C1617.23 550.595 1616.92 552.366 1616.28 553.739C1615.66 555.102 1614.72 556.111 1613.47 556.764C1612.49 557.275 1611.32 557.583 1609.98 557.689C1609.62 557.716 1609.26 557.73 1608.88 557.73H1604.98V539.179H1608.9C1609.27 539.179 1609.63 539.193 1609.98 539.219C1611.33 539.324 1612.5 539.633 1613.48 540.145C1614.72 540.789 1615.66 541.793 1616.28 543.156ZM1609.98 544.245V552.662C1610.56 552.583 1610.93 552.448 1611.16 552.33C1611.36 552.224 1611.55 552.075 1611.74 551.655L1611.74 551.648L1611.74 551.641C1611.97 551.147 1612.23 550.162 1612.23 548.426C1612.23 546.715 1611.97 545.748 1611.75 545.266L1611.74 545.253L1611.74 545.24C1611.54 544.809 1611.36 544.675 1611.18 544.583C1610.95 544.463 1610.57 544.325 1609.98 544.245Z" fill="white"/>
<path fill-rule="evenodd" clip-rule="evenodd" d="M1577.55 568H1560.31L1573.81 528.909H1588.86L1598.83 557.815V563H1600.61L1602.34 568H1585.1L1582.95 561.367H1579.71L1577.55 568ZM1588.73 563H1595.32L1585.3 533.909H1577.37L1567.33 563H1573.92L1576.08 556.367H1586.58L1588.73 563ZM1585.02 551.565H1577.64L1581.22 540.557H1581.45L1585.02 551.565Z" fill="white"/>
<path d="M1977.12 518V488.909H1988.6C1990.8 488.909 1992.67 489.302 1994.22 490.088C1995.79 490.865 1996.98 491.968 1997.79 493.398C1998.61 494.818 1999.03 496.49 1999.03 498.412C1999.03 500.344 1998.61 502.006 1997.78 503.398C1996.94 504.78 1995.73 505.841 1994.15 506.58C1992.58 507.318 1990.68 507.688 1988.44 507.688H1980.76V502.744H1987.45C1988.62 502.744 1989.6 502.583 1990.38 502.261C1991.15 501.939 1991.73 501.457 1992.11 500.813C1992.5 500.169 1992.69 499.368 1992.69 498.412C1992.69 497.446 1992.5 496.632 1992.11 495.969C1991.73 495.306 1991.15 494.804 1990.36 494.463C1989.58 494.113 1988.6 493.938 1987.42 493.938H1983.27V518H1977.12ZM1992.83 504.761L2000.06 518H1993.27L1986.2 504.761H1992.83Z" fill="black"/>
<path d="M1952.63 518V488.909H1972.23V493.98H1958.78V500.912H1971.22V505.983H1958.78V512.929H1972.29V518H1952.63Z" fill="black"/>
<path d="M1924.8 493.98V488.909H1948.7V493.98H1939.79V518H1933.71V493.98H1924.8Z" fill="black"/>
<path d="M1920.83 488.909V518H1915.52L1902.86 499.69H1902.65V518H1896.5V488.909H1901.89L1914.45 507.205H1914.71V488.909H1920.83Z" fill="black"/>
<path d="M1891.44 488.909V518H1885.29V488.909H1891.44Z" fill="black"/>
<path d="M1848.68 488.909H1856.27L1864.28 508.455H1864.62L1872.63 488.909H1880.22V518H1874.25V499.065H1874.01L1866.48 517.858H1862.42L1854.89 498.994H1854.65V518H1848.68V488.909Z" fill="black"/>
<path fill-rule="evenodd" clip-rule="evenodd" d="M1972.12 523V518H1972.29V512.929H1972.12V493.98H1972.23V488.909H1972.12V483.909H1988.6C1991.37 483.909 1994.06 484.404 1996.47 485.619C1998.85 486.806 2000.79 488.573 2002.12 490.905C2003.45 493.205 2004.03 495.766 2004.03 498.412C2004.03 501.075 2003.45 503.661 2002.07 505.966L2002.06 505.972L2002.06 505.979C2001.57 506.782 2001.02 507.513 2000.39 508.171L2008.49 523H1990.28L1988.27 519.252V523H1972.12ZM1993.27 518H2000.06L1993.89 506.698C1993.98 506.66 1994.07 506.62 1994.15 506.58C1995.73 505.841 1996.94 504.78 1997.78 503.398C1997.78 503.395 1997.78 503.392 1997.78 503.39C1998.61 501.999 1999.03 500.34 1999.03 498.412C1999.03 496.49 1998.61 494.818 1997.79 493.398C1996.98 491.968 1995.79 490.865 1994.22 490.088C1992.67 489.302 1990.8 488.909 1988.6 488.909H1977.12V518H1983.27V507.688H1987.76L1993.27 518ZM1983.27 502.744H1987.45C1987.74 502.744 1988.01 502.735 1988.27 502.716C1988.33 502.711 1988.39 502.707 1988.44 502.702C1988.49 502.697 1988.54 502.692 1988.59 502.687C1989.27 502.614 1989.87 502.472 1990.38 502.261C1991.15 501.939 1991.73 501.457 1992.11 500.813C1992.3 500.499 1992.44 500.149 1992.54 499.761C1992.64 499.353 1992.69 498.903 1992.69 498.412C1992.69 497.446 1992.5 496.632 1992.11 495.969C1991.73 495.306 1991.15 494.804 1990.36 494.463C1989.78 494.201 1989.08 494.036 1988.27 493.971C1988 493.949 1987.72 493.938 1987.42 493.938H1983.27V502.744Z" fill="white"/>
<path fill-rule="evenodd" clip-rule="evenodd" d="M1947.63 523V493.98H1948.7V488.909H1947.63V483.909H1977.23V488.909H1977.12V498.98H1976.22V507.929H1977.12V518H1977.29V523H1947.63ZM1958.78 512.929V505.983H1971.22V500.912H1958.78V493.98H1972.23V488.909H1952.63V518H1972.29V512.929H1958.78Z" fill="white"/>
<path fill-rule="evenodd" clip-rule="evenodd" d="M1920.83 498.98H1928.71V523H1944.79V498.98H1952.63V488.909H1953.7V483.909H1919.8V488.909H1920.83V498.98ZM1939.79 493.98H1948.7V488.909H1924.8V493.98H1933.71V518H1939.79V493.98Z" fill="white"/>
<path fill-rule="evenodd" clip-rule="evenodd" d="M1925.83 483.909V488.909H1924.8V493.98H1925.83V523H1912.89L1907.65 515.409V523H1891.5V483.909H1904.53L1909.71 491.456V483.909H1925.83ZM1914.71 507.205H1914.45L1901.89 488.909H1896.5V518H1902.65V499.69H1902.86L1915.52 518H1920.83V488.909H1914.71V507.205Z" fill="white"/>
<path fill-rule="evenodd" clip-rule="evenodd" d="M1896.44 483.909V523H1880.29V483.909H1896.44ZM1891.44 488.909H1885.29V518H1891.44V488.909Z" fill="white"/>
<path fill-rule="evenodd" clip-rule="evenodd" d="M1843.68 483.909H1859.62L1864.45 495.687L1869.28 483.909H1885.22V523H1869.25V522.858H1859.65V523H1843.68V483.909ZM1854.65 498.994H1854.89L1862.42 517.858H1866.48L1874.01 499.065H1874.25V518H1880.22V488.909H1872.63L1864.62 508.455H1864.28L1856.27 488.909H1848.68V518H1854.65V498.994Z" fill="white"/>
<path d="M1731.08 456V426.909H1742.55C1744.75 426.909 1746.62 427.302 1748.18 428.088C1749.74 428.865 1750.93 429.968 1751.74 431.398C1752.57 432.818 1752.98 434.49 1752.98 436.412C1752.98 438.344 1752.56 440.006 1751.73 441.398C1750.9 442.78 1749.69 443.841 1748.11 444.58C1746.53 445.318 1744.63 445.688 1742.4 445.688H1734.71V440.744H1741.4C1742.58 440.744 1743.55 440.583 1744.33 440.261C1745.1 439.939 1745.68 439.457 1746.06 438.813C1746.45 438.169 1746.64 437.368 1746.64 436.412C1746.64 435.446 1746.45 434.632 1746.06 433.969C1745.68 433.306 1745.1 432.804 1744.31 432.463C1743.54 432.113 1742.56 431.938 1741.37 431.938H1737.23V456H1731.08ZM1746.79 442.761L1754.02 456H1747.23L1740.15 442.761H1746.79Z" fill="black"/>
<path d="M1706.58 456V426.909H1726.19V431.98H1712.73V438.912H1725.18V443.983H1712.73V450.929H1726.24V456H1706.58Z" fill="black"/>
<path d="M1696.15 435.276C1696.04 434.13 1695.55 433.24 1694.69 432.605C1693.83 431.971 1692.66 431.654 1691.18 431.654C1690.18 431.654 1689.33 431.796 1688.64 432.08C1687.95 432.355 1687.42 432.738 1687.05 433.23C1686.69 433.723 1686.51 434.282 1686.51 434.907C1686.49 435.427 1686.6 435.882 1686.84 436.27C1687.08 436.659 1687.42 436.995 1687.84 437.279C1688.27 437.553 1688.76 437.795 1689.32 438.003C1689.88 438.202 1690.48 438.373 1691.11 438.515L1693.72 439.14C1694.99 439.424 1696.16 439.802 1697.22 440.276C1698.28 440.749 1699.2 441.332 1699.97 442.023C1700.75 442.714 1701.35 443.529 1701.78 444.466C1702.21 445.404 1702.44 446.479 1702.45 447.691C1702.44 449.471 1701.98 451.015 1701.08 452.321C1700.19 453.619 1698.9 454.627 1697.22 455.347C1695.54 456.057 1693.52 456.412 1691.15 456.412C1688.8 456.412 1686.76 456.052 1685.02 455.333C1683.28 454.613 1681.93 453.548 1680.95 452.137C1679.99 450.716 1679.48 448.96 1679.43 446.867H1685.39C1685.45 447.842 1685.73 448.657 1686.22 449.31C1686.73 449.954 1687.39 450.442 1688.23 450.773C1689.07 451.095 1690.02 451.256 1691.08 451.256C1692.12 451.256 1693.03 451.105 1693.8 450.801C1694.57 450.498 1695.17 450.077 1695.6 449.537C1696.03 448.998 1696.24 448.377 1696.24 447.676C1696.24 447.023 1696.04 446.474 1695.66 446.029C1695.28 445.584 1694.72 445.205 1693.98 444.892C1693.25 444.58 1692.36 444.296 1691.3 444.04L1688.13 443.245C1685.68 442.648 1683.74 441.715 1682.32 440.446C1680.9 439.177 1680.19 437.468 1680.2 435.319C1680.19 433.557 1680.66 432.018 1681.61 430.702C1682.56 429.386 1683.88 428.358 1685.54 427.62C1687.21 426.881 1689.1 426.512 1691.22 426.512C1693.38 426.512 1695.27 426.881 1696.88 427.62C1698.5 428.358 1699.76 429.386 1700.66 430.702C1701.56 432.018 1702.02 433.543 1702.05 435.276H1696.15Z" fill="black"/>
<path d="M1669.16 426.909H1675.31V445.801C1675.31 447.922 1674.81 449.778 1673.79 451.369C1672.79 452.96 1671.38 454.201 1669.57 455.091C1667.76 455.972 1665.66 456.412 1663.25 456.412C1660.84 456.412 1658.73 455.972 1656.92 455.091C1655.11 454.201 1653.7 452.96 1652.7 451.369C1651.69 449.778 1651.19 447.922 1651.19 445.801V426.909H1657.34V445.276C1657.34 446.384 1657.58 447.368 1658.07 448.23C1658.56 449.092 1659.25 449.769 1660.14 450.261C1661.03 450.754 1662.07 451 1663.25 451C1664.45 451 1665.48 450.754 1666.36 450.261C1667.25 449.769 1667.94 449.092 1668.42 448.23C1668.92 447.368 1669.16 446.384 1669.16 445.276V426.909Z" fill="black"/>
<path d="M1626.28 456H1619.69L1629.74 426.909H1637.66L1647.69 456H1641.1L1633.81 433.557H1633.59L1626.28 456ZM1625.87 444.565H1641.44V449.367H1625.87V444.565Z" fill="black"/>
<path d="M1598.73 456V426.909H1610.21C1612.42 426.909 1614.3 427.331 1615.85 428.173C1617.4 429.007 1618.58 430.167 1619.4 431.653C1620.22 433.131 1620.63 434.835 1620.63 436.767C1620.63 438.699 1620.22 440.403 1619.38 441.881C1618.55 443.358 1617.34 444.509 1615.76 445.332C1614.19 446.156 1612.29 446.568 1610.05 446.568H1602.74V441.639H1609.06C1610.24 441.639 1611.22 441.436 1611.98 441.028C1612.76 440.612 1613.34 440.039 1613.72 439.31C1614.11 438.571 1614.3 437.724 1614.3 436.767C1614.3 435.801 1614.11 434.958 1613.72 434.239C1613.34 433.51 1612.76 432.946 1611.98 432.548C1611.21 432.141 1610.22 431.938 1609.03 431.938H1604.88V456H1598.73Z" fill="black"/>
<path fill-rule="evenodd" clip-rule="evenodd" d="M1726.08 461V456H1726.24V450.929H1726.08V431.98H1726.19V426.909H1726.08V421.909H1742.55C1745.33 421.909 1748.01 422.404 1750.42 423.619C1752.8 424.806 1754.74 426.573 1756.08 428.905C1757.41 431.205 1757.98 433.766 1757.98 436.412C1757.98 439.075 1757.4 441.661 1756.02 443.966L1756.01 443.972L1756.01 443.979C1755.53 444.782 1754.97 445.513 1754.34 446.171L1762.44 461H1744.23L1742.23 457.252V461H1726.08ZM1747.23 456H1754.02L1747.84 444.698C1747.93 444.66 1748.02 444.62 1748.11 444.58C1749.69 443.841 1750.9 442.78 1751.73 441.398C1751.73 441.395 1751.73 441.392 1751.73 441.39C1752.56 439.999 1752.98 438.34 1752.98 436.412C1752.98 434.49 1752.57 432.818 1751.74 431.398C1750.93 429.968 1749.74 428.865 1748.18 428.088C1746.62 427.302 1744.75 426.909 1742.55 426.909H1731.08V456H1737.23V445.688H1741.72L1747.23 456ZM1737.23 440.744H1741.4C1741.69 440.744 1741.96 440.735 1742.23 440.716C1742.28 440.711 1742.34 440.707 1742.4 440.702C1742.45 440.697 1742.5 440.692 1742.55 440.687C1743.23 440.614 1743.82 440.472 1744.33 440.261C1745.1 439.939 1745.68 439.457 1746.06 438.813C1746.25 438.499 1746.39 438.149 1746.49 437.761C1746.59 437.353 1746.64 436.903 1746.64 436.412C1746.64 435.446 1746.45 434.632 1746.06 433.969C1745.68 433.306 1745.1 432.804 1744.31 432.463C1743.73 432.201 1743.04 432.036 1742.23 431.971C1741.95 431.949 1741.67 431.938 1741.37 431.938H1737.23V440.744Z" fill="white"/>
<path fill-rule="evenodd" clip-rule="evenodd" d="M1701.58 461V451.481C1702.15 450.366 1702.44 449.103 1702.45 447.69C1702.44 446.478 1702.21 445.403 1701.78 444.466C1701.72 444.331 1701.65 444.198 1701.58 444.068V435.276H1702.05C1702.03 434.297 1701.88 433.384 1701.58 432.538V421.909H1731.19V426.909H1731.08V436.98H1730.18V445.929H1731.08V456H1731.24V461H1701.58ZM1712.73 450.929V443.983H1725.18V438.912H1712.73V431.98H1726.19V426.909H1706.58V456H1726.24V450.929H1712.73Z" fill="white"/>
<path fill-rule="evenodd" clip-rule="evenodd" d="M1691.11 438.515C1690.48 438.373 1689.88 438.202 1689.32 438.003C1688.76 437.795 1688.27 437.553 1687.84 437.279C1687.42 436.995 1687.08 436.659 1686.84 436.27C1686.6 435.882 1686.49 435.427 1686.51 434.907C1686.51 434.282 1686.69 433.723 1687.05 433.23C1687.42 432.738 1687.95 432.355 1688.64 432.08C1689.33 431.796 1690.18 431.654 1691.18 431.654C1692.66 431.654 1693.83 431.971 1694.69 432.605C1695.36 433.101 1695.81 433.753 1696.03 434.561C1696.09 434.787 1696.13 435.025 1696.15 435.276H1702.05C1702.02 433.543 1701.56 432.018 1700.66 430.702C1700.56 430.556 1700.45 430.414 1700.34 430.276C1699.47 429.162 1698.32 428.277 1696.88 427.62C1695.27 426.881 1693.38 426.512 1691.22 426.512C1689.1 426.512 1687.21 426.881 1685.54 427.62C1683.88 428.358 1682.56 429.386 1681.61 430.702C1680.66 432.018 1680.19 433.557 1680.2 435.319C1680.19 437.468 1680.9 439.177 1682.32 440.446C1682.91 440.979 1683.6 441.453 1684.38 441.867C1684.7 442.037 1685.04 442.197 1685.39 442.348C1686.21 442.703 1687.13 443.002 1688.13 443.245L1691.3 444.04C1692.36 444.296 1693.25 444.58 1693.98 444.892C1694.72 445.205 1695.28 445.584 1695.66 446.029C1696.04 446.474 1696.24 447.023 1696.24 447.676C1696.24 448.377 1696.03 448.998 1695.6 449.537C1695.17 450.077 1694.57 450.498 1693.8 450.801C1693.03 451.105 1692.12 451.256 1691.08 451.256C1690.02 451.256 1689.07 451.095 1688.23 450.773C1687.39 450.442 1686.73 449.954 1686.22 449.31C1685.88 448.854 1685.64 448.32 1685.5 447.707C1685.45 447.441 1685.41 447.161 1685.39 446.867H1679.43C1679.48 448.829 1679.93 450.496 1680.78 451.867C1680.84 451.958 1680.89 452.048 1680.95 452.137C1681.93 453.548 1683.28 454.613 1685.02 455.333C1686.76 456.052 1688.8 456.412 1691.15 456.412C1693.52 456.412 1695.54 456.057 1697.22 455.347C1698.9 454.627 1700.19 453.619 1701.08 452.321C1701.98 451.015 1702.44 449.471 1702.45 447.691C1702.44 446.479 1702.21 445.404 1701.78 444.466C1701.35 443.529 1700.75 442.714 1699.97 442.023C1699.2 441.332 1698.28 440.749 1697.22 440.276C1696.87 440.122 1696.52 439.979 1696.15 439.845C1695.39 439.567 1694.58 439.331 1693.72 439.14L1691.11 438.515ZM1705.1 440.276C1705.57 440.93 1705.98 441.632 1706.32 442.378C1706.42 442.58 1706.5 442.784 1706.58 442.99V452.521C1706.24 453.435 1705.78 454.315 1705.21 455.15M1706.58 431.799C1706.21 430.42 1705.62 429.104 1704.78 427.881C1703.31 425.728 1701.3 424.144 1698.96 423.072C1696.57 421.977 1693.95 421.512 1691.22 421.512C1688.52 421.512 1685.92 421.985 1683.52 423.048C1681.14 424.1 1679.1 425.652 1677.56 427.763L1677.56 427.772L1677.55 427.782C1676.3 429.518 1675.57 431.457 1675.31 433.503V437.106C1675.53 438.809 1676.09 440.423 1677.01 441.867H1675.31V445.801C1675.31 446.197 1675.29 446.584 1675.26 446.961C1675.17 447.884 1674.98 448.751 1674.68 449.564C1675.02 451.476 1675.7 453.301 1676.82 454.948L1676.83 454.964L1676.84 454.98C1678.41 457.255 1680.57 458.898 1683.1 459.95L1683.11 459.954C1685.58 460.977 1688.31 461.412 1691.15 461.412C1694 461.412 1696.72 460.988 1699.17 459.951L1699.18 459.945C1701.59 458.916 1703.69 457.352 1705.21 455.15M1706.58 431.799V440.276H1705.1" fill="white"/>
<path fill-rule="evenodd" clip-rule="evenodd" d="M1664.16 421.909H1680.31V433.856C1680.24 434.325 1680.2 434.813 1680.2 435.318C1680.2 435.82 1680.24 436.297 1680.31 436.751V445.801C1680.31 446.158 1680.3 446.514 1680.28 446.867H1679.43C1679.46 447.91 1679.6 448.869 1679.85 449.745C1679.48 451.255 1678.87 452.7 1678.01 454.05C1676.48 456.472 1674.35 458.312 1671.78 459.577L1671.77 459.582L1671.76 459.586C1669.15 460.858 1666.27 461.412 1663.25 461.412C1660.23 461.412 1657.34 460.859 1654.73 459.586L1654.72 459.582L1654.71 459.577C1652.13 458.31 1650 456.466 1648.47 454.037C1646.9 451.549 1646.19 448.743 1646.19 445.801V421.909H1662.34V445.276C1662.34 445.584 1662.4 445.719 1662.42 445.768C1662.44 445.795 1662.45 445.806 1662.45 445.812C1662.46 445.82 1662.49 445.847 1662.56 445.886C1662.6 445.906 1662.78 446 1663.25 446C1663.74 446 1663.91 445.905 1663.92 445.898L1663.93 445.892L1663.94 445.886C1664.01 445.849 1664.03 445.826 1664.03 445.824C1664.04 445.822 1664.04 445.82 1664.04 445.816C1664.04 445.813 1664.05 445.803 1664.06 445.786L1664.07 445.768L1664.08 445.75L1664.08 445.748C1664.1 445.724 1664.16 445.611 1664.16 445.276V421.909ZM1658.07 448.23C1657.58 447.368 1657.34 446.384 1657.34 445.276V426.909H1651.19V445.801C1651.19 447.922 1651.69 449.778 1652.7 451.369C1653.7 452.96 1655.11 454.201 1656.92 455.091C1658.73 455.972 1660.84 456.412 1663.25 456.412C1665.66 456.412 1667.76 455.972 1669.57 455.091C1671.38 454.201 1672.79 452.96 1673.79 451.369C1674.81 449.778 1675.31 447.922 1675.31 445.801V426.909H1669.16V445.276C1669.16 446.384 1668.92 447.368 1668.42 448.23C1667.94 449.092 1667.25 449.769 1666.36 450.261C1665.48 450.754 1664.45 451 1663.25 451C1662.07 451 1661.03 450.754 1660.14 450.261C1659.25 449.769 1658.56 449.092 1658.07 448.23Z" fill="white"/>
<path fill-rule="evenodd" clip-rule="evenodd" d="M1629.92 461H1612.68L1619.13 442.297C1619.22 442.161 1619.31 442.022 1619.38 441.881C1620.01 440.775 1620.4 439.541 1620.56 438.18L1626.17 421.909H1641.23L1654.7 461H1637.47L1635.31 454.367H1632.07L1629.92 461ZM1641.1 456H1647.69L1637.66 426.909H1629.74L1619.69 456H1626.28L1628.44 449.367H1638.95L1641.1 456ZM1637.39 444.565H1630L1633.59 433.557H1633.81L1637.39 444.565Z" fill="white"/>
<path fill-rule="evenodd" clip-rule="evenodd" d="M1593.73 461V421.909H1610.21C1613.04 421.909 1615.78 422.45 1618.22 423.773C1620.58 425.042 1622.48 426.874 1623.77 429.234C1625.06 431.552 1625.63 434.112 1625.63 436.767C1625.63 437.638 1625.57 438.499 1625.44 439.344L1623.69 444.426C1622.36 446.746 1620.44 448.533 1618.08 449.764C1615.63 451.046 1612.89 451.568 1610.05 451.568H1609.88V461H1593.73ZM1604.88 446.568H1610.05C1610.22 446.568 1610.39 446.566 1610.55 446.561C1612.57 446.504 1614.31 446.094 1615.76 445.332C1617.34 444.509 1618.55 443.358 1619.38 441.881C1620.22 440.403 1620.63 438.699 1620.63 436.767C1620.63 434.835 1620.22 433.131 1619.4 431.653C1618.58 430.167 1617.4 429.007 1615.85 428.173C1614.3 427.331 1612.42 426.909 1610.21 426.909H1598.73V456H1604.88V446.568ZM1604.88 441.639H1609.06C1609.35 441.639 1609.62 441.627 1609.88 441.603C1609.94 441.598 1610 441.592 1610.05 441.586C1610.1 441.58 1610.15 441.574 1610.2 441.567C1610.89 441.476 1611.48 441.296 1611.98 441.028C1612.76 440.612 1613.34 440.039 1613.72 439.31C1614.11 438.571 1614.3 437.724 1614.3 436.767C1614.3 435.801 1614.11 434.958 1613.72 434.239C1613.34 433.51 1612.76 432.946 1611.98 432.548C1611.4 432.243 1610.7 432.052 1609.88 431.975C1609.61 431.95 1609.33 431.938 1609.03 431.938H1604.88V441.639Z" fill="white"/>
<path d="M1112.66 453.909V483H1107.35L1094.69 464.69H1094.48V483H1088.33V453.909H1093.73L1106.28 472.205H1106.54V453.909H1112.66Z" fill="black"/>
<path d="M1063.42 483H1056.83L1066.87 453.909H1074.8L1084.83 483H1078.24L1070.95 460.557H1070.72L1063.42 483ZM1063.01 471.565H1078.58V476.367H1063.01V471.565Z" fill="black"/>
<path d="M1053.35 453.909V483H1047.2V453.909H1053.35Z" fill="black"/>
<path d="M1028.41 483H1018.09V453.909H1028.49C1031.42 453.909 1033.94 454.492 1036.05 455.656C1038.16 456.812 1039.79 458.474 1040.92 460.642C1042.07 462.811 1042.64 465.405 1042.64 468.426C1042.64 471.457 1042.07 474.061 1040.92 476.239C1039.79 478.417 1038.15 480.088 1036.02 481.253C1033.9 482.418 1031.36 483 1028.41 483ZM1024.25 477.73H1028.15C1029.97 477.73 1031.5 477.408 1032.74 476.764C1033.99 476.111 1034.93 475.102 1035.55 473.739C1036.19 472.366 1036.5 470.595 1036.5 468.426C1036.5 466.277 1036.19 464.52 1035.55 463.156C1034.93 461.793 1033.99 460.789 1032.75 460.145C1031.51 459.501 1029.98 459.179 1028.17 459.179H1024.25V477.73Z" fill="black"/>
<path d="M991.845 483V453.909H1003.32C1005.52 453.909 1007.39 454.302 1008.95 455.088C1010.51 455.865 1011.7 456.968 1012.51 458.398C1013.34 459.818 1013.75 461.49 1013.75 463.412C1013.75 465.344 1013.33 467.006 1012.5 468.398C1011.66 469.78 1010.46 470.841 1008.88 471.58C1007.3 472.318 1005.4 472.688 1003.17 472.688H995.481V467.744H1002.17C1003.35 467.744 1004.32 467.583 1005.1 467.261C1005.87 466.939 1006.45 466.457 1006.83 465.813C1007.22 465.169 1007.41 464.368 1007.41 463.412C1007.41 462.446 1007.22 461.632 1006.83 460.969C1006.45 460.306 1005.87 459.804 1005.08 459.463C1004.31 459.113 1003.33 458.938 1002.14 458.938H997.995V483H991.845ZM1007.56 469.761L1014.79 483H1008L1000.92 469.761H1007.56Z" fill="black"/>
<path d="M966.937 483H960.346L970.389 453.909H978.315L988.343 483H981.753L974.466 460.557H974.238L966.937 483ZM966.525 471.565H982.093V476.367H966.525V471.565Z" fill="black"/>
<path d="M950.712 453.909H956.863V472.801C956.863 474.922 956.356 476.778 955.343 478.369C954.339 479.96 952.933 481.201 951.124 482.091C949.315 482.972 947.208 483.412 944.803 483.412C942.388 483.412 940.276 482.972 938.468 482.091C936.659 481.201 935.253 479.96 934.249 478.369C933.245 476.778 932.743 474.922 932.743 472.801V453.909H938.894V472.276C938.894 473.384 939.135 474.368 939.618 475.23C940.111 476.092 940.802 476.769 941.692 477.261C942.582 477.754 943.619 478 944.803 478C945.996 478 947.033 477.754 947.914 477.261C948.804 476.769 949.49 476.092 949.973 475.23C950.466 474.368 950.712 473.384 950.712 472.276V453.909Z" fill="black"/>
<path d="M921.603 463.313C921.404 462.622 921.125 462.011 920.765 461.48C920.405 460.941 919.965 460.486 919.444 460.117C918.933 459.738 918.346 459.449 917.683 459.25C917.029 459.051 916.305 458.952 915.51 458.952C914.023 458.952 912.716 459.321 911.589 460.06C910.472 460.799 909.6 461.873 908.975 463.284C908.35 464.686 908.038 466.4 908.038 468.426C908.038 470.453 908.346 472.176 908.961 473.597C909.577 475.017 910.448 476.102 911.575 476.85C912.702 477.588 914.032 477.958 915.566 477.958C916.958 477.958 918.147 477.712 919.132 477.219C920.126 476.717 920.884 476.012 921.404 475.103C921.935 474.194 922.2 473.119 922.2 471.878L923.45 472.063H915.95V467.432H928.123V471.097C928.123 473.654 927.583 475.851 926.504 477.688C925.424 479.516 923.938 480.926 922.044 481.921C920.15 482.906 917.981 483.398 915.538 483.398C912.811 483.398 910.415 482.797 908.35 481.594C906.286 480.382 904.676 478.663 903.521 476.438C902.375 474.203 901.802 471.551 901.802 468.483C901.802 466.125 902.143 464.023 902.825 462.176C903.516 460.32 904.482 458.748 905.723 457.461C906.963 456.173 908.407 455.193 910.055 454.52C911.703 453.848 913.488 453.512 915.41 453.512C917.058 453.512 918.592 453.753 920.012 454.236C921.433 454.71 922.692 455.382 923.791 456.253C924.899 457.124 925.803 458.161 926.504 459.364C927.205 460.557 927.654 461.873 927.853 463.313H921.603Z" fill="black"/>
<path fill-rule="evenodd" clip-rule="evenodd" d="M1117.66 448.909V488H1104.73L1099.48 480.409V488H1083.33V483H1084.83L1083.33 478.653V448.909H1096.36L1101.54 456.456V448.909H1117.66ZM1106.54 472.205H1106.28L1093.73 453.909H1088.33V483H1094.48V464.69H1094.69L1107.35 483H1112.66V453.909H1106.54V472.205Z" fill="white"/>
<path fill-rule="evenodd" clip-rule="evenodd" d="M1067.05 488H1049.82L1051.54 483H1053.35V477.769L1063.31 448.909H1078.36L1088.33 477.815V483H1090.12L1091.84 488H1074.6L1072.45 481.367H1069.21L1067.05 488ZM1078.24 483H1084.83L1074.8 453.909H1066.87L1056.83 483H1063.42L1065.58 476.367H1076.08L1078.24 483ZM1074.52 471.565H1067.14L1070.72 460.557H1070.95L1074.52 471.565Z" fill="white"/>
<path fill-rule="evenodd" clip-rule="evenodd" d="M1058.35 448.909V478.608L1056.83 483H1058.35V488H1042.2V472.716C1042.49 471.396 1042.64 469.966 1042.64 468.426C1042.64 466.891 1042.49 465.466 1042.2 464.151V448.909H1058.35ZM1053.35 453.909H1047.2V483H1053.35V453.909Z" fill="white"/>
<path fill-rule="evenodd" clip-rule="evenodd" d="M1013.09 488V483H1014.79L1013.09 479.905V467.179C1013.53 466.064 1013.75 464.809 1013.75 463.412C1013.75 462.014 1013.53 460.749 1013.09 459.617V448.909H1028.49C1032.08 448.909 1035.47 449.626 1038.46 451.275C1041.44 452.91 1043.76 455.294 1045.35 458.314C1046.22 459.978 1046.83 461.761 1047.2 463.633V473.232C1046.83 475.107 1046.23 476.892 1045.35 478.558C1043.76 481.6 1041.43 483.996 1038.42 485.64C1035.42 487.287 1032.02 488 1028.41 488H1013.09ZM1036.02 481.253C1038.15 480.088 1039.79 478.417 1040.92 476.239C1042.07 474.061 1042.64 471.457 1042.64 468.426C1042.64 465.405 1042.07 462.811 1040.92 460.642C1039.79 458.474 1038.16 456.812 1036.05 455.656C1033.94 454.492 1031.42 453.909 1028.49 453.909H1018.09V483H1028.41C1031.36 483 1033.9 482.418 1036.02 481.253ZM1035.55 463.156C1034.93 461.793 1033.99 460.789 1032.75 460.145C1031.77 459.633 1030.6 459.324 1029.25 459.219C1028.9 459.193 1028.54 459.179 1028.17 459.179H1024.25V477.73H1028.15C1028.53 477.73 1028.89 477.716 1029.25 477.689C1030.59 477.583 1031.76 477.275 1032.74 476.764C1033.99 476.111 1034.93 475.102 1035.55 473.739C1036.19 472.366 1036.5 470.595 1036.5 468.426C1036.5 466.277 1036.19 464.52 1035.55 463.156ZM1030.43 472.33C1030.63 472.224 1030.81 472.075 1031.01 471.655L1031.01 471.648L1031.01 471.641C1031.24 471.147 1031.5 470.162 1031.5 468.426C1031.5 466.715 1031.24 465.748 1031.02 465.266L1031.01 465.253L1031.01 465.24C1030.81 464.809 1030.63 464.675 1030.45 464.583C1030.22 464.463 1029.84 464.325 1029.25 464.245V472.662C1029.83 472.583 1030.2 472.448 1030.43 472.33Z" fill="white"/>
<path fill-rule="evenodd" clip-rule="evenodd" d="M986.845 488V483H988.343L986.845 478.653V448.909H1003.32C1006.1 448.909 1008.78 449.404 1011.19 450.619C1013.57 451.806 1015.51 453.573 1016.85 455.905C1017.38 456.829 1017.79 457.796 1018.09 458.793V468.011C1017.78 469.034 1017.35 470.024 1016.79 470.966L1016.78 470.972L1016.78 470.979C1016.3 471.782 1015.74 472.513 1015.11 473.171L1018.09 478.629V483H1020.48L1023.21 488H1005L1003 484.252V488H986.845ZM1008 483H1014.79L1008.61 471.698C1008.7 471.66 1008.79 471.62 1008.88 471.58C1010.46 470.841 1011.66 469.78 1012.5 468.398C1012.5 468.395 1012.5 468.392 1012.5 468.39C1013.33 466.999 1013.75 465.34 1013.75 463.412C1013.75 461.49 1013.34 459.818 1012.51 458.398C1011.7 456.968 1010.51 455.865 1008.95 455.088C1007.39 454.302 1005.52 453.909 1003.32 453.909H991.845V483H997.995V472.688H1002.49L1008 483ZM997.995 467.744H1002.17C1002.46 467.744 1002.73 467.735 1003 467.716C1003.05 467.711 1003.11 467.707 1003.17 467.702C1003.22 467.697 1003.27 467.692 1003.32 467.687C1004 467.614 1004.59 467.472 1005.1 467.261C1005.87 466.939 1006.45 466.457 1006.83 465.813C1007.02 465.499 1007.16 465.149 1007.26 464.761C1007.36 464.353 1007.41 463.903 1007.41 463.412C1007.41 462.446 1007.22 461.632 1006.83 460.969C1006.45 460.306 1005.87 459.804 1005.08 459.463C1004.5 459.201 1003.81 459.036 1003 458.971C1002.72 458.949 1002.44 458.938 1002.14 458.938H997.995V467.744Z" fill="white"/>
<path fill-rule="evenodd" clip-rule="evenodd" d="M970.569 488H953.331L966.825 448.909H981.88L991.845 477.815V483H993.632L995.356 488H978.119L975.965 481.367H972.726L970.569 488ZM981.753 483H988.343L978.315 453.909H970.389L960.346 483H966.937L969.095 476.367H979.599L981.753 483ZM978.04 471.565H970.657L974.238 460.557H974.466L978.04 471.565Z" fill="white"/>
<path fill-rule="evenodd" clip-rule="evenodd" d="M945.712 448.909H961.863V472.801C961.863 475.748 961.148 478.557 959.566 481.046C958.034 483.47 955.904 485.311 953.332 486.577L953.322 486.582L953.313 486.586C950.701 487.858 947.82 488.412 944.803 488.412C941.78 488.412 938.893 487.859 936.279 486.586L936.269 486.582L936.26 486.577C933.684 485.31 931.552 483.466 930.02 481.037C928.716 478.971 928.008 476.685 927.805 474.285C927.907 473.807 927.985 473.312 928.038 472.801C928.095 472.252 928.123 471.684 928.123 471.097V467.432H927.743V463.313H927.853C927.823 463.09 927.786 462.871 927.743 462.655V448.909H943.894V472.276C943.894 472.584 943.946 472.719 943.971 472.768C943.987 472.795 943.999 472.806 944.005 472.812C944.013 472.82 944.041 472.847 944.112 472.886C944.149 472.906 944.326 473 944.803 473C945.291 473 945.46 472.905 945.473 472.898L945.483 472.892L945.493 472.886C945.561 472.849 945.584 472.826 945.585 472.824C945.587 472.822 945.589 472.82 945.592 472.816C945.595 472.813 945.602 472.803 945.612 472.786L945.622 472.768L945.632 472.75L945.633 472.748C945.647 472.724 945.712 472.611 945.712 472.276V448.909ZM939.618 475.23C939.135 474.368 938.894 473.384 938.894 472.276V453.909H932.743V472.801C932.743 474.922 933.245 476.778 934.249 478.369C935.253 479.96 936.659 481.201 938.468 482.091C940.276 482.972 942.388 483.412 944.803 483.412C947.208 483.412 949.315 482.972 951.124 482.091C952.933 481.201 954.339 479.96 955.343 478.369C956.356 476.778 956.863 474.922 956.863 472.801V453.909H950.712V472.276C950.712 473.384 950.466 474.368 949.973 475.23C949.49 476.092 948.804 476.769 947.914 477.261C947.033 477.754 945.996 478 944.803 478C943.619 478 942.582 477.754 941.692 477.261C940.802 476.769 940.111 476.092 939.618 475.23Z" fill="white"/>
<path fill-rule="evenodd" clip-rule="evenodd" d="M911.575 476.85C911.357 476.705 911.149 476.548 910.95 476.378C910.121 475.67 909.458 474.743 908.961 473.597C908.346 472.176 908.038 470.453 908.038 468.426C908.038 466.4 908.35 464.686 908.975 463.284C909.6 461.873 910.472 460.799 911.589 460.06C912.716 459.321 914.023 458.952 915.51 458.952C916.305 458.952 917.029 459.051 917.683 459.25C918.346 459.449 918.933 459.738 919.444 460.117C919.965 460.486 920.405 460.941 920.765 461.48C920.964 461.773 921.138 462.09 921.288 462.432C921.409 462.71 921.514 463.003 921.603 463.313H927.853C927.812 463.014 927.76 462.72 927.697 462.432C927.457 461.332 927.059 460.309 926.504 459.364C926.291 458.998 926.059 458.648 925.808 458.313C925.234 457.546 924.562 456.859 923.791 456.253C922.692 455.382 921.433 454.71 920.012 454.236C918.592 453.753 917.058 453.512 915.41 453.512C913.488 453.512 911.703 453.848 910.055 454.52C908.407 455.193 906.963 456.173 905.723 457.461C904.482 458.748 903.516 460.32 902.825 462.176C902.143 464.023 901.802 466.125 901.802 468.483C901.802 471.551 902.375 474.203 903.521 476.438C904.676 478.663 906.286 480.382 908.35 481.594C910.415 482.797 912.811 483.398 915.538 483.398C917.981 483.398 920.15 482.906 922.044 481.921C923.938 480.926 925.424 479.516 926.504 477.688C927.391 476.179 927.913 474.427 928.072 472.432C928.106 471.999 928.123 471.553 928.123 471.097V467.432H915.95V472.063H922.198C922.195 472.188 922.19 472.311 922.182 472.432C922.143 473.004 922.043 473.538 921.881 474.034C921.758 474.413 921.599 474.769 921.404 475.103C920.936 475.921 920.275 476.574 919.422 477.063C919.328 477.117 919.231 477.169 919.132 477.219C918.147 477.712 916.958 477.958 915.566 477.958C914.188 477.958 912.973 477.659 911.924 477.063C911.805 476.996 911.689 476.925 911.575 476.85ZM932.743 472.801C932.743 473.38 932.781 473.94 932.855 474.479C932.52 476.509 931.86 478.441 930.815 480.221L930.809 480.231C929.253 482.865 927.078 484.925 924.368 486.348L924.359 486.352L924.35 486.357C921.647 487.763 918.667 488.398 915.538 488.398C912.054 488.398 908.765 487.622 905.834 485.914L905.826 485.91L905.819 485.906C902.903 484.194 900.651 481.761 899.083 478.742L899.077 478.73L899.072 478.719C897.492 475.639 896.802 472.171 896.802 468.483C896.802 465.648 897.212 462.943 898.134 460.445L898.137 460.438L898.139 460.431C899.044 458.002 900.356 455.825 902.122 453.992C903.843 452.204 905.87 450.828 908.166 449.891C910.46 448.955 912.892 448.512 915.41 448.512C917.547 448.512 919.625 448.825 921.608 449.497C923.534 450.141 925.31 451.078 926.89 452.329C928.481 453.582 929.8 455.092 930.82 456.84C931.797 458.505 932.432 460.309 932.743 462.211V472.801Z" fill="white"/>
<path d="M1303.07 444.909V474H1297.76L1285.1 455.69H1284.89V474H1278.74V444.909H1284.14L1296.69 463.205H1296.95V444.909H1303.07Z" fill="black"/>
<path d="M1273.68 444.909V474H1267.53V444.909H1273.68Z" fill="black"/>
<path d="M1230.93 444.909H1238.51L1246.52 464.455H1246.86L1254.88 444.909H1262.46V474H1256.5V455.065H1256.25L1248.73 473.858H1244.66L1237.13 454.994H1236.89V474H1230.93V444.909Z" fill="black"/>
<path d="M1212.14 474H1201.83V444.909H1212.22C1215.15 444.909 1217.67 445.492 1219.78 446.656C1221.89 447.812 1223.52 449.474 1224.65 451.642C1225.8 453.811 1226.37 456.405 1226.37 459.426C1226.37 462.457 1225.8 465.061 1224.65 467.239C1223.52 469.417 1221.88 471.088 1219.75 472.253C1217.63 473.418 1215.09 474 1212.14 474ZM1207.98 468.73H1211.88C1213.7 468.73 1215.23 468.408 1216.47 467.764C1217.72 467.111 1218.66 466.102 1219.28 464.739C1219.92 463.366 1220.23 461.595 1220.23 459.426C1220.23 457.277 1219.92 455.52 1219.28 454.156C1218.66 452.793 1217.72 451.789 1216.48 451.145C1215.24 450.501 1213.71 450.179 1211.9 450.179H1207.98V468.73Z" fill="black"/>
<path d="M1176.92 474H1170.33L1180.37 444.909H1188.3L1198.32 474H1191.73L1184.45 451.557H1184.22L1176.92 474ZM1176.51 462.565H1192.07V467.367H1176.51V462.565Z" fill="black"/>
<path fill-rule="evenodd" clip-rule="evenodd" d="M1308.07 439.909V479H1295.14L1289.89 471.409V479H1273.74V439.909H1286.77L1291.95 447.456V439.909H1308.07ZM1296.95 463.205H1296.69L1284.14 444.909H1278.74V474H1284.89V455.69H1285.1L1297.76 474H1303.07V444.909H1296.95V463.205Z" fill="white"/>
<path fill-rule="evenodd" clip-rule="evenodd" d="M1278.68 439.909V479H1262.53V439.909H1278.68ZM1273.68 444.909H1267.53V474H1273.68V444.909Z" fill="white"/>
<path fill-rule="evenodd" clip-rule="evenodd" d="M1225.93 439.909H1241.87L1246.69 451.687L1251.52 439.909H1267.46V479H1251.5V478.858H1241.89V479H1225.93V463.716C1226.22 462.396 1226.37 460.966 1226.37 459.426C1226.37 457.891 1226.22 456.466 1225.93 455.151V439.909ZM1236.89 454.994H1237.13L1244.66 473.858H1248.73L1256.25 455.065H1256.5V474H1262.46V444.909H1254.88L1246.86 464.455H1246.52L1238.51 444.909H1230.93V474H1236.89V454.994Z" fill="white"/>
<path fill-rule="evenodd" clip-rule="evenodd" d="M1196.83 479V474H1198.32L1196.83 469.653V439.909H1212.22C1215.81 439.909 1219.2 440.626 1222.19 442.275C1225.17 443.91 1227.49 446.294 1229.08 449.314C1229.96 450.978 1230.56 452.761 1230.93 454.633V464.232C1230.56 466.107 1229.96 467.892 1229.08 469.558C1227.49 472.598 1225.16 474.994 1222.15 476.638C1219.15 478.286 1215.75 479 1212.14 479H1196.83ZM1219.75 472.253C1221.88 471.088 1223.52 469.417 1224.65 467.239C1225.8 465.061 1226.37 462.457 1226.37 459.426C1226.37 456.405 1225.8 453.811 1224.65 451.642C1223.52 449.474 1221.89 447.812 1219.78 446.656C1217.67 445.492 1215.15 444.909 1212.22 444.909H1201.83V474H1212.14C1215.09 474 1217.63 473.418 1219.75 472.253ZM1219.28 454.156C1219.92 455.52 1220.23 457.277 1220.23 459.426C1220.23 461.595 1219.92 463.366 1219.28 464.739C1218.66 466.102 1217.72 467.111 1216.47 467.764C1215.49 468.275 1214.32 468.583 1212.98 468.689C1212.62 468.716 1212.26 468.73 1211.88 468.73H1207.98V450.179H1211.9C1212.27 450.179 1212.63 450.193 1212.98 450.219C1214.33 450.324 1215.5 450.633 1216.48 451.145C1217.72 451.789 1218.66 452.793 1219.28 454.156ZM1212.98 455.245V463.662C1213.56 463.583 1213.93 463.448 1214.16 463.33C1214.36 463.224 1214.55 463.075 1214.74 462.655L1214.74 462.648L1214.74 462.641C1214.97 462.147 1215.23 461.162 1215.23 459.426C1215.23 457.715 1214.97 456.748 1214.75 456.266L1214.74 456.253L1214.74 456.24C1214.54 455.809 1214.36 455.675 1214.18 455.583C1213.95 455.463 1213.57 455.325 1212.98 455.245Z" fill="white"/>
<path fill-rule="evenodd" clip-rule="evenodd" d="M1180.55 479H1163.31L1176.81 439.909H1191.86L1201.83 468.815V474H1203.61L1205.34 479H1188.1L1185.95 472.367H1182.71L1180.55 479ZM1191.73 474H1198.32L1188.3 444.909H1180.37L1170.33 474H1176.92L1179.08 467.367H1189.58L1191.73 474ZM1188.02 462.565H1180.64L1184.22 451.557H1184.45L1188.02 462.565Z" fill="white"/>
</svg>
