<svg width="2477" height="1455" viewBox="0 0 2477 1455" fill="none" xmlns="http://www.w3.org/2000/svg">
<rect width="2477" height="1455" fill="white"/>
<rect x="300.357" y="227" width="671.643" height="103" rx="34" fill="#22212C"/>
<path d="M522.169 260.636H529.858V284.251C529.858 286.903 529.224 289.223 527.958 291.212C526.703 293.2 524.945 294.751 522.684 295.864C520.423 296.964 517.79 297.515 514.783 297.515C511.764 297.515 509.125 296.964 506.864 295.864C504.603 294.751 502.845 293.2 501.59 291.212C500.336 289.223 499.708 286.903 499.708 284.251V260.636H507.397V283.594C507.397 284.979 507.698 286.21 508.302 287.288C508.918 288.365 509.782 289.211 510.894 289.827C512.007 290.442 513.303 290.75 514.783 290.75C516.274 290.75 517.571 290.442 518.671 289.827C519.784 289.211 520.642 288.365 521.246 287.288C521.862 286.21 522.169 284.979 522.169 283.594V260.636ZM536.183 297V260.636H550.53C553.288 260.636 555.637 261.163 557.579 262.217C559.52 263.258 560.999 264.708 562.017 266.567C563.047 268.413 563.562 270.544 563.562 272.959C563.562 275.374 563.041 277.504 562 279.351C560.958 281.197 559.449 282.636 557.472 283.665C555.507 284.695 553.128 285.21 550.334 285.21H541.19V279.049H549.091C550.571 279.049 551.79 278.795 552.749 278.286C553.72 277.765 554.442 277.049 554.915 276.137C555.401 275.214 555.643 274.154 555.643 272.959C555.643 271.751 555.401 270.698 554.915 269.798C554.442 268.887 553.72 268.183 552.749 267.685C551.778 267.176 550.547 266.922 549.056 266.922H543.871V297H536.183ZM592.668 272.391C592.42 271.527 592.07 270.763 591.621 270.1C591.171 269.425 590.62 268.857 589.969 268.396C589.33 267.922 588.596 267.561 587.768 267.312C586.951 267.064 586.045 266.94 585.051 266.94C583.193 266.94 581.559 267.401 580.15 268.325C578.754 269.248 577.665 270.591 576.883 272.355C576.102 274.107 575.712 276.25 575.712 278.783C575.712 281.316 576.096 283.47 576.866 285.246C577.635 287.021 578.724 288.377 580.133 289.312C581.541 290.235 583.204 290.697 585.122 290.697C586.862 290.697 588.348 290.389 589.579 289.773C590.822 289.146 591.769 288.264 592.42 287.128C593.083 285.991 593.414 284.648 593.414 283.097L594.976 283.328H585.601V277.54H600.818V282.121C600.818 285.317 600.143 288.063 598.794 290.359C597.445 292.644 595.586 294.408 593.219 295.651C590.851 296.882 588.141 297.497 585.087 297.497C581.677 297.497 578.683 296.746 576.102 295.242C573.522 293.727 571.509 291.579 570.065 288.797C568.633 286.003 567.917 282.689 567.917 278.854C567.917 275.906 568.343 273.278 569.195 270.97C570.059 268.65 571.267 266.685 572.817 265.075C574.368 263.465 576.173 262.24 578.233 261.4C580.293 260.559 582.524 260.139 584.927 260.139C586.986 260.139 588.904 260.441 590.68 261.045C592.455 261.637 594.03 262.477 595.403 263.566C596.788 264.655 597.918 265.951 598.794 267.455C599.67 268.946 600.232 270.591 600.481 272.391H592.668ZM606.593 297V260.636H620.94C623.686 260.636 626.03 261.128 627.971 262.11C629.924 263.081 631.41 264.46 632.428 266.247C633.457 268.023 633.972 270.112 633.972 272.515C633.972 274.93 633.452 277.007 632.41 278.747C631.368 280.475 629.859 281.801 627.882 282.724C625.917 283.648 623.538 284.109 620.744 284.109H611.139V277.93H619.502C620.969 277.93 622.189 277.729 623.159 277.327C624.13 276.924 624.852 276.321 625.325 275.516C625.811 274.711 626.053 273.71 626.053 272.515C626.053 271.308 625.811 270.29 625.325 269.461C624.852 268.632 624.124 268.005 623.141 267.579C622.171 267.141 620.946 266.922 619.466 266.922H614.281V297H606.593ZM626.231 280.452L635.269 297H626.781L617.939 280.452H626.231ZM645.673 297H637.435L649.988 260.636H659.896L672.431 297H664.193L655.084 268.946H654.8L645.673 297ZM645.158 282.707H664.619V288.708H645.158V282.707ZM689.699 297H676.808V260.636H689.805C693.463 260.636 696.611 261.364 699.251 262.82C701.891 264.264 703.921 266.342 705.341 269.053C706.774 271.763 707.49 275.007 707.49 278.783C707.49 282.571 706.774 285.826 705.341 288.548C703.921 291.271 701.879 293.36 699.216 294.816C696.564 296.272 693.392 297 689.699 297ZM684.496 290.413H689.379C691.652 290.413 693.563 290.01 695.114 289.205C696.677 288.388 697.848 287.128 698.63 285.423C699.423 283.707 699.819 281.493 699.819 278.783C699.819 276.096 699.423 273.9 698.63 272.195C697.848 270.491 696.682 269.236 695.132 268.431C693.581 267.626 691.669 267.224 689.397 267.224H684.496V290.413ZM713.185 297V260.636H737.688V266.975H720.873V275.64H736.427V281.979H720.873V290.661H737.759V297H713.185ZM743.8 297V260.636H758.147C760.893 260.636 763.237 261.128 765.178 262.11C767.131 263.081 768.617 264.46 769.635 266.247C770.665 268.023 771.179 270.112 771.179 272.515C771.179 274.93 770.659 277.007 769.617 278.747C768.575 280.475 767.066 281.801 765.089 282.724C763.124 283.648 760.745 284.109 757.951 284.109H748.346V277.93H756.709C758.176 277.93 759.396 277.729 760.366 277.327C761.337 276.924 762.059 276.321 762.532 275.516C763.018 274.711 763.26 273.71 763.26 272.515C763.26 271.308 763.018 270.29 762.532 269.461C762.059 268.632 761.331 268.005 760.348 267.579C759.378 267.141 758.153 266.922 756.673 266.922H751.488V297H743.8ZM763.438 280.452L772.476 297H763.988L755.146 280.452H763.438Z" fill="white"/>
<rect x="1510.36" y="230" width="665.643" height="97" rx="31" fill="white" stroke="#22212C" stroke-width="6"/>
<path d="M1717.34 285.388V269.727H1724.91V297H1717.64V292.046H1717.36C1716.74 293.644 1715.72 294.929 1714.29 295.899C1712.87 296.87 1711.13 297.355 1709.09 297.355C1707.26 297.355 1705.66 296.941 1704.27 296.112C1702.89 295.284 1701.81 294.106 1701.02 292.579C1700.25 291.052 1699.86 289.223 1699.85 287.092V269.727H1707.42V285.743C1707.43 287.353 1707.86 288.625 1708.71 289.56C1709.56 290.496 1710.71 290.963 1712.14 290.963C1713.05 290.963 1713.9 290.756 1714.7 290.342C1715.49 289.915 1716.13 289.288 1716.61 288.46C1717.11 287.631 1717.35 286.607 1717.34 285.388ZM1730.96 307.227V269.727H1738.41V274.308H1738.75C1739.08 273.574 1739.56 272.829 1740.19 272.071C1740.83 271.302 1741.66 270.662 1742.67 270.153C1743.7 269.633 1744.98 269.372 1746.51 269.372C1748.5 269.372 1750.33 269.893 1752.01 270.935C1753.7 271.964 1755.04 273.521 1756.04 275.604C1757.05 277.676 1757.55 280.274 1757.55 283.399C1757.55 286.441 1757.06 289.01 1756.08 291.105C1755.11 293.188 1753.78 294.769 1752.1 295.846C1750.43 296.911 1748.56 297.444 1746.49 297.444C1745.02 297.444 1743.78 297.201 1742.75 296.716C1741.73 296.231 1740.89 295.621 1740.24 294.887C1739.59 294.141 1739.09 293.39 1738.75 292.632H1738.52V307.227H1730.96ZM1738.36 283.364C1738.36 284.985 1738.58 286.4 1739.03 287.607C1739.48 288.815 1740.14 289.756 1740.99 290.43C1741.84 291.093 1742.88 291.425 1744.1 291.425C1745.33 291.425 1746.37 291.087 1747.22 290.413C1748.07 289.726 1748.72 288.779 1749.16 287.572C1749.61 286.353 1749.83 284.95 1749.83 283.364C1749.83 281.789 1749.61 280.404 1749.17 279.209C1748.74 278.013 1748.09 277.078 1747.24 276.403C1746.39 275.729 1745.34 275.391 1744.1 275.391C1742.86 275.391 1741.82 275.717 1740.97 276.368C1740.13 277.019 1739.48 277.942 1739.03 279.138C1738.58 280.333 1738.36 281.742 1738.36 283.364ZM1774.88 307.795C1772.43 307.795 1770.33 307.458 1768.58 306.783C1766.84 306.121 1765.46 305.215 1764.43 304.067C1763.4 302.919 1762.73 301.628 1762.42 300.196L1769.41 299.255C1769.63 299.799 1769.97 300.308 1770.43 300.782C1770.89 301.255 1771.5 301.634 1772.26 301.918C1773.03 302.214 1773.96 302.362 1775.06 302.362C1776.71 302.362 1778.06 301.96 1779.13 301.155C1780.2 300.362 1780.74 299.03 1780.74 297.16V292.17H1780.42C1780.09 292.928 1779.59 293.644 1778.93 294.319C1778.27 294.994 1777.42 295.544 1776.38 295.97C1775.33 296.396 1774.09 296.609 1772.65 296.609C1770.6 296.609 1768.73 296.136 1767.05 295.189C1765.38 294.23 1764.05 292.768 1763.06 290.803C1762.08 288.826 1761.58 286.329 1761.58 283.31C1761.58 280.221 1762.09 277.64 1763.09 275.569C1764.1 273.497 1765.44 271.947 1767.11 270.917C1768.79 269.887 1770.63 269.372 1772.63 269.372C1774.16 269.372 1775.43 269.633 1776.46 270.153C1777.49 270.662 1778.32 271.302 1778.95 272.071C1779.59 272.829 1780.08 273.574 1780.42 274.308H1780.71V269.727H1788.22V297.266C1788.22 299.586 1787.65 301.528 1786.51 303.09C1785.38 304.653 1783.8 305.825 1781.79 306.606C1779.79 307.399 1777.49 307.795 1774.88 307.795ZM1775.04 290.928C1776.26 290.928 1777.29 290.626 1778.13 290.022C1778.99 289.406 1779.64 288.531 1780.09 287.394C1780.55 286.246 1780.78 284.873 1780.78 283.275C1780.78 281.677 1780.55 280.292 1780.1 279.12C1779.65 277.936 1779 277.019 1778.15 276.368C1777.3 275.717 1776.26 275.391 1775.04 275.391C1773.8 275.391 1772.75 275.729 1771.9 276.403C1771.05 277.066 1770.4 277.99 1769.97 279.173C1769.53 280.357 1769.31 281.724 1769.31 283.275C1769.31 284.849 1769.53 286.21 1769.97 287.359C1770.42 288.495 1771.06 289.377 1771.9 290.004C1772.75 290.62 1773.8 290.928 1775.04 290.928ZM1794.24 297V269.727H1801.57V274.486H1801.85C1802.35 272.793 1803.19 271.515 1804.36 270.651C1805.53 269.775 1806.88 269.337 1808.41 269.337C1808.79 269.337 1809.19 269.36 1809.63 269.408C1810.07 269.455 1810.45 269.52 1810.79 269.603V276.315C1810.43 276.208 1809.94 276.113 1809.31 276.031C1808.68 275.948 1808.11 275.906 1807.59 275.906C1806.48 275.906 1805.48 276.149 1804.61 276.634C1803.74 277.108 1803.06 277.771 1802.55 278.623C1802.05 279.475 1801.8 280.458 1801.8 281.57V297H1794.24ZM1821.69 297.515C1819.95 297.515 1818.4 297.213 1817.04 296.609C1815.68 295.994 1814.6 295.088 1813.81 293.893C1813.03 292.685 1812.64 291.182 1812.64 289.383C1812.64 287.868 1812.91 286.595 1813.47 285.565C1814.03 284.536 1814.78 283.707 1815.74 283.08C1816.7 282.452 1817.79 281.979 1819.01 281.659C1820.24 281.339 1821.53 281.115 1822.88 280.984C1824.47 280.819 1825.75 280.665 1826.72 280.523C1827.69 280.369 1828.39 280.144 1828.83 279.848C1829.27 279.552 1829.49 279.114 1829.49 278.534V278.428C1829.49 277.303 1829.13 276.433 1828.42 275.817C1827.72 275.202 1826.73 274.894 1825.44 274.894C1824.08 274.894 1822.99 275.196 1822.19 275.8C1821.38 276.392 1820.85 277.137 1820.59 278.037L1813.6 277.469C1813.95 275.812 1814.65 274.379 1815.69 273.172C1816.73 271.953 1818.08 271.018 1819.72 270.366C1821.38 269.704 1823.3 269.372 1825.47 269.372C1826.99 269.372 1828.44 269.55 1829.82 269.905C1831.22 270.26 1832.46 270.81 1833.53 271.556C1834.62 272.302 1835.48 273.261 1836.11 274.433C1836.74 275.593 1837.05 276.983 1837.05 278.605V297H1829.88V293.218H1829.66C1829.23 294.07 1828.64 294.822 1827.91 295.473C1827.17 296.112 1826.29 296.615 1825.26 296.982C1824.23 297.337 1823.04 297.515 1821.69 297.515ZM1823.86 292.295C1824.97 292.295 1825.95 292.076 1826.81 291.638C1827.66 291.188 1828.33 290.584 1828.81 289.827C1829.3 289.069 1829.54 288.211 1829.54 287.252V284.358C1829.3 284.512 1828.98 284.654 1828.56 284.784C1828.16 284.902 1827.71 285.015 1827.2 285.121C1826.69 285.216 1826.18 285.305 1825.67 285.388C1825.16 285.459 1824.7 285.524 1824.28 285.583C1823.4 285.713 1822.62 285.92 1821.96 286.205C1821.3 286.489 1820.78 286.873 1820.41 287.359C1820.05 287.832 1819.86 288.424 1819.86 289.134C1819.86 290.164 1820.24 290.951 1820.98 291.496C1821.74 292.028 1822.7 292.295 1823.86 292.295ZM1852.97 297.444C1850.9 297.444 1849.02 296.911 1847.34 295.846C1845.67 294.769 1844.35 293.188 1843.36 291.105C1842.39 289.01 1841.91 286.441 1841.91 283.399C1841.91 280.274 1842.41 277.676 1843.42 275.604C1844.42 273.521 1845.76 271.964 1847.43 270.935C1849.11 269.893 1850.95 269.372 1852.95 269.372C1854.48 269.372 1855.75 269.633 1856.77 270.153C1857.8 270.662 1858.63 271.302 1859.25 272.071C1859.89 272.829 1860.38 273.574 1860.71 274.308H1860.94V260.636H1868.49V297H1861.03V292.632H1860.71C1860.35 293.39 1859.85 294.141 1859.2 294.887C1858.56 295.621 1857.73 296.231 1856.7 296.716C1855.68 297.201 1854.44 297.444 1852.97 297.444ZM1855.37 291.425C1856.58 291.425 1857.61 291.093 1858.46 290.43C1859.31 289.756 1859.96 288.815 1860.41 287.607C1860.87 286.4 1861.1 284.985 1861.1 283.364C1861.1 281.742 1860.88 280.333 1860.43 279.138C1859.98 277.942 1859.33 277.019 1858.47 276.368C1857.62 275.717 1856.58 275.391 1855.37 275.391C1854.12 275.391 1853.08 275.729 1852.22 276.403C1851.37 277.078 1850.73 278.013 1850.29 279.209C1849.85 280.404 1849.63 281.789 1849.63 283.364C1849.63 284.95 1849.85 286.353 1850.29 287.572C1850.74 288.779 1851.38 289.726 1852.22 290.413C1853.08 291.087 1854.12 291.425 1855.37 291.425ZM1887.13 297.533C1884.33 297.533 1881.91 296.964 1879.89 295.828C1877.88 294.68 1876.33 293.058 1875.24 290.963C1874.15 288.856 1873.61 286.364 1873.61 283.488C1873.61 280.683 1874.15 278.22 1875.24 276.102C1876.33 273.983 1877.86 272.331 1879.84 271.148C1881.83 269.964 1884.16 269.372 1886.83 269.372C1888.63 269.372 1890.31 269.662 1891.86 270.242C1893.42 270.81 1894.78 271.669 1895.94 272.817C1897.11 273.965 1898.03 275.409 1898.68 277.149C1899.33 278.877 1899.65 280.902 1899.65 283.222V285.299H1876.62V280.612H1892.53C1892.53 279.522 1892.3 278.558 1891.82 277.717C1891.35 276.877 1890.69 276.22 1889.85 275.746C1889.02 275.261 1888.06 275.018 1886.96 275.018C1885.81 275.018 1884.79 275.285 1883.9 275.817C1883.03 276.338 1882.34 277.043 1881.84 277.93C1881.35 278.806 1881.09 279.783 1881.08 280.86V285.317C1881.08 286.666 1881.33 287.832 1881.83 288.815C1882.33 289.797 1883.05 290.555 1883.97 291.087C1884.9 291.62 1885.99 291.886 1887.26 291.886C1888.1 291.886 1888.87 291.768 1889.57 291.531C1890.27 291.295 1890.86 290.939 1891.36 290.466C1891.86 289.992 1892.24 289.412 1892.5 288.726L1899.49 289.188C1899.14 290.868 1898.41 292.336 1897.31 293.591C1896.22 294.834 1894.81 295.804 1893.08 296.503C1891.37 297.189 1889.38 297.533 1887.13 297.533ZM1906.26 282.423C1906.26 278.019 1906.84 273.965 1908.02 270.26C1909.2 266.555 1911 263.122 1913.43 259.962H1920.66C1919.73 261.134 1918.88 262.566 1918.08 264.259C1917.29 265.939 1916.6 267.786 1916.01 269.798C1915.41 271.811 1914.95 273.894 1914.62 276.048C1914.29 278.191 1914.12 280.316 1914.12 282.423C1914.12 285.228 1914.41 288.063 1914.98 290.928C1915.56 293.78 1916.34 296.432 1917.32 298.882C1918.31 301.332 1919.43 303.339 1920.66 304.901H1913.43C1911 301.741 1909.2 298.308 1908.02 294.603C1906.84 290.898 1906.26 286.838 1906.26 282.423ZM1929.47 297.462C1928.3 297.462 1927.29 297.047 1926.45 296.219C1925.62 295.378 1925.21 294.372 1925.21 293.2C1925.21 292.04 1925.62 291.046 1926.45 290.217C1927.29 289.389 1928.3 288.974 1929.47 288.974C1930.61 288.974 1931.6 289.389 1932.45 290.217C1933.3 291.046 1933.73 292.04 1933.73 293.2C1933.73 293.982 1933.53 294.698 1933.13 295.349C1932.74 295.988 1932.22 296.503 1931.58 296.893C1930.94 297.272 1930.24 297.462 1929.47 297.462ZM1944.36 297.462C1943.19 297.462 1942.18 297.047 1941.34 296.219C1940.51 295.378 1940.1 294.372 1940.1 293.2C1940.1 292.04 1940.51 291.046 1941.34 290.217C1942.18 289.389 1943.19 288.974 1944.36 288.974C1945.5 288.974 1946.49 289.389 1947.34 290.217C1948.2 291.046 1948.62 292.04 1948.62 293.2C1948.62 293.982 1948.42 294.698 1948.02 295.349C1947.63 295.988 1947.11 296.503 1946.47 296.893C1945.84 297.272 1945.13 297.462 1944.36 297.462ZM1959.25 297.462C1958.08 297.462 1957.08 297.047 1956.24 296.219C1955.41 295.378 1954.99 294.372 1954.99 293.2C1954.99 292.04 1955.41 291.046 1956.24 290.217C1957.08 289.389 1958.08 288.974 1959.25 288.974C1960.39 288.974 1961.38 289.389 1962.24 290.217C1963.09 291.046 1963.52 292.04 1963.52 293.2C1963.52 293.982 1963.31 294.698 1962.91 295.349C1962.52 295.988 1962.01 296.503 1961.37 296.893C1960.73 297.272 1960.02 297.462 1959.25 297.462ZM1982.47 282.423C1982.47 286.838 1981.88 290.898 1980.7 294.603C1979.53 298.308 1977.73 301.741 1975.3 304.901H1968.07C1969 303.729 1969.86 302.297 1970.65 300.604C1971.44 298.912 1972.13 297.065 1972.73 295.065C1973.32 293.052 1973.78 290.969 1974.11 288.815C1974.44 286.66 1974.61 284.53 1974.61 282.423C1974.61 279.617 1974.32 276.788 1973.74 273.935C1973.17 271.071 1972.39 268.419 1971.39 265.981C1970.41 263.531 1969.31 261.524 1968.07 259.962H1975.3C1977.73 263.122 1979.53 266.555 1980.7 270.26C1981.88 273.965 1982.47 278.019 1982.47 282.423Z" fill="#22212C"/>
<rect x="1510.36" y="388" width="665.643" height="238" rx="31" fill="white" stroke="#22212C" stroke-width="6"/>
<path d="M1727.37 536.412V498.912H1734.82V503.493H1735.16C1735.49 502.759 1735.97 502.013 1736.6 501.256C1737.24 500.486 1738.07 499.847 1739.09 499.338C1740.12 498.817 1741.39 498.557 1742.92 498.557C1744.91 498.557 1746.74 499.078 1748.43 500.119C1750.11 501.149 1751.45 502.706 1752.46 504.789C1753.46 506.86 1753.97 509.459 1753.97 512.584C1753.97 515.626 1753.47 518.195 1752.49 520.29C1751.52 522.373 1750.19 523.953 1748.51 525.03C1746.85 526.096 1744.97 526.628 1742.9 526.628C1741.44 526.628 1740.19 526.386 1739.16 525.9C1738.14 525.415 1737.3 524.806 1736.65 524.072C1736 523.326 1735.51 522.574 1735.16 521.817H1734.93V536.412H1727.37ZM1734.77 512.548C1734.77 514.17 1735 515.584 1735.45 516.792C1735.9 517.999 1736.55 518.94 1737.4 519.615C1738.25 520.278 1739.29 520.609 1740.51 520.609C1741.74 520.609 1742.78 520.272 1743.63 519.597C1744.48 518.911 1745.13 517.964 1745.57 516.756C1746.02 515.537 1746.24 514.134 1746.24 512.548C1746.24 510.974 1746.02 509.589 1745.58 508.393C1745.15 507.198 1744.5 506.263 1743.65 505.588C1742.8 504.913 1741.75 504.576 1740.51 504.576C1739.28 504.576 1738.23 504.901 1737.38 505.552C1736.54 506.204 1735.9 507.127 1735.45 508.322C1735 509.518 1734.77 510.927 1734.77 512.548ZM1766.78 526.699C1765.04 526.699 1763.49 526.398 1762.13 525.794C1760.77 525.178 1759.69 524.273 1758.9 523.077C1758.12 521.87 1757.73 520.367 1757.73 518.567C1757.73 517.052 1758.01 515.78 1758.56 514.75C1759.12 513.72 1759.88 512.891 1760.84 512.264C1761.8 511.637 1762.88 511.163 1764.1 510.844C1765.33 510.524 1766.62 510.299 1767.97 510.169C1769.56 510.003 1770.84 509.849 1771.81 509.707C1772.78 509.553 1773.48 509.329 1773.92 509.033C1774.36 508.737 1774.58 508.299 1774.58 507.719V507.612C1774.58 506.488 1774.22 505.618 1773.51 505.002C1772.82 504.387 1771.82 504.079 1770.53 504.079C1769.17 504.079 1768.09 504.381 1767.28 504.984C1766.48 505.576 1765.94 506.322 1765.68 507.222L1758.69 506.653C1759.04 504.996 1759.74 503.564 1760.78 502.356C1761.82 501.137 1763.17 500.202 1764.81 499.551C1766.47 498.888 1768.39 498.557 1770.57 498.557C1772.08 498.557 1773.53 498.734 1774.92 499.089C1776.31 499.445 1777.55 499.995 1778.63 500.741C1779.72 501.486 1780.57 502.445 1781.2 503.617C1781.83 504.777 1782.14 506.168 1782.14 507.79V526.185H1774.97V522.403H1774.76C1774.32 523.255 1773.73 524.007 1773 524.658C1772.27 525.297 1771.38 525.8 1770.35 526.167C1769.32 526.522 1768.13 526.699 1766.78 526.699ZM1768.95 521.479C1770.06 521.479 1771.05 521.26 1771.9 520.822C1772.75 520.373 1773.42 519.769 1773.9 519.011C1774.39 518.254 1774.63 517.396 1774.63 516.437V513.543C1774.4 513.696 1774.07 513.838 1773.66 513.969C1773.25 514.087 1772.8 514.199 1772.29 514.306C1771.78 514.401 1771.27 514.489 1770.76 514.572C1770.25 514.643 1769.79 514.708 1769.38 514.768C1768.49 514.898 1767.71 515.105 1767.05 515.389C1766.39 515.673 1765.87 516.058 1765.51 516.543C1765.14 517.017 1764.96 517.609 1764.96 518.319C1764.96 519.349 1765.33 520.136 1766.07 520.68C1766.83 521.213 1767.79 521.479 1768.95 521.479ZM1805.5 514.572V498.912H1813.06V526.185H1805.8V521.231H1805.52C1804.9 522.829 1803.88 524.113 1802.45 525.084C1801.03 526.054 1799.29 526.54 1797.24 526.54C1795.42 526.54 1793.82 526.125 1792.43 525.297C1791.05 524.468 1789.96 523.29 1789.18 521.763C1788.41 520.236 1788.02 518.408 1788.01 516.277V498.912H1795.58V514.927C1795.59 516.537 1796.02 517.81 1796.87 518.745C1797.72 519.68 1798.87 520.148 1800.3 520.148C1801.21 520.148 1802.06 519.94 1802.86 519.526C1803.65 519.1 1804.29 518.473 1804.77 517.644C1805.27 516.815 1805.51 515.792 1805.5 514.572ZM1841.81 506.689L1834.88 507.115C1834.76 506.523 1834.51 505.99 1834.12 505.517C1833.73 505.032 1833.21 504.647 1832.57 504.363C1831.95 504.067 1831.19 503.919 1830.32 503.919C1829.15 503.919 1828.16 504.168 1827.35 504.665C1826.55 505.15 1826.15 505.801 1826.15 506.618C1826.15 507.269 1826.41 507.819 1826.93 508.269C1827.45 508.719 1828.34 509.08 1829.61 509.352L1834.54 510.347C1837.2 510.891 1839.17 511.767 1840.48 512.974C1841.78 514.182 1842.43 515.768 1842.43 517.733C1842.43 519.52 1841.9 521.089 1840.85 522.438C1839.81 523.788 1838.37 524.841 1836.55 525.599C1834.74 526.344 1832.65 526.717 1830.28 526.717C1826.67 526.717 1823.8 525.966 1821.65 524.462C1819.52 522.947 1818.27 520.887 1817.91 518.283L1825.35 517.893C1825.57 518.994 1826.12 519.834 1826.98 520.414C1827.85 520.982 1828.95 521.266 1830.3 521.266C1831.63 521.266 1832.69 521.012 1833.5 520.503C1834.31 519.982 1834.73 519.313 1834.74 518.496C1834.73 517.81 1834.44 517.248 1833.87 516.81C1833.3 516.36 1832.43 516.016 1831.24 515.78L1826.52 514.839C1823.86 514.306 1821.87 513.383 1820.57 512.069C1819.28 510.755 1818.64 509.08 1818.64 507.044C1818.64 505.292 1819.11 503.783 1820.06 502.516C1821.02 501.25 1822.36 500.273 1824.09 499.587C1825.83 498.9 1827.86 498.557 1830.19 498.557C1833.64 498.557 1836.35 499.285 1838.33 500.741C1840.32 502.197 1841.48 504.179 1841.81 506.689ZM1859.62 526.717C1856.81 526.717 1854.4 526.149 1852.38 525.013C1850.36 523.864 1848.81 522.243 1847.72 520.148C1846.63 518.041 1846.09 515.549 1846.09 512.672C1846.09 509.867 1846.63 507.405 1847.72 505.286C1848.81 503.167 1850.35 501.516 1852.32 500.332C1854.31 499.149 1856.64 498.557 1859.32 498.557C1861.12 498.557 1862.79 498.847 1864.34 499.427C1865.91 499.995 1867.27 500.853 1868.43 502.001C1869.6 503.15 1870.51 504.594 1871.16 506.334C1871.81 508.062 1872.14 510.086 1872.14 512.406V514.484H1849.11V509.796H1865.02C1865.02 508.707 1864.78 507.742 1864.31 506.902C1863.83 506.061 1863.18 505.405 1862.34 504.931C1861.51 504.446 1860.54 504.203 1859.44 504.203C1858.29 504.203 1857.28 504.469 1856.39 505.002C1855.51 505.523 1854.83 506.227 1854.33 507.115C1853.83 507.991 1853.58 508.967 1853.57 510.045V514.501C1853.57 515.851 1853.81 517.017 1854.31 517.999C1854.82 518.982 1855.54 519.739 1856.46 520.272C1857.38 520.805 1858.48 521.071 1859.74 521.071C1860.59 521.071 1861.35 520.953 1862.05 520.716C1862.75 520.479 1863.35 520.124 1863.85 519.65C1864.34 519.177 1864.72 518.597 1864.98 517.91L1871.98 518.372C1871.62 520.053 1870.9 521.521 1869.79 522.775C1868.71 524.018 1867.3 524.989 1865.57 525.687C1863.85 526.374 1861.87 526.717 1859.62 526.717ZM1878.74 511.607C1878.74 507.204 1879.33 503.15 1880.5 499.445C1881.68 495.739 1883.49 492.307 1885.92 489.146H1893.14C1892.22 490.318 1891.36 491.75 1890.57 493.443C1889.78 495.124 1889.08 496.971 1888.49 498.983C1887.9 500.995 1887.44 503.079 1887.11 505.233C1886.77 507.375 1886.61 509.5 1886.61 511.607C1886.61 514.413 1886.89 517.248 1887.46 520.112C1888.04 522.965 1888.82 525.616 1889.8 528.067C1890.8 530.517 1891.91 532.523 1893.14 534.086H1885.92C1883.49 530.925 1881.68 527.493 1880.5 523.788C1879.33 520.083 1878.74 516.022 1878.74 511.607ZM1901.95 526.646C1900.78 526.646 1899.78 526.232 1898.94 525.403C1898.11 524.563 1897.69 523.557 1897.69 522.385C1897.69 521.225 1898.11 520.23 1898.94 519.402C1899.78 518.573 1900.78 518.159 1901.95 518.159C1903.09 518.159 1904.08 518.573 1904.94 519.402C1905.79 520.23 1906.22 521.225 1906.22 522.385C1906.22 523.166 1906.01 523.882 1905.61 524.533C1905.22 525.172 1904.71 525.687 1904.07 526.078C1903.43 526.457 1902.72 526.646 1901.95 526.646ZM1916.85 526.646C1915.67 526.646 1914.67 526.232 1913.83 525.403C1913 524.563 1912.59 523.557 1912.59 522.385C1912.59 521.225 1913 520.23 1913.83 519.402C1914.67 518.573 1915.67 518.159 1916.85 518.159C1917.98 518.159 1918.98 518.573 1919.83 519.402C1920.68 520.23 1921.11 521.225 1921.11 522.385C1921.11 523.166 1920.91 523.882 1920.5 524.533C1920.11 525.172 1919.6 525.687 1918.96 526.078C1918.32 526.457 1917.62 526.646 1916.85 526.646ZM1931.74 526.646C1930.57 526.646 1929.56 526.232 1928.72 525.403C1927.89 524.563 1927.48 523.557 1927.48 522.385C1927.48 521.225 1927.89 520.23 1928.72 519.402C1929.56 518.573 1930.57 518.159 1931.74 518.159C1932.88 518.159 1933.87 518.573 1934.72 519.402C1935.57 520.23 1936 521.225 1936 522.385C1936 523.166 1935.8 523.882 1935.4 524.533C1935.01 525.172 1934.49 525.687 1933.85 526.078C1933.21 526.457 1932.51 526.646 1931.74 526.646ZM1954.96 511.607C1954.96 516.022 1954.37 520.083 1953.18 523.788C1952.01 527.493 1950.21 530.925 1947.79 534.086H1940.56C1941.48 532.914 1942.34 531.482 1943.13 529.789C1943.93 528.096 1944.62 526.25 1945.21 524.249C1945.8 522.237 1946.27 520.154 1946.6 517.999C1946.93 515.845 1947.09 513.714 1947.09 511.607C1947.09 508.802 1946.8 505.973 1946.22 503.12C1945.66 500.255 1944.87 497.604 1943.88 495.165C1942.9 492.715 1941.79 490.709 1940.56 489.146H1947.79C1950.21 492.307 1952.01 495.739 1953.18 499.445C1954.37 503.15 1954.96 507.204 1954.96 511.607Z" fill="#22212C"/>
<rect x="1510.36" y="674" width="665.643" height="204" rx="31" fill="white" stroke="#22212C" stroke-width="6"/>
<path d="M1716.41 795.552C1713.6 795.552 1711.19 794.984 1709.16 793.848C1707.15 792.699 1705.6 791.078 1704.51 788.983C1703.42 786.876 1702.88 784.384 1702.88 781.507C1702.88 778.702 1703.42 776.24 1704.51 774.121C1705.6 772.002 1707.13 770.351 1709.11 769.167C1711.1 767.984 1713.43 767.392 1716.11 767.392C1717.9 767.392 1719.58 767.682 1721.13 768.262C1722.69 768.83 1724.05 769.688 1725.21 770.836C1726.39 771.984 1727.3 773.429 1727.95 775.169C1728.6 776.897 1728.93 778.921 1728.93 781.241V783.319H1705.9V778.631H1721.81C1721.81 777.542 1721.57 776.577 1721.09 775.737C1720.62 774.896 1719.96 774.239 1719.12 773.766C1718.3 773.281 1717.33 773.038 1716.23 773.038C1715.08 773.038 1714.06 773.304 1713.18 773.837C1712.3 774.358 1711.61 775.062 1711.12 775.95C1710.62 776.826 1710.36 777.802 1710.35 778.88V783.336C1710.35 784.686 1710.6 785.852 1711.1 786.834C1711.61 787.817 1712.32 788.574 1713.25 789.107C1714.17 789.64 1715.27 789.906 1716.53 789.906C1717.37 789.906 1718.14 789.788 1718.84 789.551C1719.54 789.314 1720.14 788.959 1720.63 788.485C1721.13 788.012 1721.51 787.432 1721.77 786.745L1728.77 787.207C1728.41 788.888 1727.68 790.356 1726.58 791.61C1725.49 792.853 1724.08 793.824 1722.36 794.522C1720.64 795.209 1718.66 795.552 1716.41 795.552ZM1739.69 767.747L1744.7 777.282L1749.83 767.747H1757.59L1749.69 781.383L1757.8 795.02H1750.08L1744.7 785.591L1739.41 795.02H1731.6L1739.69 781.383L1731.88 767.747H1739.69ZM1773.54 795.552C1770.73 795.552 1768.32 794.984 1766.29 793.848C1764.28 792.699 1762.73 791.078 1761.64 788.983C1760.55 786.876 1760.01 784.384 1760.01 781.507C1760.01 778.702 1760.55 776.24 1761.64 774.121C1762.73 772.002 1764.26 770.351 1766.24 769.167C1768.23 767.984 1770.56 767.392 1773.23 767.392C1775.03 767.392 1776.71 767.682 1778.26 768.262C1779.82 768.83 1781.18 769.688 1782.34 770.836C1783.52 771.984 1784.43 773.429 1785.08 775.169C1785.73 776.897 1786.05 778.921 1786.05 781.241V783.319H1763.02V778.631H1778.93C1778.93 777.542 1778.7 776.577 1778.22 775.737C1777.75 774.896 1777.09 774.239 1776.25 773.766C1775.42 773.281 1774.46 773.038 1773.36 773.038C1772.21 773.038 1771.19 773.304 1770.3 773.837C1769.43 774.358 1768.74 775.062 1768.25 775.95C1767.75 776.826 1767.49 777.802 1767.48 778.88V783.336C1767.48 784.686 1767.73 785.852 1768.23 786.834C1768.74 787.817 1769.45 788.574 1770.38 789.107C1771.3 789.64 1772.39 789.906 1773.66 789.906C1774.5 789.906 1775.27 789.788 1775.97 789.551C1776.67 789.314 1777.27 788.959 1777.76 788.485C1778.26 788.012 1778.64 787.432 1778.9 786.745L1785.89 787.207C1785.54 788.888 1784.81 790.356 1783.71 791.61C1782.62 792.853 1781.21 793.824 1779.48 794.522C1777.77 795.209 1775.79 795.552 1773.54 795.552ZM1803.31 795.552C1800.52 795.552 1798.12 794.96 1796.1 793.777C1794.1 792.581 1792.56 790.924 1791.49 788.805C1790.42 786.686 1789.89 784.248 1789.89 781.49C1789.89 778.696 1790.43 776.246 1791.51 774.139C1792.59 772.02 1794.14 770.369 1796.14 769.185C1798.14 767.989 1800.52 767.392 1803.28 767.392C1805.66 767.392 1807.74 767.824 1809.53 768.688C1811.31 769.552 1812.73 770.765 1813.77 772.328C1814.81 773.89 1815.39 775.725 1815.49 777.832H1808.36C1808.15 776.471 1807.62 775.376 1806.76 774.547C1805.9 773.707 1804.79 773.287 1803.4 773.287C1802.23 773.287 1801.21 773.606 1800.33 774.245C1799.47 774.873 1798.79 775.79 1798.31 776.998C1797.82 778.205 1797.58 779.667 1797.58 781.383C1797.58 783.123 1797.81 784.603 1798.29 785.822C1798.77 787.041 1799.45 787.971 1800.33 788.61C1801.21 789.249 1802.23 789.569 1803.4 789.569C1804.27 789.569 1805.04 789.391 1805.73 789.036C1806.43 788.681 1807 788.166 1807.45 787.491C1807.91 786.805 1808.21 785.982 1808.36 785.023H1815.49C1815.37 787.106 1814.81 788.941 1813.79 790.527C1812.78 792.102 1811.39 793.333 1809.62 794.221C1807.84 795.108 1805.74 795.552 1803.31 795.552ZM1837.83 783.407V767.747H1845.39V795.02H1838.13V790.066H1837.84C1837.23 791.664 1836.2 792.948 1834.77 793.919C1833.35 794.889 1831.62 795.375 1829.57 795.375C1827.75 795.375 1826.14 794.96 1824.76 794.132C1823.37 793.303 1822.29 792.125 1821.51 790.598C1820.74 789.071 1820.35 787.243 1820.34 785.112V767.747H1827.9V783.762C1827.91 785.372 1828.34 786.645 1829.2 787.58C1830.05 788.515 1831.19 788.983 1832.62 788.983C1833.53 788.983 1834.39 788.775 1835.18 788.361C1835.97 787.935 1836.61 787.308 1837.1 786.479C1837.59 785.65 1837.84 784.627 1837.83 783.407ZM1865.95 767.747V773.429H1849.52V767.747H1865.95ZM1853.25 761.213H1860.81V786.639C1860.81 787.337 1860.92 787.882 1861.13 788.272C1861.35 788.651 1861.64 788.917 1862.02 789.071C1862.41 789.225 1862.86 789.302 1863.37 789.302C1863.73 789.302 1864.08 789.273 1864.44 789.213C1864.79 789.142 1865.06 789.089 1865.25 789.054L1866.44 794.682C1866.06 794.801 1865.53 794.937 1864.84 795.091C1864.16 795.256 1863.32 795.357 1862.34 795.392C1860.52 795.463 1858.92 795.221 1857.55 794.664C1856.19 794.108 1855.13 793.244 1854.37 792.072C1853.61 790.9 1853.24 789.421 1853.25 787.633V761.213ZM1883.01 795.552C1880.2 795.552 1877.79 794.984 1875.76 793.848C1873.75 792.699 1872.2 791.078 1871.11 788.983C1870.02 786.876 1869.48 784.384 1869.48 781.507C1869.48 778.702 1870.02 776.24 1871.11 774.121C1872.2 772.002 1873.73 770.351 1875.71 769.167C1877.7 767.984 1880.03 767.392 1882.71 767.392C1884.51 767.392 1886.18 767.682 1887.73 768.262C1889.29 768.83 1890.66 769.688 1891.82 770.836C1892.99 771.984 1893.9 773.429 1894.55 775.169C1895.2 776.897 1895.53 778.921 1895.53 781.241V783.319H1872.5V778.631H1888.41C1888.41 777.542 1888.17 776.577 1887.7 775.737C1887.22 774.896 1886.57 774.239 1885.73 773.766C1884.9 773.281 1883.93 773.038 1882.83 773.038C1881.68 773.038 1880.67 773.304 1879.78 773.837C1878.9 774.358 1878.21 775.062 1877.72 775.95C1877.22 776.826 1876.97 777.802 1876.95 778.88V783.336C1876.95 784.686 1877.2 785.852 1877.7 786.834C1878.21 787.817 1878.93 788.574 1879.85 789.107C1880.77 789.64 1881.87 789.906 1883.13 789.906C1883.97 789.906 1884.74 789.788 1885.44 789.551C1886.14 789.314 1886.74 788.959 1887.23 788.485C1887.73 788.012 1888.11 787.432 1888.37 786.745L1895.37 787.207C1895.01 788.888 1894.28 790.356 1893.18 791.61C1892.09 792.853 1890.69 793.824 1888.96 794.522C1887.24 795.209 1885.26 795.552 1883.01 795.552ZM1902.13 780.442C1902.13 776.039 1902.72 771.984 1903.89 768.279C1905.07 764.574 1906.88 761.142 1909.31 757.981H1916.53C1915.61 759.153 1914.75 760.585 1913.96 762.278C1913.16 763.959 1912.47 765.806 1911.88 767.818C1911.29 769.83 1910.83 771.913 1910.49 774.068C1910.16 776.21 1910 778.335 1910 780.442C1910 783.248 1910.28 786.083 1910.85 788.947C1911.43 791.8 1912.21 794.451 1913.19 796.902C1914.19 799.352 1915.3 801.358 1916.53 802.921H1909.31C1906.88 799.76 1905.07 796.328 1903.89 792.623C1902.72 788.917 1902.13 784.857 1902.13 780.442ZM1925.34 795.481C1924.17 795.481 1923.16 795.067 1922.32 794.238C1921.5 793.398 1921.08 792.392 1921.08 791.22C1921.08 790.06 1921.5 789.065 1922.32 788.237C1923.16 787.408 1924.17 786.994 1925.34 786.994C1926.48 786.994 1927.47 787.408 1928.33 788.237C1929.18 789.065 1929.6 790.06 1929.6 791.22C1929.6 792.001 1929.4 792.717 1929 793.368C1928.61 794.007 1928.1 794.522 1927.46 794.913C1926.82 795.292 1926.11 795.481 1925.34 795.481ZM1940.24 795.481C1939.06 795.481 1938.06 795.067 1937.22 794.238C1936.39 793.398 1935.97 792.392 1935.97 791.22C1935.97 790.06 1936.39 789.065 1937.22 788.237C1938.06 787.408 1939.06 786.994 1940.24 786.994C1941.37 786.994 1942.37 787.408 1943.22 788.237C1944.07 789.065 1944.5 790.06 1944.5 791.22C1944.5 792.001 1944.3 792.717 1943.89 793.368C1943.5 794.007 1942.99 794.522 1942.35 794.913C1941.71 795.292 1941 795.481 1940.24 795.481ZM1955.13 795.481C1953.96 795.481 1952.95 795.067 1952.11 794.238C1951.28 793.398 1950.87 792.392 1950.87 791.22C1950.87 790.06 1951.28 789.065 1952.11 788.237C1952.95 787.408 1953.96 786.994 1955.13 786.994C1956.26 786.994 1957.26 787.408 1958.11 788.237C1958.96 789.065 1959.39 790.06 1959.39 791.22C1959.39 792.001 1959.19 792.717 1958.79 793.368C1958.4 794.007 1957.88 794.522 1957.24 794.913C1956.6 795.292 1955.9 795.481 1955.13 795.481ZM1978.35 780.442C1978.35 784.857 1977.76 788.917 1976.57 792.623C1975.4 796.328 1973.6 799.76 1971.17 802.921H1963.95C1964.87 801.749 1965.73 800.317 1966.52 798.624C1967.32 796.931 1968.01 795.085 1968.6 793.084C1969.19 791.072 1969.65 788.989 1969.99 786.834C1970.32 784.68 1970.48 782.549 1970.48 780.442C1970.48 777.637 1970.19 774.808 1969.61 771.955C1969.04 769.09 1968.26 766.439 1967.27 764C1966.29 761.55 1965.18 759.544 1963.95 757.981H1971.17C1973.6 761.142 1975.4 764.574 1976.57 768.279C1977.76 771.984 1978.35 776.039 1978.35 780.442Z" fill="#22212C"/>
<rect x="1510.36" y="925" width="665.643" height="255" rx="31" fill="white" stroke="#22212C" stroke-width="6"/>
<path d="M1747.34 1071.77V1044.49H1754.55V1049.31H1754.87C1755.43 1047.71 1756.38 1046.45 1757.71 1045.52C1759.03 1044.6 1760.62 1044.14 1762.47 1044.14C1764.34 1044.14 1765.93 1044.61 1767.24 1045.54C1768.56 1046.47 1769.43 1047.72 1769.87 1049.31H1770.15C1770.71 1047.74 1771.72 1046.5 1773.17 1045.56C1774.64 1044.61 1776.37 1044.14 1778.37 1044.14C1780.92 1044.14 1782.99 1044.95 1784.57 1046.57C1786.17 1048.18 1786.97 1050.47 1786.97 1053.43V1071.77H1779.42V1054.92C1779.42 1053.4 1779.02 1052.27 1778.21 1051.51C1777.41 1050.75 1776.4 1050.37 1775.2 1050.37C1773.82 1050.37 1772.75 1050.81 1771.98 1051.69C1771.21 1052.55 1770.83 1053.69 1770.83 1055.11V1071.77H1763.5V1054.76C1763.5 1053.42 1763.11 1052.35 1762.34 1051.56C1761.58 1050.77 1760.58 1050.37 1759.34 1050.37C1758.5 1050.37 1757.74 1050.59 1757.07 1051.01C1756.41 1051.43 1755.88 1052.01 1755.49 1052.77C1755.1 1053.51 1754.9 1054.39 1754.9 1055.4V1071.77H1747.34ZM1792.94 1071.77V1044.49H1800.51V1071.77H1792.94ZM1796.74 1040.98C1795.62 1040.98 1794.65 1040.61 1793.85 1039.86C1793.06 1039.1 1792.66 1038.2 1792.66 1037.14C1792.66 1036.1 1793.06 1035.21 1793.85 1034.46C1794.65 1033.71 1795.62 1033.33 1796.74 1033.33C1797.87 1033.33 1798.83 1033.71 1799.62 1034.46C1800.42 1035.21 1800.83 1036.1 1800.83 1037.14C1800.83 1038.2 1800.42 1039.1 1799.62 1039.86C1798.83 1040.61 1797.87 1040.98 1796.74 1040.98ZM1814.13 1056V1071.77H1806.57V1044.49H1813.78V1049.31H1814.09C1814.7 1047.72 1815.71 1046.47 1817.13 1045.54C1818.55 1044.61 1820.27 1044.14 1822.3 1044.14C1824.19 1044.14 1825.84 1044.55 1827.25 1045.38C1828.66 1046.21 1829.76 1047.39 1830.54 1048.93C1831.32 1050.46 1831.71 1052.28 1831.71 1054.4V1071.77H1824.14V1055.75C1824.16 1054.08 1823.73 1052.78 1822.87 1051.85C1822 1050.9 1820.81 1050.43 1819.3 1050.43C1818.28 1050.43 1817.38 1050.64 1816.6 1051.08C1815.83 1051.52 1815.23 1052.16 1814.79 1053C1814.36 1053.83 1814.14 1054.83 1814.13 1056ZM1852.18 1044.49V1050.18H1835.75V1044.49H1852.18ZM1839.48 1037.96H1847.04V1063.39C1847.04 1064.09 1847.15 1064.63 1847.36 1065.02C1847.58 1065.4 1847.87 1065.67 1848.25 1065.82C1848.64 1065.97 1849.09 1066.05 1849.6 1066.05C1849.96 1066.05 1850.31 1066.02 1850.67 1065.96C1851.02 1065.89 1851.29 1065.84 1851.48 1065.8L1852.67 1071.43C1852.29 1071.55 1851.76 1071.68 1851.08 1071.84C1850.39 1072 1849.55 1072.1 1848.57 1072.14C1846.75 1072.21 1845.15 1071.97 1843.78 1071.41C1842.42 1070.86 1841.36 1069.99 1840.6 1068.82C1839.84 1067.65 1839.47 1066.17 1839.48 1064.38V1037.96ZM1858.77 1057.19C1858.77 1052.79 1859.36 1048.73 1860.53 1045.03C1861.71 1041.32 1863.52 1037.89 1865.95 1034.73H1873.17C1872.25 1035.9 1871.39 1037.33 1870.6 1039.03C1869.8 1040.71 1869.11 1042.55 1868.52 1044.57C1867.93 1046.58 1867.47 1048.66 1867.14 1050.82C1866.8 1052.96 1866.64 1055.08 1866.64 1057.19C1866.64 1060 1866.92 1062.83 1867.49 1065.7C1868.07 1068.55 1868.85 1071.2 1869.83 1073.65C1870.83 1076.1 1871.94 1078.11 1873.17 1079.67H1865.95C1863.52 1076.51 1861.71 1073.08 1860.53 1069.37C1859.36 1065.67 1858.77 1061.61 1858.77 1057.19ZM1881.98 1072.23C1880.81 1072.23 1879.81 1071.81 1878.97 1070.99C1878.14 1070.15 1877.72 1069.14 1877.72 1067.97C1877.72 1066.81 1878.14 1065.81 1878.97 1064.98C1879.81 1064.16 1880.81 1063.74 1881.98 1063.74C1883.12 1063.74 1884.11 1064.16 1884.97 1064.98C1885.82 1065.81 1886.24 1066.81 1886.24 1067.97C1886.24 1068.75 1886.04 1069.47 1885.64 1070.12C1885.25 1070.76 1884.74 1071.27 1884.1 1071.66C1883.46 1072.04 1882.75 1072.23 1881.98 1072.23ZM1896.88 1072.23C1895.7 1072.23 1894.7 1071.81 1893.86 1070.99C1893.03 1070.15 1892.61 1069.14 1892.61 1067.97C1892.61 1066.81 1893.03 1065.81 1893.86 1064.98C1894.7 1064.16 1895.7 1063.74 1896.88 1063.74C1898.01 1063.74 1899.01 1064.16 1899.86 1064.98C1900.71 1065.81 1901.14 1066.81 1901.14 1067.97C1901.14 1068.75 1900.94 1069.47 1900.53 1070.12C1900.14 1070.76 1899.63 1071.27 1898.99 1071.66C1898.35 1072.04 1897.65 1072.23 1896.88 1072.23ZM1911.77 1072.23C1910.6 1072.23 1909.59 1071.81 1908.75 1070.99C1907.92 1070.15 1907.51 1069.14 1907.51 1067.97C1907.51 1066.81 1907.92 1065.81 1908.75 1064.98C1909.59 1064.16 1910.6 1063.74 1911.77 1063.74C1912.91 1063.74 1913.9 1064.16 1914.75 1064.98C1915.6 1065.81 1916.03 1066.81 1916.03 1067.97C1916.03 1068.75 1915.83 1069.47 1915.43 1070.12C1915.04 1070.76 1914.52 1071.27 1913.88 1071.66C1913.24 1072.04 1912.54 1072.23 1911.77 1072.23ZM1934.99 1057.19C1934.99 1061.61 1934.4 1065.67 1933.21 1069.37C1932.04 1073.08 1930.24 1076.51 1927.82 1079.67H1920.59C1921.51 1078.5 1922.37 1077.06 1923.16 1075.37C1923.96 1073.68 1924.65 1071.83 1925.24 1069.83C1925.83 1067.82 1926.29 1065.74 1926.63 1063.58C1926.96 1061.43 1927.12 1059.3 1927.12 1057.19C1927.12 1054.38 1926.83 1051.56 1926.25 1048.7C1925.68 1045.84 1924.9 1043.19 1923.91 1040.75C1922.93 1038.3 1921.82 1036.29 1920.59 1034.73H1927.82C1930.24 1037.89 1932.04 1041.32 1933.21 1045.03C1934.4 1048.73 1934.99 1052.79 1934.99 1057.19Z" fill="#22212C"/>
<rect x="300.357" y="385" width="671.643" height="103" rx="34" fill="#22212C"/>
<path d="M539.039 455V418.636H553.386C556.144 418.636 558.494 419.163 560.435 420.217C562.376 421.258 563.856 422.708 564.874 424.567C565.904 426.413 566.419 428.544 566.419 430.959C566.419 433.374 565.898 435.504 564.856 437.351C563.815 439.197 562.305 440.636 560.328 441.665C558.364 442.695 555.984 443.21 553.191 443.21H544.047V437.049H551.948C553.427 437.049 554.647 436.795 555.605 436.286C556.576 435.765 557.298 435.049 557.772 434.137C558.257 433.214 558.5 432.154 558.5 430.959C558.5 429.751 558.257 428.698 557.772 427.798C557.298 426.887 556.576 426.183 555.605 425.685C554.635 425.176 553.404 424.922 551.912 424.922H546.728V455H539.039ZM573.481 455H565.242L577.796 418.636H587.703L600.239 455H592L582.892 426.946H582.607L573.481 455ZM572.966 440.707H592.426V446.708H572.966V440.707ZM627.077 418.636H634.765V442.251C634.765 444.903 634.131 447.223 632.865 449.212C631.61 451.2 629.852 452.751 627.591 453.864C625.331 454.964 622.697 455.515 619.69 455.515C616.672 455.515 614.032 454.964 611.771 453.864C609.51 452.751 607.752 451.2 606.498 449.212C605.243 447.223 604.616 444.903 604.616 442.251V418.636H612.304V441.594C612.304 442.979 612.606 444.21 613.209 445.288C613.825 446.365 614.689 447.211 615.802 447.827C616.914 448.442 618.211 448.75 619.69 448.75C621.182 448.75 622.478 448.442 623.579 447.827C624.691 447.211 625.55 446.365 626.153 445.288C626.769 444.21 627.077 442.979 627.077 441.594V418.636ZM660.817 429.094C660.675 427.662 660.065 426.549 658.988 425.756C657.911 424.963 656.449 424.567 654.602 424.567C653.348 424.567 652.288 424.744 651.424 425.099C650.56 425.443 649.897 425.922 649.435 426.538C648.986 427.153 648.761 427.852 648.761 428.633C648.737 429.284 648.873 429.852 649.169 430.337C649.477 430.823 649.897 431.243 650.43 431.598C650.962 431.941 651.578 432.243 652.276 432.504C652.975 432.752 653.72 432.965 654.513 433.143L657.781 433.924C659.367 434.279 660.823 434.753 662.148 435.344C663.474 435.936 664.622 436.664 665.593 437.528C666.564 438.393 667.315 439.411 667.848 440.582C668.393 441.754 668.671 443.098 668.683 444.613C668.671 446.838 668.103 448.768 666.978 450.401C665.865 452.023 664.255 453.284 662.148 454.183C660.053 455.071 657.526 455.515 654.567 455.515C651.631 455.515 649.074 455.065 646.896 454.165C644.73 453.266 643.037 451.934 641.818 450.17C640.611 448.395 639.978 446.199 639.918 443.583H647.358C647.441 444.802 647.79 445.82 648.406 446.637C649.033 447.442 649.867 448.052 650.909 448.466C651.963 448.868 653.152 449.07 654.478 449.07C655.78 449.07 656.911 448.88 657.869 448.501C658.84 448.123 659.592 447.596 660.124 446.921C660.657 446.246 660.923 445.471 660.923 444.595C660.923 443.778 660.681 443.092 660.195 442.536C659.722 441.979 659.023 441.506 658.1 441.115C657.189 440.724 656.07 440.369 654.744 440.05L650.785 439.055C647.719 438.31 645.298 437.144 643.523 435.558C641.747 433.971 640.865 431.835 640.877 429.148C640.865 426.946 641.451 425.022 642.635 423.377C643.83 421.732 645.47 420.447 647.553 419.524C649.637 418.601 652.004 418.139 654.656 418.139C657.354 418.139 659.71 418.601 661.722 419.524C663.746 420.447 665.321 421.732 666.445 423.377C667.57 425.022 668.15 426.928 668.185 429.094H660.817ZM673.854 455V418.636H698.357V424.975H681.542V433.64H697.096V439.979H681.542V448.661H698.428V455H673.854ZM704.469 455V418.636H718.816C721.562 418.636 723.906 419.128 725.847 420.11C727.8 421.081 729.286 422.46 730.304 424.247C731.333 426.023 731.848 428.112 731.848 430.515C731.848 432.93 731.328 435.007 730.286 436.747C729.244 438.475 727.735 439.801 725.758 440.724C723.793 441.648 721.414 442.109 718.62 442.109H709.015V435.93H717.377C718.845 435.93 720.065 435.729 721.035 435.327C722.006 434.924 722.728 434.321 723.201 433.516C723.687 432.711 723.929 431.71 723.929 430.515C723.929 429.308 723.687 428.29 723.201 427.461C722.728 426.632 722 426.005 721.017 425.579C720.047 425.141 718.822 424.922 717.342 424.922H712.157V455H704.469ZM724.107 438.452L733.145 455H724.657L715.815 438.452H724.107Z" fill="white"/>
<rect x="300.357" y="671" width="671.643" height="103" rx="34" fill="#22212C"/>
<path d="M500.807 741V704.636H525.31V710.975H508.495V719.64H524.049V725.979H508.495V734.661H525.381V741H500.807ZM538.631 704.636L545.964 717.03H546.248L553.617 704.636H562.299L551.202 722.818L562.548 741H553.706L546.248 728.589H545.964L538.507 741H529.7L541.081 722.818L529.913 704.636H538.631ZM567.164 741V704.636H591.667V710.975H574.853V719.64H590.407V725.979H574.853V734.661H591.738V741H567.164ZM629.864 717.367H622.087C621.945 716.361 621.655 715.467 621.217 714.686C620.779 713.893 620.217 713.218 619.53 712.662C618.844 712.106 618.051 711.679 617.151 711.384C616.263 711.088 615.299 710.94 614.257 710.94C612.375 710.94 610.735 711.407 609.339 712.342C607.942 713.266 606.859 714.615 606.089 716.391C605.32 718.154 604.935 720.297 604.935 722.818C604.935 725.411 605.32 727.589 606.089 729.352C606.871 731.116 607.96 732.448 609.356 733.347C610.753 734.247 612.369 734.697 614.204 734.697C615.233 734.697 616.186 734.561 617.062 734.288C617.95 734.016 618.737 733.62 619.424 733.099C620.11 732.566 620.679 731.921 621.128 731.163C621.59 730.406 621.91 729.542 622.087 728.571L629.864 728.607C629.663 730.276 629.16 731.885 628.355 733.436C627.562 734.975 626.491 736.354 625.141 737.573C623.804 738.781 622.206 739.739 620.347 740.45C618.501 741.148 616.411 741.497 614.079 741.497C610.836 741.497 607.936 740.763 605.379 739.295C602.834 737.828 600.822 735.703 599.342 732.921C597.874 730.139 597.14 726.772 597.14 722.818C597.14 718.853 597.886 715.479 599.378 712.697C600.869 709.916 602.893 707.797 605.45 706.341C608.007 704.873 610.883 704.139 614.079 704.139C616.186 704.139 618.14 704.435 619.939 705.027C621.75 705.619 623.354 706.483 624.751 707.619C626.147 708.744 627.284 710.123 628.16 711.756C629.047 713.39 629.616 715.26 629.864 717.367ZM657.838 704.636H665.526V728.251C665.526 730.903 664.893 733.223 663.627 735.212C662.372 737.2 660.614 738.751 658.353 739.864C656.092 740.964 653.459 741.515 650.452 741.515C647.433 741.515 644.794 740.964 642.533 739.864C640.272 738.751 638.514 737.2 637.259 735.212C636.005 733.223 635.377 730.903 635.377 728.251V704.636H643.066V727.594C643.066 728.979 643.367 730.21 643.971 731.288C644.587 732.365 645.451 733.211 646.563 733.827C647.676 734.442 648.972 734.75 650.452 734.75C651.943 734.75 653.24 734.442 654.34 733.827C655.453 733.211 656.311 732.365 656.915 731.288C657.53 730.21 657.838 728.979 657.838 727.594V704.636ZM670.467 710.975V704.636H700.332V710.975H689.199V741H681.6V710.975H670.467ZM737.006 722.818C737.006 726.784 736.255 730.157 734.751 732.939C733.26 735.721 731.224 737.845 728.643 739.313C726.075 740.769 723.187 741.497 719.979 741.497C716.747 741.497 713.847 740.763 711.278 739.295C708.71 737.828 706.68 735.703 705.188 732.921C703.697 730.139 702.951 726.772 702.951 722.818C702.951 718.853 703.697 715.479 705.188 712.697C706.68 709.916 708.71 707.797 711.278 706.341C713.847 704.873 716.747 704.139 719.979 704.139C723.187 704.139 726.075 704.873 728.643 706.341C731.224 707.797 733.26 709.916 734.751 712.697C736.255 715.479 737.006 718.853 737.006 722.818ZM729.212 722.818C729.212 720.25 728.827 718.083 728.058 716.32C727.3 714.556 726.229 713.218 724.844 712.307C723.459 711.395 721.837 710.94 719.979 710.94C718.12 710.94 716.499 711.395 715.114 712.307C713.729 713.218 712.652 714.556 711.882 716.32C711.125 718.083 710.746 720.25 710.746 722.818C710.746 725.387 711.125 727.553 711.882 729.317C712.652 731.08 713.729 732.418 715.114 733.33C716.499 734.241 718.12 734.697 719.979 734.697C721.837 734.697 723.459 734.241 724.844 733.33C726.229 732.418 727.3 731.08 728.058 729.317C728.827 727.553 729.212 725.387 729.212 722.818ZM742.702 741V704.636H757.048C759.794 704.636 762.138 705.128 764.079 706.11C766.032 707.081 767.518 708.46 768.536 710.247C769.566 712.023 770.081 714.112 770.081 716.515C770.081 718.93 769.56 721.007 768.518 722.747C767.477 724.475 765.967 725.801 763.991 726.724C762.026 727.648 759.646 728.109 756.853 728.109H747.247V721.93H755.61C757.078 721.93 758.297 721.729 759.268 721.327C760.238 720.924 760.96 720.321 761.434 719.516C761.919 718.711 762.162 717.71 762.162 716.515C762.162 715.308 761.919 714.29 761.434 713.461C760.96 712.632 760.232 712.005 759.25 711.579C758.279 711.141 757.054 710.922 755.574 710.922H750.39V741H742.702ZM762.339 724.452L771.377 741H762.89L754.047 724.452H762.339Z" fill="white"/>
<rect x="300.357" y="922" width="671.643" height="103" rx="34" fill="#22212C"/>
<path d="M541.481 955.636H550.962L560.977 980.068H561.403L571.417 955.636H580.898V992H573.441V968.332H573.139L563.729 991.822H558.651L549.24 968.243H548.938V992H541.481V955.636ZM594.921 955.636V992H587.233V955.636H594.921ZM631.662 955.636V992H625.021L609.201 969.113H608.935V992H601.246V955.636H607.994L623.69 978.506H624.009V955.636H631.662ZM636.629 961.975V955.636H666.494V961.975H655.361V992H647.762V961.975H636.629ZM671.412 992V955.636H695.915V961.975H679.101V970.64H694.655V976.979H679.101V985.661H695.986V992H671.412ZM702.028 992V955.636H716.374C719.121 955.636 721.464 956.128 723.406 957.11C725.359 958.081 726.844 959.46 727.862 961.247C728.892 963.023 729.407 965.112 729.407 967.515C729.407 969.93 728.886 972.007 727.844 973.747C726.803 975.475 725.294 976.801 723.317 977.724C721.352 978.648 718.973 979.109 716.179 979.109H706.573V972.93H714.936C716.404 972.93 717.623 972.729 718.594 972.327C719.564 971.924 720.286 971.321 720.76 970.516C721.245 969.711 721.488 968.71 721.488 967.515C721.488 966.308 721.245 965.29 720.76 964.461C720.286 963.632 719.558 963.005 718.576 962.579C717.605 962.141 716.38 961.922 714.901 961.922H709.716V992H702.028ZM721.665 975.452L730.703 992H722.216L713.374 975.452H721.665Z" fill="white"/>
<rect x="300.357" y="1080" width="671.643" height="103" rx="34" fill="#22212C"/>
<path d="M559.272 1150H551.033L563.587 1113.64H573.494L586.03 1150H577.791L568.683 1121.95H568.398L559.272 1150ZM558.757 1135.71H578.217V1141.71H558.757V1135.71ZM603.297 1150H590.407V1113.64H603.404C607.061 1113.64 610.21 1114.36 612.85 1115.82C615.489 1117.26 617.52 1119.34 618.94 1122.05C620.372 1124.76 621.088 1128.01 621.088 1131.78C621.088 1135.57 620.372 1138.83 618.94 1141.55C617.52 1144.27 615.478 1146.36 612.814 1147.82C610.163 1149.27 606.99 1150 603.297 1150ZM598.095 1143.41H602.978C605.25 1143.41 607.162 1143.01 608.713 1142.21C610.275 1141.39 611.447 1140.13 612.228 1138.42C613.021 1136.71 613.418 1134.49 613.418 1131.78C613.418 1129.1 613.021 1126.9 612.228 1125.2C611.447 1123.49 610.281 1122.24 608.73 1121.43C607.18 1120.63 605.268 1120.22 602.995 1120.22H598.095V1143.41ZM626.784 1113.64H636.265L646.279 1138.07H646.705L656.72 1113.64H666.201V1150H658.744V1126.33H658.442L649.031 1149.82H643.953L634.543 1126.24H634.241V1150H626.784V1113.64ZM680.224 1113.64V1150H672.536V1113.64H680.224ZM716.965 1113.64V1150H710.324L694.504 1127.11H694.237V1150H686.549V1113.64H693.296L708.992 1136.51H709.312V1113.64H716.965Z" fill="white"/>
<path d="M1510.18 282.182C1511.94 280.425 1511.94 277.575 1510.18 275.818L1481.54 247.18C1479.79 245.423 1476.94 245.423 1475.18 247.18C1473.42 248.938 1473.42 251.787 1475.18 253.544L1500.64 279L1475.18 304.456C1473.42 306.213 1473.42 309.062 1475.18 310.82C1476.94 312.577 1479.79 312.577 1481.54 310.82L1510.18 282.182ZM972 283.5H1507V274.5H972V283.5Z" fill="#0A74F2"/>
<path d="M1510.18 440.182C1511.94 438.425 1511.94 435.575 1510.18 433.818L1481.54 405.18C1479.79 403.423 1476.94 403.423 1475.18 405.18C1473.42 406.938 1473.42 409.787 1475.18 411.544L1500.64 437L1475.18 462.456C1473.42 464.213 1473.42 467.062 1475.18 468.82C1476.94 470.577 1479.79 470.577 1481.54 468.82L1510.18 440.182ZM972 441.5H1507V432.5H972V441.5Z" fill="#0A74F2"/>
<path d="M1510.18 726.182C1511.94 724.425 1511.94 721.575 1510.18 719.818L1481.54 691.18C1479.79 689.423 1476.94 689.423 1475.18 691.18C1473.42 692.938 1473.42 695.787 1475.18 697.544L1500.64 723L1475.18 748.456C1473.42 750.213 1473.42 753.062 1475.18 754.82C1476.94 756.577 1479.79 756.577 1481.54 754.82L1510.18 726.182ZM972 727.5H1507V718.5H972V727.5Z" fill="#4E5EE4"/>
<path d="M1510.18 977.182C1511.94 975.425 1511.94 972.575 1510.18 970.818L1481.54 942.18C1479.79 940.423 1476.94 940.423 1475.18 942.18C1473.42 943.938 1473.42 946.787 1475.18 948.544L1500.64 974L1475.18 999.456C1473.42 1001.21 1473.42 1004.06 1475.18 1005.82C1476.94 1007.58 1479.79 1007.58 1481.54 1005.82L1510.18 977.182ZM972 978.5H1507V969.5H972V978.5Z" fill="#0A74F2"/>
<path d="M1510.18 1135.18C1511.94 1133.42 1511.94 1130.58 1510.18 1128.82L1481.54 1100.18C1479.79 1098.42 1476.94 1098.42 1475.18 1100.18C1473.42 1101.94 1473.42 1104.79 1475.18 1106.54L1500.64 1132L1475.18 1157.46C1473.42 1159.21 1473.42 1162.06 1475.18 1163.82C1476.94 1165.58 1479.79 1165.58 1481.54 1163.82L1510.18 1135.18ZM972 1136.5H1507V1127.5H972V1136.5Z" fill="#00B5D1"/>
<path d="M1192 507L1192 1132" stroke="#00B5D1" stroke-width="9"/>
<path d="M1399 581L1399 722" stroke="#4E5EE4" stroke-width="9"/>
<path d="M1308 816L1308 1132" stroke="#00B5D1" stroke-width="9"/>
<path d="M1510.18 512.182C1511.94 510.425 1511.94 507.575 1510.18 505.818L1481.54 477.18C1479.79 475.423 1476.94 475.423 1475.18 477.18C1473.42 478.938 1473.42 481.787 1475.18 483.544L1500.64 509L1475.18 534.456C1473.42 536.213 1473.42 539.062 1475.18 540.82C1476.94 542.577 1479.79 542.577 1481.54 540.82L1510.18 512.182ZM1192 513.5L1507 513.5L1507 504.5L1192 504.5L1192 513.5Z" fill="#00B5D1"/>
<path d="M1510.18 819.182C1511.94 817.425 1511.94 814.575 1510.18 812.818L1481.54 784.18C1479.79 782.423 1476.94 782.423 1475.18 784.18C1473.42 785.938 1473.42 788.787 1475.18 790.544L1500.64 816L1475.18 841.456C1473.42 843.213 1473.42 846.062 1475.18 847.82C1476.94 849.577 1479.79 849.577 1481.54 847.82L1510.18 819.182ZM1308 820.5L1507 820.5L1507 811.5L1308 811.5L1308 820.5Z" fill="#00B5D1"/>
<path d="M1510.18 584.182C1511.94 582.425 1511.94 579.575 1510.18 577.818L1481.54 549.18C1479.79 547.423 1476.94 547.423 1475.18 549.18C1473.42 550.938 1473.42 553.787 1475.18 555.544L1500.64 581L1475.18 606.456C1473.42 608.213 1473.42 611.062 1475.18 612.82C1476.94 614.577 1479.79 614.577 1481.54 612.82L1510.18 584.182ZM1399 585.5L1507 585.5L1507 576.5L1399 576.5L1399 585.5Z" fill="#4E5EE4"/>
</svg>
