<svg xmlns="http://www.w3.org/2000/svg" xmlns:xlink="http://www.w3.org/1999/xlink" width="95px" height="70px" version="1.1" viewBox="0 0 95 70">
  <defs>
    <linearGradient id="linearGradient-1" x1="100%" x2="0%" y1="100%" y2="0%">
      <stop offset="0%" stop-color="#FFFFFF"/>
      <stop offset="100%" stop-color="#FFFFFF" stop-opacity="0"/>
    </linearGradient>
  </defs>
  <g id="Page-1" fill="none" fill-rule="evenodd" stroke="none" stroke-width="1">
    <g id="home" transform="translate(-530.000000, -474.000000)">
      <g id="Group-3-Copy-3" transform="translate(360.000000, 307.000000)">
        <g id="Group-3" transform="translate(170.000000, 167.000000)">
          <path id="Fill-1-Copy-10" fill="url(#linearGradient-1)" d="M69.2181818,33.8573111 L69.2181818,53.0283914 C69.2181818,54.4427792 68.071594,55.589367 66.6572062,55.589367 C66.4394948,55.589367 66.222672,55.5616056 66.0119836,55.5067545 L15.3263227,42.3111352 C6.30020926,39.9612564 0.000423032588,31.8114878 0.000299001335,22.4845026 L4.40581937e-05,3.31311755 C2.52495128e-05,1.89872977 1.14659784,0.75212669 2.56098561,0.752107882 C2.77870841,0.752104986 2.99554286,0.77986639 3.20624232,0.834720361 L53.8921581,14.0304061 C62.9183697,16.3803104 69.2181818,24.5302245 69.2181818,33.8573111 Z" opacity="0.2" transform="translate(34.609091, 28.170732) scale(-1, 1) translate(-34.609091, -28.170732) "/>
          <path id="Fill-1-Copy-10" stroke="url(#linearGradient-1)" stroke-width="0.853658537" d="M94,47.5158477 L94,66.686928 C94,68.1013158 92.8534122,69.2479036 91.4390244,69.2479036 C91.221313,69.2479036 91.0044902,69.2201422 90.7938017,69.1652911 L40.1081409,55.9696718 C31.0820274,53.619793 24.7822412,45.4700244 24.7821172,36.1430392 L24.7818622,16.9716541 C24.7818434,15.5572664 25.928416,14.4106633 27.3428038,14.4106445 C27.5605266,14.4106416 27.777361,14.438403 27.9880605,14.4932569 L78.6739763,27.6889427 C87.7001879,30.0388469 94,38.1887611 94,47.5158477 Z" transform="translate(59.390909, 41.829268) scale(-1, 1) translate(-59.390909, -41.829268) "/>
        </g>
      </g>
    </g>
  </g>
</svg>
