<svg width="390" height="100" viewBox="0 0 390 100" fill="none" xmlns="http://www.w3.org/2000/svg">
<g clip-path="url(#clip0)">
<rect x="-1" y="1" width="159" height="98" rx="49" transform="matrix(-1 0 0 1 273 0)" stroke="black" stroke-opacity="0.5" stroke-width="2"/>
<g filter="url(#filter0_d)">
<circle r="40" transform="matrix(-1 0 0 1 194 50)" fill="white"/>
</g>
<path d="M384.9 74.85C384.8 74.75 384.8 74.75 384.7 74.65C384.1 74.05 382.8 73.55 380.9 73.05C378.2 72.35 374.3 71.75 369.5 71.25C367.3 71.05 365.1 71.75 363.5 73.15C360.5 75.75 356.7 77.25 352.7 77.25H327.5C323.5 77.25 319.6 75.85 316.7 73.15C315.1 71.75 312.9 71.05 310.7 71.25C305.9 71.75 302 72.35 299.3 73.05C297.4 73.55 295.9 74.25 295.2 74.85C295.1 74.65 295 74.35 295 74.15V69.95C295 69.15 296.3 68.45 298.8 67.75V62.45C298.8 45.65 309.7 30.75 326.1 25.05L326.3 24.05C326.5 22.85 327.3 21.95 328.5 21.65C336.1 19.45 344.2 19.45 351.8 21.65C353 21.95 353.8 22.95 354 24.05L354.2 25.15C370.5 30.85 381.3 45.75 381.3 62.45L381.2 67.75C383.7 68.45 385 69.15 385 69.95V74.15C385.1 74.35 385 74.65 384.9 74.85Z" fill="#FFF100"/>
<path d="M298.8 67.65V62.35C298.8 45.55 309.7 30.65 326.1 24.95C320.2 34.15 316.6 47.45 316.6 62.25C316.6 63.25 316.6 64.25 316.7 65.15C308.8 65.75 302.6 66.65 298.8 67.65Z" fill="url(#paint0_linear)"/>
<path d="M381.2 67.65C379.4 67.15 377.5 66.75 375.7 66.55C375.8 65.15 375.8 63.75 375.8 62.25C375.8 53.15 374.4 44.55 371.9 37.15C378 44.25 381.3 53.15 381.3 62.45L381.2 67.65Z" fill="url(#paint1_linear)"/>
<path d="M384.7 74.65C384.8 74.75 384.8 74.75 384.9 74.85C383 77.65 363.6 80.65 340.1 80.65C316.6 80.65 297.2 77.65 295.3 74.85C295.9 74.25 297.4 73.55 299.4 73.05C302.1 72.35 306 71.75 310.8 71.25C313 71.05 315.2 71.75 316.8 73.15C319.8 75.75 323.6 77.25 327.6 77.25H352.8C356.8 77.25 360.7 75.85 363.6 73.15C365.2 71.75 367.4 71.05 369.6 71.25C374.4 71.75 378.3 72.35 381 73.05C382.8 73.55 384.1 74.15 384.7 74.65Z" fill="url(#paint2_radial)"/>
<path d="M340.1 32.45V54.05L330.4 48.25L340.1 32.45Z" fill="#0A0A0A"/>
<path d="M349.7 48.25L340.1 54.05V32.45L349.7 48.25Z" fill="#4B4D4D"/>
<path d="M349.7 51.35C349.7 51.35 340.2 64.45 340 64.65V57.15L349.7 51.35Z" fill="#4B4D4D"/>
<path d="M340.1 57.15V64.65L330.4 51.35L340.1 57.15Z" fill="#0A0A0A"/>
<path d="M49.9002 91.9283C72.5458 91.9283 90.9037 73.3559 90.9037 50.4457C90.9037 27.5355 72.5458 8.96304 49.9002 8.96304C27.2547 8.96304 8.89685 27.5355 8.89685 50.4457C8.89685 73.3559 27.2547 91.9283 49.9002 91.9283Z" fill="#5E464D"/>
<path d="M37.0055 87.2293C38.6828 87.802 44.3159 89.6337 44.5555 87.8426C44.6855 86.8597 41.7126 85.8525 37.6878 83.7203C31.9635 80.695 26.7267 76.8259 22.1531 72.2429C15.4774 65.6973 11.6388 56.7921 11.4636 47.4443C11.1225 34.8948 16.0286 24.7495 24.0985 18.2026C19.2257 21.9636 15.2534 26.7645 12.4711 32.2553C9.6888 37.7461 8.16664 43.7885 8.01555 49.9421C7.77593 59.0192 10.3143 66.6667 15.0823 73.6279C16.5629 75.5402 18.2936 77.2449 20.228 78.6964C24.7971 82.1526 31.478 85.3489 37.0055 87.2253" fill="white"/>
<path d="M91.4682 40.9381C88.9258 28.9814 81.0224 20.611 70.4507 14.6977C78.5206 20.4526 89.9127 32.6895 83.2034 43.4845C77.5175 52.1311 63.6886 50.4376 56.1344 46.3275C47.1507 41.4538 35.8967 30.4882 46.9964 19.7662C54.1809 12.8294 77.0504 20.6069 73.0256 30.9756C70.6781 37.0067 61.5401 35.6664 57.43 32.7179C54.4002 30.541 51.8497 26.8005 53.1981 22.9381C53.6326 21.6994 53.5717 19.7784 51.8213 21.1918C50.5176 22.2477 49.8597 23.986 49.6322 25.6024C47.7193 39.1226 71.8072 49.605 78.9511 36.5234C82.6632 29.7328 76.6524 19.8718 69.0861 15.8348C63.4002 12.7888 57.4787 10.6485 50.2292 11.1684C38.63 11.9806 28.895 19.2504 27.6766 31.1015C26.4581 42.8794 34.3331 53.4795 43.6052 59.8193C53.3524 66.4799 66.4543 70.8702 78.4434 66.8982C89.1898 63.3364 93.6288 51.0021 91.4682 40.934" fill="white"/>
<path d="M76.3437 31.7797C77.4971 24.0307 70.4913 18.7103 64.0216 16.2938C56.3944 13.4508 46.3181 14.6936 40.7622 21.009C36.7009 25.6471 36.9648 32.3808 39.0605 37.8311C42.2284 46.0635 49.3804 52.0134 57.7062 54.5842C63.6195 56.4118 70.7756 57.2078 76.7702 55.2787C85.5142 52.4642 88.3612 43.3464 86.5539 34.9922C86.167 33.1862 85.5728 31.4309 84.7832 29.7612C83.6785 27.4422 80.3157 22.7473 84.9578 28.4656C85.4466 29.1029 85.8968 29.7688 86.3062 30.4598C87.268 32.0397 88.0306 33.7326 88.5765 35.4999C91.1189 43.2977 89.1248 52.3951 82.0783 57.1022C76.6727 60.7047 69.8009 61.1352 63.5301 60.2335C55.1231 59.0151 47.1994 54.9538 41.6923 48.4191C36.6643 42.4611 33.2325 33.9038 35.2997 26.0816C36.8146 20.3592 41.4608 16.0867 47.0248 14.3037C54.0631 12.0253 61.8081 13.0853 68.1438 16.7852C71.3198 18.6331 74.2359 21.1918 75.8401 24.5464C76.5749 26.0577 76.9699 27.7115 76.9976 29.3916C77.0137 30.0721 76.9607 30.7525 76.8392 31.4223C76.7945 31.666 76.2787 32.3524 76.3518 31.7878" fill="#3FE0C5"/>
</g>
<defs>
<filter id="filter0_d" x="144" y="4" width="100" height="100" filterUnits="userSpaceOnUse" color-interpolation-filters="sRGB">
<feFlood flood-opacity="0" result="BackgroundImageFix"/>
<feColorMatrix in="SourceAlpha" type="matrix" values="0 0 0 0 0 0 0 0 0 0 0 0 0 0 0 0 0 0 127 0"/>
<feOffset dy="4"/>
<feGaussianBlur stdDeviation="5"/>
<feColorMatrix type="matrix" values="0 0 0 0 0 0 0 0 0 0 0 0 0 0 0 0 0 0 0.5 0"/>
<feBlend mode="normal" in2="BackgroundImageFix" result="effect1_dropShadow"/>
<feBlend mode="normal" in="SourceGraphic" in2="effect1_dropShadow" result="shape"/>
</filter>
<linearGradient id="paint0_linear" x1="312.641" y1="67.3695" x2="312.641" y2="24.6955" gradientUnits="userSpaceOnUse">
<stop stop-color="#EDCF00"/>
<stop offset="0.33" stop-color="#F0D500"/>
<stop offset="0.77" stop-color="#F9E500"/>
<stop offset="1" stop-color="#FFF100"/>
</linearGradient>
<linearGradient id="paint1_linear" x1="376.753" y1="67.6811" x2="376.753" y2="36.8168" gradientUnits="userSpaceOnUse">
<stop stop-color="#EDCF00"/>
<stop offset="0.59" stop-color="#F7E100"/>
<stop offset="1" stop-color="#FFF100"/>
</linearGradient>
<radialGradient id="paint2_radial" cx="0" cy="0" r="1" gradientUnits="userSpaceOnUse" gradientTransform="translate(340.43 96.542) scale(33.5506 32.3097)">
<stop stop-color="#FFF100"/>
<stop offset="0.23" stop-color="#F9E500"/>
<stop offset="0.67" stop-color="#F0D500"/>
<stop offset="1" stop-color="#EDCF00"/>
</radialGradient>
<clipPath id="clip0">
<rect width="390" height="100" fill="white"/>
</clipPath>
</defs>
</svg>
