<svg width="15" height="15" viewBox="0 0 15 15" fill="none" xmlns="http://www.w3.org/2000/svg">
<path fill-rule="evenodd" clip-rule="evenodd" d="M3 9H4V10H3C1.5 10 0 8.31 0 6.5C0 4.69 1.55 3 3 3H7C8.45 3 10 4.69 10 6.5C10 7.91 9.09 9.22 8 9.75V8.59C8.58 8.14 9 7.32 9 6.5C9 5.22 7.98 4 7 4H3C2.02 4 1 5.22 1 6.5C1 7.78 2 9 3 9ZM12 6H11V7H12C13 7 14 8.22 14 9.5C14 10.78 12.98 12 12 12H8C7.02 12 6 10.78 6 9.5C6 8.67 6.42 7.86 7 7.41V6.25C5.91 6.78 5 8.09 5 9.5C5 11.31 6.55 13 8 13H12C13.45 13 15 11.31 15 9.5C15 7.69 13.5 6 12 6Z" fill="black"/>
</svg>
