<?xml version="1.0" encoding="UTF-8"?><svg id="Layer_2" xmlns="http://www.w3.org/2000/svg" viewBox="0 0 921.1 921"><defs><style>.cls-1{fill:#5c5c70;stroke-width:0px;}</style></defs><g id="icon"><path class="cls-1" d="M0,461.75c0-.96,0-1.92,0-2.88.18-.61.47-1.2.53-1.82.17-1.83.27-3.66.35-5.5.58-12.66,2.5-25.11,5.8-37.34,8.24-30.56,23.67-56.98,46.01-79.34,61.06-61.09,122.19-122.11,183.28-183.17,33.71-33.7,67.38-67.44,101.13-101.1,15.22-15.18,32.78-26.98,52.43-35.69,19.1-8.46,39.12-13.27,59.93-14.57,8.6-.54,17.25-.45,25.88.25,8.13.66,16.19,1.77,24.13,3.57,33.08,7.51,61.88,23.06,85.88,47.01,94.86,94.7,189.6,189.52,284.38,284.31,13.39,13.4,24.32,28.59,32.83,45.52,14.65,29.15,20.19,60.1,18.14,92.51-.69,10.94-2.58,21.73-5.42,32.33-8.19,30.66-23.57,57.2-45.98,79.62-92.88,92.94-185.82,185.84-278.74,278.75-2.43,2.43-4.87,4.85-7.35,7.23-18.81,18.02-40.53,31.29-65.19,39.69-14.5,4.94-29.4,7.98-44.71,8.88-2.71.16-5.42.34-8.13.55-.53.04-1.05.28-1.58.43h-5.28c-.4-.14-.79-.39-1.2-.41-3.03-.22-6.06-.42-9.09-.58-8.55-.47-17-1.73-25.34-3.59-23.93-5.34-45.9-15.09-65.66-29.64-5.01-3.69-9.94-7.57-14.48-11.82-8.05-7.54-15.78-15.43-23.64-23.18-.21-.21-.36-.49-.61-.85.71-.73,1.36-1.42,2.03-2.09,74.33-74.29,148.67-148.58,223.01-222.88,20.31-20.3,40.61-40.6,60.91-60.91,1.58-1.58,3.17-3.17,4.67-4.82,22.07-24.34,31.97-52.83,29.08-85.64-1.23-14.01-5.1-27.32-11.52-39.82-14.28-27.79-36.51-46.31-66.26-55.63-30.83-9.65-61.77-18.98-92.66-28.45-1.58-.48-3.14-1.03-4.46-1.46,19.3-19.3,38.55-38.54,57.96-57.96.26.08.95.28,1.64.49,19.61,6,39.22,11.97,58.81,18.02,30.88,9.54,57.66,25.82,79.77,49.45,29.55,31.58,45.54,69.22,49.25,112.17,1.14,13.19.58,26.35-1.25,39.46-2.71,19.4-8.45,37.85-17.16,55.38-8.94,17.98-20.58,34.04-34.77,48.23-77.53,77.55-155.07,155.08-232.61,232.61-.62.62-1.27,1.22-1.85,1.88-.34.38-.58.85-.97,1.43,1.08.42,1.95.81,2.84,1.11,9.59,3.21,19.45,5.13,29.53,5.69,12.61.71,25.04-.6,37.23-4.01,19.36-5.42,36.05-15.41,50.24-29.6,94.12-94.1,188.23-188.2,282.33-282.33,19.1-19.11,30.38-42.04,33.28-69,1.3-12.1.69-24.1-1.88-35.99-4.78-22.1-15.38-40.99-31.34-56.94-66.01-65.99-132.01-132-198.01-197.99-.62-.62-1.23-1.26-1.87-1.86-.45-.42-.96-.79-1.54-1.26-.68.63-1.27,1.16-1.82,1.72-48.04,47.99-96.08,95.98-144.11,143.98-32.42,32.4-64.82,64.81-97.22,97.22-.9.9-1.8,1.82-2.63,2.79-4.59,5.42-6.27,11.68-4.76,18.58,1.94,8.8,7.38,14.56,16.11,16.93,15.01,4.08,30.04,8.05,45.07,12.07,32.75,8.77,65.49,17.54,98.24,26.31.52.14,1.03.34,1.39.46-19.69,19.69-39.35,39.35-59.13,59.13-.42-.1-1.12-.24-1.82-.42-33.9-9.08-67.82-18.12-101.71-27.24-28.43-7.65-49.37-24.54-62.08-51.17-8.31-17.41-10.99-35.84-8.06-54.92,3.08-20.05,11.79-37.42,26.13-51.77,80.67-80.74,161.39-161.43,242.1-242.13.62-.62,1.27-1.22,1.85-1.88.35-.39.62-.86.66-.92-4.16-4.16-8.16-8.15-12.32-12.31-.41.39-1.05.96-1.66,1.56-40.46,40.41-80.92,80.82-121.37,121.25-39.83,39.8-79.64,79.62-119.45,119.44-8.54,8.55-15.68,18.13-21.09,28.96-10.24,20.47-13.8,42.04-10.68,64.72,1.71,12.46,5.33,24.35,11.12,35.5,14.18,27.32,36.03,45.74,65.34,54.99,32.11,10.13,64.35,19.85,96.53,29.75.82.25,1.62.55,2.67.91-.67.72-1.12,1.25-1.62,1.74-18.09,18.1-36.19,36.2-54.29,54.3-.23.23-.48.43-.67.68-.78,1-1.69,1.41-2.91.76-.34-.18-.76-.23-1.14-.34-19.15-5.86-38.29-11.76-57.45-17.58-35.36-10.73-65.24-29.88-88.83-58.4-26.42-31.94-40.06-68.91-42.19-110.19-.75-14.59.43-29.09,3.36-43.4,7.35-35.82,23.88-66.82,49.68-92.69,77.66-77.86,155.46-155.59,233.2-233.38.62-.62,1.25-1.24,1.85-1.88.26-.28.46-.63.76-1.05-.5-.28-.88-.57-1.31-.72-12.22-4.41-24.87-6.41-37.82-6.42-6.15,0-12.27.52-18.36,1.53-12.72,2.12-24.73,6.25-36.03,12.44-9.96,5.46-18.8,12.39-26.82,20.41-92.8,92.81-185.62,185.62-278.42,278.42-2.04,2.04-4.09,4.06-6.04,6.17-25.3,27.46-35.22,59.78-29.64,96.59,3.66,24.13,14.69,44.76,31.96,62.03,66.12,66.11,132.23,132.22,198.35,198.34.68.68,1.34,1.37,2.05,2.02.45.41.96.76,1.53,1.2.92-.89,1.74-1.65,2.52-2.44,80.37-80.36,160.74-160.73,241.1-241.09.4-.4.8-.79,1.19-1.19,11.06-11.45,6.55-30.65-8.48-35.93-1.88-.66-3.83-1.09-5.76-1.6-43.62-11.66-87.24-23.32-130.85-34.99-3.14-.84-6.26-1.72-9.75-2.67.74-.82,1.23-1.41,1.77-1.95,18.49-18.5,37-36.98,55.45-55.51,1.29-1.3,2.43-1.62,4.21-1.15,33.91,9.08,67.85,18.03,101.75,27.15,20.58,5.53,37.68,16.57,50.59,33.58,15.69,20.68,21.96,44.09,18.94,69.9-1.82,15.56-7.51,29.64-16.47,42.46-4.57,6.54-10.18,12.11-15.77,17.71-94.04,94.07-188.1,188.11-282.16,282.16-.55.55-1.15,1.06-1.86,1.72-.88-.86-1.68-1.62-2.46-2.4-83.48-83.47-166.95-166.95-250.44-250.42-20.75-20.74-35.58-45.06-44.28-73.09-3.13-10.09-5.41-20.39-6.49-30.91-.62-6.04-.96-12.1-1.46-18.15-.05-.6-.35-1.17-.53-1.76Z"/></g></svg>