<svg xmlns="http://www.w3.org/2000/svg" width="44" height="44" viewBox="0 0 44 44"><path d="M21.998 2.14c-11.242 0-20.36 9.117-20.36 20.363 0 8.995 5.834 16.628 13.925 19.321 1.019.187 1.39-.442 1.39-.982 0-.484-.017-1.764-.027-3.463-5.664 1.23-6.86-2.73-6.86-2.73-.925-2.352-2.26-2.978-2.26-2.978-1.85-1.263.14-1.238.14-1.238 2.043.144 3.118 2.099 3.118 2.099 1.817 3.111 4.767 2.212 5.927 1.691.185-1.315.71-2.212 1.292-2.721-4.521-.515-9.275-2.261-9.275-10.064 0-2.224.794-4.04 2.096-5.464-.21-.515-.908-2.585.2-5.388 0 0 1.71-.548 5.6 2.086A19.555 19.555 0 0 1 22 11.987c1.73.009 3.47.234 5.097.685 3.888-2.634 5.594-2.086 5.594-2.086 1.111 2.803.412 4.873.204 5.388 1.305 1.424 2.092 3.24 2.092 5.464 0 7.823-4.761 9.544-9.296 10.048.73.628 1.381 1.871 1.381 3.771 0 2.721-.025 4.917-.025 5.585 0 .545.368 1.179 1.4.98 8.085-2.699 13.914-10.325 13.914-19.319 0-11.246-9.118-20.362-20.364-20.362" fill-rule="evenodd"/></svg>