<svg width="30" height="30" viewBox="0 0 30 30" fill="none" xmlns="http://www.w3.org/2000/svg">
<path fill-rule="evenodd" clip-rule="evenodd" d="M25.2509 18.1481C23.2194 23.0526 18.4336 26.2504 13.125 26.2504C5.87627 26.2504 0 20.3741 0 13.1254C0 7.81683 3.1978 3.03094 8.10228 0.999451C13.0068 -1.03204 18.6521 0.0908813 22.4058 3.8446C26.1595 7.59833 27.2824 13.2437 25.2509 18.1481ZM1.875 13.1254C1.875 19.3386 6.9118 24.3754 13.125 24.3754C19.3353 24.3683 24.3679 19.3356 24.375 13.1254C24.375 6.91217 19.3382 1.87537 13.125 1.87537C6.9118 1.87537 1.875 6.91217 1.875 13.1254ZM13.125 8.34052C14.1605 8.34052 15 7.50104 15 6.46552C15 5.42999 14.1605 4.59052 13.125 4.59052C12.0895 4.59052 11.25 5.42999 11.25 6.46552C11.25 7.50104 12.0895 8.34052 13.125 8.34052ZM14.0625 10.4078V20.6815H12.1875V10.4078H14.0625Z" transform="translate(1.875 1.87463)" fill="black"/>
</svg>
