<svg width="30" height="30" viewBox="0 0 30 30" fill="none" xmlns="http://www.w3.org/2000/svg">
<path fill-rule="evenodd" clip-rule="evenodd" d="M17.2077 2.31857L17.207 2.31787C15.8934 1.39825 14.5204 0.628052 13.1082 0L0.00012207 18.7202L0 26.8927L7.67969 24.0976L20.7877 5.37735C19.7146 4.26498 18.5211 3.23822 17.2077 2.31857ZM13.7286 2.38266C14.5527 2.81982 15.3552 3.31033 16.1318 3.85416L16.1323 3.85437C16.9085 4.39798 17.6438 4.98413 18.3364 5.60922L15.6396 9.4606L11.0319 6.23428L13.7286 2.38266ZM1.875 24.2148L6.48285 22.5378L14.5641 10.9966L13.0282 9.92111L5.64203 20.4698L4.10614 19.3941L11.4922 8.84583L9.95636 7.77008L1.87512 19.3112L1.875 24.2148Z" transform="translate(4.60614 1.55365)" fill="black"/>
</svg>
