<svg width="30" height="30" viewBox="0 0 30 30" fill="none" xmlns="http://www.w3.org/2000/svg">
<path fill-rule="evenodd" clip-rule="evenodd" d="M10.4099 4.85382C9.70984 3.3476 9.52264 1.63489 9.89874 0L21.2895 7.97589C20.0644 8.77008 18.6383 9.18384 17.1981 9.18384C16.9835 9.18384 16.7686 9.17352 16.554 9.15503L13.2495 13.8744C14.3414 16.2222 14.1884 19.0714 12.5964 21.345L0.309082 12.7413C1.76816 10.6575 4.09485 9.54254 6.45923 9.54254C6.6749 9.54254 6.89081 9.55292 7.10648 9.57159L10.4099 4.85382ZM18.9901 7.77435L10.8768 2.09344C10.9281 2.87653 11.1228 3.65027 11.4562 4.36755L11.7366 4.97076L11.355 5.51562L7.66995 10.7785L7.00699 10.7211C6.81689 10.7047 6.6326 10.6964 6.45923 10.6964C4.77792 10.6964 3.17987 11.3624 2.0029 12.5189L12.2256 19.6768C12.984 18.0072 12.9921 16.0572 12.2032 14.361L11.9227 13.7576L15.9903 7.94836L16.653 8.00549C16.8421 8.02179 17.0255 8.03003 17.1981 8.03003C17.8096 8.03003 18.4122 7.94324 18.9901 7.77435ZM6.45343 19.3326L2.56067 22.6016L4.30109 17.8255L3.32269 17.1404L0 26.2586L7.43185 20.0177L6.45343 19.3326ZM8.73611 11.121L12.4234 5.85492C12.6773 6.1449 12.9586 6.41534 13.2683 6.65997L9.78076 11.6407C9.44681 11.4344 9.09744 11.2608 8.73611 11.121Z" transform="translate(5.16083 1.87073)" />
</svg>
