<?xml version="1.0" encoding="UTF-8"?>
<svg width="14px" height="12px" viewBox="0 0 14 12" version="1.1" xmlns="http://www.w3.org/2000/svg" xmlns:xlink="http://www.w3.org/1999/xlink">
    <!-- Generator: Sketch 57.1 (83088) - https://sketch.com -->
    <title>warning</title>
    <desc>Created with Sketch.</desc>
    <g id="Page-1" stroke="none" stroke-width="1" fill="none" fill-rule="evenodd">
        <g id="Styles" transform="translate(-385.000000, -2542.000000)" fill="#F79F1F" fill-rule="nonzero">
            <g id="warning" transform="translate(385.000000, 2542.000000)">
                <path d="M13.8767891,10.6807156 L7.7345625,0.427623853 C7.57933203,0.168495413 7.30061719,0.0100458716 6.99997266,0.0100458716 C6.69932812,0.0100458716 6.42061328,0.16846789 6.26538281,0.427623853 L0.123210938,10.6807156 C-0.03653125,10.9473853 -0.0412617187,11.28 0.110878906,11.5511284 C0.263019531,11.8222844 0.54840625,11.9899541 0.857773438,11.9899541 L13.1421992,11.9899541 C13.4515664,11.9899541 13.7369531,11.8222569 13.8890937,11.5511284 C14.0412344,11.2799725 14.0365313,10.9473853 13.8767891,10.6807156 Z M7.00456641,3.55670642 C7.35732812,3.55670642 7.6558125,3.75701835 7.6558125,4.11206422 C7.6558125,5.19544954 7.52918359,6.75231193 7.52918359,7.83569725 C7.52918359,8.11794495 7.22164844,8.23626606 7.00456641,8.23626606 C6.71516016,8.23626606 6.47092578,8.11791743 6.47092578,7.83569725 C6.47092578,6.75231193 6.34432422,5.19544954 6.34432422,4.11206422 C6.34432422,3.75701835 6.63373047,3.55670642 7.00456641,3.55670642 Z M7.01361719,10.2665505 C6.61565625,10.2665505 6.31714453,9.93880734 6.31714453,9.56554128 C6.31714453,9.18316514 6.61562891,8.86453211 7.01361719,8.86453211 C7.38445313,8.86453211 7.70103906,9.18316514 7.70103906,9.56554128 C7.70103906,9.93880734 7.38445313,10.2665505 7.01361719,10.2665505 Z" id="Shape"></path>
            </g>
        </g>
    </g>
</svg>